# MagicaVoxel @ Ephtracy

# group
o 

# material
mtllib BreadBoxTop.vox.mtl
usemtl palette

# normals
vn -1 0 0
vn 1 0 0
vn 0 0 1
vn 0 0 -1
vn 0 -1 0
vn 0 1 0

# texcoords
vt 0.0332031 0.5
vt 0.201172 0.5
vt 0.369141 0.5
vt 0.537109 0.5
vt 0.986328 0.5

# verts
v -1.6 0 1.6
v -1.6 0 -1.6
v -1.6 0.5 1.6
v -1.6 0.5 -1.6
v 1.6 0 1.6
v 1.6 0 -1.6
v 1.6 0.5 1.6
v 1.6 0.5 -1.6
v -1.6 0 1.6
v -1.6 0.5 1.6
v 1.6 0 1.6
v 1.6 0.5 1.6
v -1.6 0 -1.6
v -1.6 0.5 -1.6
v 1.6 0 -1.6
v 1.6 0.5 -1.6
v -1.6 0 1.6
v 1.6 0 1.6
v -1.6 0 -1.6
v 1.6 0 -1.6
v -1.6 0.5 1.6
v 1.6 0.5 1.6
v -1.4 0.5 1.4
v 1.4 0.5 1.4
v -0.3 0.5 1
v 0.3 0.5 1
v -0.5 0.5 0.9
v -0.3 0.5 0.9
v 0.3 0.5 0.9
v 0.5 0.5 0.9
v -0.7 0.5 0.8
v -0.5 0.5 0.8
v 0.5 0.5 0.8
v 0.7 0.5 0.8
v -0.8 0.5 0.7
v -0.7 0.5 0.7
v -0.3 0.5 0.7
v 0.3 0.5 0.7
v 0.7 0.5 0.7
v 0.8 0.5 0.7
v -0.6 0.5 0.6
v -0.3 0.5 0.6
v 0.3 0.5 0.6
v 0.6 0.5 0.6
v -0.9 0.5 0.5
v -0.8 0.5 0.5
v -0.7 0.5 0.5
v -0.6 0.5 0.5
v -0.3 0.5 0.5
v -0.2 0.5 0.5
v 0.2 0.5 0.5
v 0.3 0.5 0.5
v 0.6 0.5 0.5
v 0.7 0.5 0.5
v 0.8 0.5 0.5
v 0.9 0.5 0.5
v -0.8 0.5 0.4
v -0.7 0.5 0.4
v -0.6 0.5 0.4
v -0.4 0.5 0.4
v -0.2 0.5 0.4
v 0.2 0.5 0.4
v 0.4 0.5 0.4
v 0.6 0.5 0.4
v 0.7 0.5 0.4
v 0.8 0.5 0.4
v -1 0.5 0.3
v -0.9 0.5 0.3
v -0.5 0.5 0.3
v -0.4 0.5 0.3
v 0.4 0.5 0.3
v 0.5 0.5 0.3
v 0.9 0.5 0.3
v 1 0.5 0.3
v -0.7 0.5 0.2
v -0.5 0.5 0.2
v -0.4 0.5 0.2
v -0.3 0.5 0.2
v 0.3 0.5 0.2
v 0.4 0.5 0.2
v 0.5 0.5 0.2
v 0.7 0.5 0.2
v -0.7 0.5 0.1
v -0.3 0.5 0.1
v 0.3 0.5 0.1
v 0.7 0.5 0.1
v -0.2 0.5 -0.1
v -0.1 0.5 -0.1
v 0.2 0.5 -0.1
v 0.3 0.5 -0.1
v 0.5 0.5 -0.1
v 0.6 0.5 -0.1
v -0.5 0.5 -0.2
v -0.4 0.5 -0.2
v -0.2 0.5 -0.2
v -0.1 0.5 -0.2
v 0.2 0.5 -0.2
v 0.3 0.5 -0.2
v 0.5 0.5 -0.2
v 0.6 0.5 -0.2
v -1 0.5 -0.3
v -0.9 0.5 -0.3
v -0.8 0.5 -0.3
v -0.7 0.5 -0.3
v -0.6 0.5 -0.3
v -0.5 0.5 -0.3
v -0.4 0.5 -0.3
v 0 0.5 -0.3
v 0.1 0.5 -0.3
v 0.3 0.5 -0.3
v 0.4 0.5 -0.3
v 0.6 0.5 -0.3
v 0.7 0.5 -0.3
v 0.8 0.5 -0.3
v 0.9 0.5 -0.3
v 1 0.5 -0.3
v -0.3 0.5 -0.4
v -0.2 0.5 -0.4
v 0 0.5 -0.4
v 0.1 0.5 -0.4
v 0.3 0.5 -0.4
v 0.4 0.5 -0.4
v -0.9 0.5 -0.5
v -0.8 0.5 -0.5
v -0.7 0.5 -0.5
v -0.6 0.5 -0.5
v -0.5 0.5 -0.5
v -0.3 0.5 -0.5
v -0.2 0.5 -0.5
v 0.1 0.5 -0.5
v 0.2 0.5 -0.5
v 0.5 0.5 -0.5
v 0.6 0.5 -0.5
v 0.7 0.5 -0.5
v 0.8 0.5 -0.5
v 0.9 0.5 -0.5
v -0.6 0.5 -0.6
v -0.5 0.5 -0.6
v -0.3 0.5 -0.6
v 0.1 0.5 -0.6
v 0.2 0.5 -0.6
v 0.3 0.5 -0.6
v 0.5 0.5 -0.6
v 0.6 0.5 -0.6
v -0.8 0.5 -0.7
v -0.7 0.5 -0.7
v -0.5 0.5 -0.7
v -0.3 0.5 -0.7
v 0.3 0.5 -0.7
v 0.5 0.5 -0.7
v 0.7 0.5 -0.7
v 0.8 0.5 -0.7
v -0.7 0.5 -0.8
v -0.5 0.5 -0.8
v -0.3 0.5 -0.8
v 0.3 0.5 -0.8
v 0.5 0.5 -0.8
v 0.7 0.5 -0.8
v -0.5 0.5 -0.9
v -0.3 0.5 -0.9
v 0.3 0.5 -0.9
v 0.5 0.5 -0.9
v -0.3 0.5 -1
v 0.3 0.5 -1
v -1.4 0.5 -1.4
v 1.4 0.5 -1.4
v -1.6 0.5 -1.6
v 1.6 0.5 -1.6

# faces
f 3/4/1 2/4/1 1/4/1
f 4/4/1 2/4/1 3/4/1
f 5/4/2 6/4/2 7/4/2
f 7/4/2 6/4/2 8/4/2
f 11/4/3 10/4/3 9/4/3
f 12/4/3 10/4/3 11/4/3
f 13/4/4 14/4/4 15/4/4
f 15/4/4 14/4/4 16/4/4
f 19/4/5 18/4/5 17/4/5
f 20/4/5 18/4/5 19/4/5
f 21/4/6 22/4/6 23/4/6
f 23/4/6 22/4/6 24/4/6
f 23/1/6 24/1/6 25/1/6
f 25/1/6 24/1/6 26/1/6
f 23/1/6 25/1/6 27/1/6
f 25/5/6 26/5/6 28/5/6
f 27/1/6 25/1/6 28/1/6
f 26/1/6 24/1/6 29/1/6
f 28/5/6 26/5/6 29/5/6
f 29/1/6 24/1/6 30/1/6
f 23/1/6 27/1/6 31/1/6
f 27/5/6 28/5/6 32/5/6
f 31/1/6 27/1/6 32/1/6
f 28/5/6 29/5/6 32/5/6
f 29/5/6 30/5/6 32/5/6
f 30/1/6 24/1/6 33/1/6
f 32/5/6 30/5/6 33/5/6
f 33/1/6 24/1/6 34/1/6
f 23/1/6 31/1/6 35/1/6
f 31/5/6 32/5/6 36/5/6
f 35/1/6 31/1/6 36/1/6
f 32/5/6 33/5/6 36/5/6
f 33/5/6 34/5/6 36/5/6
f 36/5/6 34/5/6 37/5/6
f 37/5/6 34/5/6 38/5/6
f 34/1/6 24/1/6 39/1/6
f 38/5/6 34/5/6 39/5/6
f 39/1/6 24/1/6 40/1/6
f 35/5/6 36/5/6 41/5/6
f 36/5/6 37/5/6 41/5/6
f 37/4/6 38/4/6 42/4/6
f 41/5/6 37/5/6 42/5/6
f 39/5/6 40/5/6 43/5/6
f 42/4/6 38/4/6 43/4/6
f 38/5/6 39/5/6 43/5/6
f 43/5/6 40/5/6 44/5/6
f 23/1/6 35/1/6 45/1/6
f 35/5/6 41/5/6 46/5/6
f 45/1/6 35/1/6 46/1/6
f 46/5/6 41/5/6 47/5/6
f 41/4/6 42/4/6 48/4/6
f 47/5/6 41/5/6 48/5/6
f 42/3/6 43/3/6 49/3/6
f 48/4/6 42/4/6 49/4/6
f 49/3/6 43/3/6 50/3/6
f 50/3/6 43/3/6 51/3/6
f 43/4/6 44/4/6 52/4/6
f 51/3/6 43/3/6 52/3/6
f 44/5/6 40/5/6 53/5/6
f 52/4/6 44/4/6 53/4/6
f 53/5/6 40/5/6 54/5/6
f 40/1/6 24/1/6 55/1/6
f 54/5/6 40/5/6 55/5/6
f 55/1/6 24/1/6 56/1/6
f 46/5/6 47/5/6 57/5/6
f 45/5/6 46/5/6 57/5/6
f 47/4/6 48/4/6 58/4/6
f 57/5/6 47/5/6 58/5/6
f 48/3/6 49/3/6 59/3/6
f 58/4/6 48/4/6 59/4/6
f 49/3/6 50/3/6 59/3/6
f 59/3/6 50/3/6 60/3/6
f 50/2/6 51/2/6 61/2/6
f 60/3/6 50/3/6 61/3/6
f 51/3/6 52/3/6 62/3/6
f 61/2/6 51/2/6 62/2/6
f 52/3/6 53/3/6 62/3/6
f 62/3/6 53/3/6 63/3/6
f 53/4/6 54/4/6 64/4/6
f 63/3/6 53/3/6 64/3/6
f 55/5/6 56/5/6 65/5/6
f 64/4/6 54/4/6 65/4/6
f 54/5/6 55/5/6 65/5/6
f 65/5/6 56/5/6 66/5/6
f 23/1/6 45/1/6 67/1/6
f 45/5/6 57/5/6 68/5/6
f 67/1/6 45/1/6 68/1/6
f 59/3/6 60/3/6 69/3/6
f 58/3/6 59/3/6 69/3/6
f 60/2/6 61/2/6 70/2/6
f 69/3/6 60/3/6 70/3/6
f 62/2/6 63/2/6 70/2/6
f 61/2/6 62/2/6 70/2/6
f 63/3/6 64/3/6 71/3/6
f 70/2/6 63/2/6 71/2/6
f 64/3/6 65/3/6 71/3/6
f 71/3/6 65/3/6 72/3/6
f 66/5/6 56/5/6 73/5/6
f 56/1/6 24/1/6 73/1/6
f 73/1/6 24/1/6 74/1/6
f 58/3/6 69/3/6 75/3/6
f 57/4/6 58/4/6 75/4/6
f 69/2/6 70/2/6 76/2/6
f 75/3/6 69/3/6 76/3/6
f 70/4/6 71/4/6 77/4/6
f 76/2/6 70/2/6 77/2/6
f 77/4/6 71/4/6 78/4/6
f 78/4/6 71/4/6 79/4/6
f 71/2/6 72/2/6 80/2/6
f 79/4/6 71/4/6 80/4/6
f 72/3/6 65/3/6 81/3/6
f 80/2/6 72/2/6 81/2/6
f 65/4/6 66/4/6 82/4/6
f 81/3/6 65/3/6 82/3/6
f 57/4/6 75/4/6 83/4/6
f 75/4/6 76/4/6 83/4/6
f 76/4/6 77/4/6 83/4/6
f 77/4/6 78/4/6 83/4/6
f 78/3/6 79/3/6 84/3/6
f 83/4/6 78/4/6 84/4/6
f 79/4/6 80/4/6 85/4/6
f 84/3/6 79/3/6 85/3/6
f 80/4/6 81/4/6 85/4/6
f 81/4/6 82/4/6 85/4/6
f 82/4/6 66/4/6 86/4/6
f 85/4/6 82/4/6 86/4/6
f 83/3/6 84/3/6 87/3/6
f 84/3/6 85/3/6 87/3/6
f 85/3/6 86/3/6 87/3/6
f 87/3/6 86/3/6 88/3/6
f 88/3/6 86/3/6 89/3/6
f 89/3/6 86/3/6 90/3/6
f 90/3/6 86/3/6 91/3/6
f 91/3/6 86/3/6 92/3/6
f 83/3/6 87/3/6 93/3/6
f 93/3/6 87/3/6 94/3/6
f 87/1/6 88/1/6 95/1/6
f 94/3/6 87/3/6 95/3/6
f 88/3/6 89/3/6 96/3/6
f 95/1/6 88/1/6 96/1/6
f 89/1/6 90/1/6 97/1/6
f 96/3/6 89/3/6 97/3/6
f 90/3/6 91/3/6 98/3/6
f 97/1/6 90/1/6 98/1/6
f 91/1/6 92/1/6 99/1/6
f 98/3/6 91/3/6 99/3/6
f 92/3/6 86/3/6 100/3/6
f 99/1/6 92/1/6 100/1/6
f 23/1/6 67/1/6 101/1/6
f 67/5/6 68/5/6 101/5/6
f 68/5/6 57/5/6 102/5/6
f 101/5/6 68/5/6 102/5/6
f 57/4/6 83/4/6 103/4/6
f 102/5/6 57/5/6 103/5/6
f 83/3/6 93/3/6 104/3/6
f 103/4/6 83/4/6 104/4/6
f 104/3/6 93/3/6 105/3/6
f 93/1/6 94/1/6 106/1/6
f 105/3/6 93/3/6 106/3/6
f 99/3/6 100/3/6 107/3/6
f 106/1/6 94/1/6 107/1/6
f 98/3/6 99/3/6 107/3/6
f 94/3/6 95/3/6 107/3/6
f 95/3/6 96/3/6 107/3/6
f 97/3/6 98/3/6 107/3/6
f 96/3/6 97/3/6 107/3/6
f 107/3/6 100/3/6 108/3/6
f 108/3/6 100/3/6 109/3/6
f 109/3/6 100/3/6 110/3/6
f 110/3/6 100/3/6 111/3/6
f 100/3/6 86/3/6 112/3/6
f 111/3/6 100/3/6 112/3/6
f 86/4/6 66/4/6 113/4/6
f 112/3/6 86/3/6 113/3/6
f 66/5/6 73/5/6 114/5/6
f 113/4/6 66/4/6 114/4/6
f 73/5/6 74/5/6 114/5/6
f 114/5/6 74/5/6 115/5/6
f 74/1/6 24/1/6 116/1/6
f 115/5/6 74/5/6 116/5/6
f 105/3/6 106/3/6 117/3/6
f 106/3/6 107/3/6 117/3/6
f 107/3/6 108/3/6 117/3/6
f 117/3/6 108/3/6 118/3/6
f 108/1/6 109/1/6 119/1/6
f 118/3/6 108/3/6 119/3/6
f 109/3/6 110/3/6 120/3/6
f 119/1/6 109/1/6 120/1/6
f 110/1/6 111/1/6 121/1/6
f 120/3/6 110/3/6 121/3/6
f 111/3/6 112/3/6 122/3/6
f 121/1/6 111/1/6 122/1/6
f 101/1/6 102/1/6 123/1/6
f 103/5/6 104/5/6 123/5/6
f 102/5/6 103/5/6 123/5/6
f 123/5/6 104/5/6 124/5/6
f 104/4/6 105/4/6 125/4/6
f 124/5/6 104/5/6 125/5/6
f 105/3/6 117/3/6 126/3/6
f 125/4/6 105/4/6 126/4/6
f 126/3/6 117/3/6 127/3/6
f 117/1/6 118/1/6 128/1/6
f 127/3/6 117/3/6 128/3/6
f 120/3/6 121/3/6 129/3/6
f 128/1/6 118/1/6 129/1/6
f 119/3/6 120/3/6 129/3/6
f 118/3/6 119/3/6 129/3/6
f 121/3/6 122/3/6 129/3/6
f 129/3/6 122/3/6 130/3/6
f 130/3/6 122/3/6 131/3/6
f 122/3/6 112/3/6 132/3/6
f 131/3/6 122/3/6 132/3/6
f 112/4/6 113/4/6 133/4/6
f 132/3/6 112/3/6 133/3/6
f 114/5/6 115/5/6 134/5/6
f 133/4/6 113/4/6 134/4/6
f 113/5/6 114/5/6 134/5/6
f 134/5/6 115/5/6 135/5/6
f 115/1/6 116/1/6 136/1/6
f 135/5/6 115/5/6 136/5/6
f 125/5/6 126/5/6 137/5/6
f 126/4/6 127/4/6 137/4/6
f 124/5/6 125/5/6 137/5/6
f 127/3/6 128/3/6 138/3/6
f 137/4/6 127/4/6 138/4/6
f 129/3/6 130/3/6 138/3/6
f 128/3/6 129/3/6 138/3/6
f 138/3/6 130/3/6 139/3/6
f 130/1/6 131/1/6 140/1/6
f 139/3/6 130/3/6 140/3/6
f 131/3/6 132/3/6 141/3/6
f 140/1/6 131/1/6 141/1/6
f 141/3/6 132/3/6 142/3/6
f 132/4/6 133/4/6 143/4/6
f 142/3/6 132/3/6 143/3/6
f 133/5/6 134/5/6 144/5/6
f 143/4/6 133/4/6 144/4/6
f 134/5/6 135/5/6 144/5/6
f 124/5/6 137/5/6 145/5/6
f 123/1/6 124/1/6 145/1/6
f 137/5/6 138/5/6 145/5/6
f 145/5/6 138/5/6 146/5/6
f 138/4/6 139/4/6 147/4/6
f 146/5/6 138/5/6 147/5/6
f 141/3/6 142/3/6 148/3/6
f 147/4/6 139/4/6 148/4/6
f 139/3/6 140/3/6 148/3/6
f 140/3/6 141/3/6 148/3/6
f 142/4/6 143/4/6 149/4/6
f 148/3/6 142/3/6 149/3/6
f 143/5/6 144/5/6 150/5/6
f 149/4/6 143/4/6 150/4/6
f 144/5/6 135/5/6 151/5/6
f 150/5/6 144/5/6 151/5/6
f 135/1/6 136/1/6 152/1/6
f 151/5/6 135/5/6 152/5/6
f 146/5/6 147/5/6 153/5/6
f 145/1/6 146/1/6 153/1/6
f 147/5/6 148/5/6 153/5/6
f 153/5/6 148/5/6 154/5/6
f 148/4/6 149/4/6 155/4/6
f 154/5/6 148/5/6 155/5/6
f 149/5/6 150/5/6 156/5/6
f 155/4/6 149/4/6 156/4/6
f 150/5/6 151/5/6 156/5/6
f 156/5/6 151/5/6 157/5/6
f 151/1/6 152/1/6 158/1/6
f 157/5/6 151/5/6 158/5/6
f 154/5/6 155/5/6 159/5/6
f 156/5/6 157/5/6 159/5/6
f 153/1/6 154/1/6 159/1/6
f 155/5/6 156/5/6 159/5/6
f 159/5/6 157/5/6 160/5/6
f 160/5/6 157/5/6 161/5/6
f 157/1/6 158/1/6 162/1/6
f 161/5/6 157/5/6 162/5/6
f 160/5/6 161/5/6 163/5/6
f 159/1/6 160/1/6 163/1/6
f 161/1/6 162/1/6 164/1/6
f 163/5/6 161/5/6 164/5/6
f 21/4/6 23/4/6 165/4/6
f 123/1/6 145/1/6 165/1/6
f 163/1/6 164/1/6 165/1/6
f 159/1/6 163/1/6 165/1/6
f 153/1/6 159/1/6 165/1/6
f 145/1/6 153/1/6 165/1/6
f 101/1/6 123/1/6 165/1/6
f 23/1/6 101/1/6 165/1/6
f 164/1/6 162/1/6 166/1/6
f 165/1/6 164/1/6 166/1/6
f 24/4/6 22/4/6 166/4/6
f 136/1/6 116/1/6 166/1/6
f 162/1/6 158/1/6 166/1/6
f 116/1/6 24/1/6 166/1/6
f 152/1/6 136/1/6 166/1/6
f 158/1/6 152/1/6 166/1/6
f 21/4/6 165/4/6 167/4/6
f 165/4/6 166/4/6 167/4/6
f 166/4/6 22/4/6 168/4/6
f 167/4/6 166/4/6 168/4/6
