# MagicaVoxel @ Ephtracy

# group
o 

# material
mtllib chef2.mtl
usemtl palette

# normals
vn -1 0 0
vn 1 0 0
vn 0 0 1
vn 0 0 -1
vn 0 -1 0
vn 0 1 0

# texcoords
vt 0.201172 0.5
vt 0.306641 0.5
vt 0.564453 0.5
vt 0.841797 0.5
vt 0.958984 0.5
vt 0.970703 0.5
vt 0.990234 0.5
vt 0.994141 0.5

# verts
v -1.6 -1.6 0.4
v -1.6 -1.6 -0.2
v -1.6 -1.1 0.4
v -1.6 -1.1 -0.2
v -1.6 0.2 0.4
v -1.6 0.2 -0.2
v -1.6 0.7 0.4
v -1.6 0.7 -0.2
v -1.6 1.2 0.4
v -1.6 1.2 -0.2
v -1.6 3.4 0.9
v -1.6 3.4 -0.7
v -1.6 3.9 0.9
v -1.6 3.9 -0.7
v -1.2 -2 0.9
v -1.2 -2 -0.7
v -1.2 -1.6 1.4
v -1.2 -1.6 0.9
v -1.2 -1.6 0.8
v -1.2 -1.6 0.4
v -1.2 -1.6 -0.2
v -1.2 -1.6 -0.7
v -1.2 -1.6 -1.2
v -1.2 -1.4 0.8
v -1.2 -1.4 0.7
v -1.2 -1.3 0.7
v -1.2 -1.3 0.6
v -1.2 -1.2 0.6
v -1.2 -1.2 0.4
v -1.2 -1.1 0.4
v -1.2 -1.1 -0.2
v -1.2 -1.1 -0.7
v -1.2 -1.1 -1.2
v -1.2 -0.7 1.4
v -1.2 -0.7 0.4
v -1.2 -0.7 -0.2
v -1.2 -0.7 -1.2
v -1.2 0.2 1.4
v -1.2 0.2 0.9
v -1.2 0.2 0.4
v -1.2 0.2 -0.2
v -1.2 0.2 -0.7
v -1.2 0.2 -1.2
v -1.2 0.7 0.4
v -1.2 0.7 -0.2
v -1.2 1.2 0.4
v -1.2 1.2 -0.2
v -1.2 1.6 0.9
v -1.2 1.6 -0.7
v -1.2 3.4 1.4
v -1.2 3.4 0.9
v -1.2 3.4 -0.7
v -1.2 3.4 -1.2
v -1.2 3.9 1.4
v -1.2 3.9 0.9
v -1.2 3.9 -0.7
v -1.2 3.9 -1.2
v -0.8 -2.5 0.4
v -0.8 -2.5 -0.2
v -0.8 -2 0.4
v -0.8 -2 -0.2
v -0.8 0.2 -0.7
v -0.8 0.2 -1.2
v -0.8 1.6 -0.7
v -0.8 1.6 -1.2
v -0.8 3.4 -0.7
v -0.8 3.4 -1.2
v -0.8 3.4 -1.7
v -0.8 3.9 -1.2
v -0.8 3.9 -1.7
v 0.4 -2.5 0.4
v 0.4 -2.5 -0.2
v 0.4 -2 0.9
v 0.4 -2 0.4
v 0.4 -2 -0.2
v 0.4 -2 -0.7
v 0.4 -1.6 0.9
v 0.4 -1.6 0.4
v 0.4 -1.6 -0.2
v 0.4 -1.6 -0.7
v -0.4 -2.5 0.4
v -0.4 -2.5 -0.2
v -0.4 -2 0.9
v -0.4 -2 0.4
v -0.4 -2 -0.2
v -0.4 -2 -0.7
v -0.4 -1.6 0.9
v -0.4 -1.6 0.4
v -0.4 -1.6 -0.2
v -0.4 -1.6 -0.7
v 0.8 -2.5 0.4
v 0.8 -2.5 -0.2
v 0.8 -2 0.4
v 0.8 -2 -0.2
v 0.8 0.2 -0.7
v 0.8 0.2 -1.2
v 0.8 1.6 -0.7
v 0.8 1.6 -1.2
v 0.8 3.4 -0.7
v 0.8 3.4 -1.2
v 0.8 3.4 -1.7
v 0.8 3.9 -1.2
v 0.8 3.9 -1.7
v 1.2 -2 0.9
v 1.2 -2 -0.7
v 1.2 -1.6 1.4
v 1.2 -1.6 0.9
v 1.2 -1.6 0.8
v 1.2 -1.6 0.4
v 1.2 -1.6 -0.2
v 1.2 -1.6 -0.7
v 1.2 -1.6 -1.2
v 1.2 -1.4 0.8
v 1.2 -1.4 0.7
v 1.2 -1.3 0.7
v 1.2 -1.3 0.6
v 1.2 -1.2 0.6
v 1.2 -1.2 0.4
v 1.2 -1.1 0.4
v 1.2 -1.1 -0.2
v 1.2 -1.1 -0.7
v 1.2 -1.1 -1.2
v 1.2 -0.7 1.4
v 1.2 -0.7 0.4
v 1.2 -0.7 -0.2
v 1.2 -0.7 -1.2
v 1.2 0.2 1.4
v 1.2 0.2 0.9
v 1.2 0.2 0.4
v 1.2 0.2 -0.2
v 1.2 0.2 -0.7
v 1.2 0.2 -1.2
v 1.2 0.7 0.4
v 1.2 0.7 -0.2
v 1.2 1.2 0.4
v 1.2 1.2 -0.2
v 1.2 1.6 0.9
v 1.2 1.6 -0.7
v 1.2 3.4 1.4
v 1.2 3.4 0.9
v 1.2 3.4 -0.7
v 1.2 3.4 -1.2
v 1.2 3.9 1.4
v 1.2 3.9 0.9
v 1.2 3.9 -0.7
v 1.2 3.9 -1.2
v 1.6 -1.6 0.4
v 1.6 -1.6 -0.2
v 1.6 -1.1 0.4
v 1.6 -1.1 -0.2
v 1.6 0.2 0.4
v 1.6 0.2 -0.2
v 1.6 0.7 0.4
v 1.6 0.7 -0.2
v 1.6 1.2 0.4
v 1.6 1.2 -0.2
v 1.6 3.4 0.9
v 1.6 3.4 -0.7
v 1.6 3.9 0.9
v 1.6 3.9 -0.7
v -1.2 -1.6 1.4
v -1.2 -0.7 1.4
v -1.2 0.2 1.4
v -1.2 3.4 1.4
v -1.2 3.9 1.4
v -1 -0.7 1.4
v -1 -0.6 1.4
v -0.9 -0.6 1.4
v -0.9 -0.4 1.4
v -0.8 -0.4 1.4
v -0.8 0.2 1.4
v -0.4 -0.0999999 1.4
v -0.4 0.2 1.4
v -0.3 -0.2 1.4
v -0.3 -0.0999999 1.4
v 0.3 -0.2 1.4
v 0.3 -0.0999999 1.4
v 0.4 -0.0999999 1.4
v 0.4 0.2 1.4
v 0.8 -0.4 1.4
v 0.8 0.2 1.4
v 0.9 -0.6 1.4
v 0.9 -0.4 1.4
v 1 -0.7 1.4
v 1 -0.6 1.4
v 1.2 -1.6 1.4
v 1.2 -0.7 1.4
v 1.2 0.2 1.4
v 1.2 3.4 1.4
v 1.2 3.9 1.4
v -1.6 3.4 0.9
v -1.6 3.9 0.9
v -1.2 -2 0.9
v -1.2 -1.6 0.9
v -1.2 0.2 0.9
v -1.2 1.6 0.9
v -1.2 3.4 0.9
v -1.2 3.9 0.9
v -0.8 0.2 0.9
v -0.8 0.7 0.9
v -0.8 1.2 0.9
v -0.4 -2 0.9
v -0.4 -1.6 0.9
v -0.4 0.2 0.9
v -0.4 0.7 0.9
v -0.4 1.2 0.9
v -0.2 0.4 0.9
v -0.2 0.6 0.9
v 0.2 0.4 0.9
v 0.2 0.6 0.9
v 0.4 -2 0.9
v 0.4 -1.6 0.9
v 0.4 0.2 0.9
v 0.4 0.7 0.9
v 0.4 1.2 0.9
v 0.8 0.2 0.9
v 0.8 0.7 0.9
v 0.8 1.2 0.9
v 1.2 -2 0.9
v 1.2 -1.6 0.9
v 1.2 0.2 0.9
v 1.2 1.6 0.9
v 1.2 3.4 0.9
v 1.2 3.9 0.9
v 1.6 3.4 0.9
v 1.6 3.9 0.9
v -1.6 -1.6 0.4
v -1.6 -1.1 0.4
v -1.6 0.2 0.4
v -1.6 0.7 0.4
v -1.6 1.2 0.4
v -1.2 -1.6 0.4
v -1.2 -1.2 0.4
v -1.2 -1.1 0.4
v -1.2 -0.7 0.4
v -1.2 0.2 0.4
v -1.2 0.7 0.4
v -1.2 1.2 0.4
v -0.8 -2.5 0.4
v -0.8 -2 0.4
v -0.4 -2.5 0.4
v -0.4 -2 0.4
v 0.4 -2.5 0.4
v 0.4 -2 0.4
v 0.8 -2.5 0.4
v 0.8 -2 0.4
v 1.2 -1.6 0.4
v 1.2 -1.2 0.4
v 1.2 -1.1 0.4
v 1.2 -0.7 0.4
v 1.2 0.2 0.4
v 1.2 0.7 0.4
v 1.2 1.2 0.4
v 1.6 -1.6 0.4
v 1.6 -1.1 0.4
v 1.6 0.2 0.4
v 1.6 0.7 0.4
v 1.6 1.2 0.4
v -1.6 -1.6 -0.2
v -1.6 -1.1 -0.2
v -1.6 0.2 -0.2
v -1.6 0.7 -0.2
v -1.6 1.2 -0.2
v -1.2 -1.6 -0.2
v -1.2 -1.1 -0.2
v -1.2 -0.7 -0.2
v -1.2 0.2 -0.2
v -1.2 0.7 -0.2
v -1.2 1.2 -0.2
v -0.8 -2.5 -0.2
v -0.8 -2 -0.2
v -0.4 -2.5 -0.2
v -0.4 -2 -0.2
v 0.4 -2.5 -0.2
v 0.4 -2 -0.2
v 0.8 -2.5 -0.2
v 0.8 -2 -0.2
v 1.2 -1.6 -0.2
v 1.2 -1.1 -0.2
v 1.2 -0.7 -0.2
v 1.2 0.2 -0.2
v 1.2 0.7 -0.2
v 1.2 1.2 -0.2
v 1.6 -1.6 -0.2
v 1.6 -1.1 -0.2
v 1.6 0.2 -0.2
v 1.6 0.7 -0.2
v 1.6 1.2 -0.2
v -1.6 3.4 -0.7
v -1.6 3.9 -0.7
v -1.2 -2 -0.7
v -1.2 -1.6 -0.7
v -1.2 0.2 -0.7
v -1.2 1.6 -0.7
v -1.2 3.4 -0.7
v -1.2 3.9 -0.7
v -0.8 0.2 -0.7
v -0.8 1.6 -0.7
v -0.8 3.4 -0.7
v -0.4 -2 -0.7
v -0.4 -1.6 -0.7
v 0.4 -2 -0.7
v 0.4 -1.6 -0.7
v 0.8 0.2 -0.7
v 0.8 1.6 -0.7
v 0.8 3.4 -0.7
v 1.2 -2 -0.7
v 1.2 -1.6 -0.7
v 1.2 0.2 -0.7
v 1.2 1.6 -0.7
v 1.2 3.4 -0.7
v 1.2 3.9 -0.7
v 1.6 3.4 -0.7
v 1.6 3.9 -0.7
v -1.2 -1.6 -1.2
v -1.2 -1.1 -1.2
v -1.2 -0.7 -1.2
v -1.2 0.2 -1.2
v -1.2 3.4 -1.2
v -1.2 3.9 -1.2
v -0.8 0.2 -1.2
v -0.8 1.6 -1.2
v -0.8 3.4 -1.2
v -0.8 3.9 -1.2
v -0.3 -1.2 -1.2
v -0.3 -1.1 -1.2
v -0.3 -0.9 -1.2
v -0.2 -1.3 -1.2
v -0.2 -1.2 -1.2
v -0.2 -1.1 -1.2
v -0.2 -0.9 -1.2
v -0.2 -0.8 -1.2
v -0.1 -1.3 -1.2
v -0.1 -1.2 -1.2
v -0.1 -1.1 -1.2
v -0.1 -0.9 -1.2
v -0.1 -0.8 -1.2
v -0.1 -0.7 -1.2
v 0 -1.5 -1.2
v 0 -1.2 -1.2
v 0 -1.1 -1.2
v 0 -0.8 -1.2
v 0.1 -1.5 -1.2
v 0.1 -1.4 -1.2
v 0.1 -1.1 -1.2
v 0.1 -0.8 -1.2
v 0.2 -1.4 -1.2
v 0.2 -1.3 -1.2
v 0.2 -1.2 -1.2
v 0.2 -1.1 -1.2
v 0.2 -1 -1.2
v 0.2 -0.8 -1.2
v 0.2 -0.7 -1.2
v 0.3 -1.2 -1.2
v 0.3 -1.1 -1.2
v 0.3 -1 -1.2
v 0.3 -0.8 -1.2
v 0.4 -1.3 -1.2
v 0.4 -1.1 -1.2
v 0.4 -1 -1.2
v 0.8 0.2 -1.2
v 0.8 1.6 -1.2
v 0.8 3.4 -1.2
v 0.8 3.9 -1.2
v 1.2 -1.6 -1.2
v 1.2 -1.1 -1.2
v 1.2 -0.7 -1.2
v 1.2 0.2 -1.2
v 1.2 3.4 -1.2
v 1.2 3.9 -1.2
v -0.8 3.4 -1.7
v -0.8 3.9 -1.7
v 0.8 3.4 -1.7
v 0.8 3.9 -1.7
v -0.8 -2.5 0.4
v -0.4 -2.5 0.4
v 0.4 -2.5 0.4
v 0.8 -2.5 0.4
v -0.8 -2.5 -0.2
v -0.4 -2.5 -0.2
v 0.4 -2.5 -0.2
v 0.8 -2.5 -0.2
v -1.2 -2 0.9
v -0.4 -2 0.9
v 0.4 -2 0.9
v 1.2 -2 0.9
v -0.8 -2 0.4
v -0.4 -2 0.4
v 0.4 -2 0.4
v 0.8 -2 0.4
v -0.8 -2 -0.2
v -0.4 -2 -0.2
v 0.4 -2 -0.2
v 0.8 -2 -0.2
v -1.2 -2 -0.7
v -0.4 -2 -0.7
v 0.4 -2 -0.7
v 1.2 -2 -0.7
v -1.2 -1.6 1.4
v 1.2 -1.6 1.4
v -1.2 -1.6 0.9
v -0.4 -1.6 0.9
v 0.4 -1.6 0.9
v 1.2 -1.6 0.9
v -1.6 -1.6 0.4
v -1.2 -1.6 0.4
v -0.4 -1.6 0.4
v 0.4 -1.6 0.4
v 1.2 -1.6 0.4
v 1.6 -1.6 0.4
v -1.6 -1.6 -0.2
v -1.2 -1.6 -0.2
v -0.4 -1.6 -0.2
v 0.4 -1.6 -0.2
v 1.2 -1.6 -0.2
v 1.6 -1.6 -0.2
v -1.2 -1.6 -0.7
v -0.4 -1.6 -0.7
v 0.4 -1.6 -0.7
v 1.2 -1.6 -0.7
v -1.2 -1.6 -1.2
v 1.2 -1.6 -1.2
v -1.6 0.7 0.4
v -1.2 0.7 0.4
v 1.2 0.7 0.4
v 1.6 0.7 0.4
v -1.6 0.7 -0.2
v -1.2 0.7 -0.2
v 1.2 0.7 -0.2
v 1.6 0.7 -0.2
v -1.2 3.4 1.4
v 1.2 3.4 1.4
v -1.6 3.4 0.9
v -1.2 3.4 0.9
v 1.2 3.4 0.9
v 1.6 3.4 0.9
v -1.6 3.4 -0.7
v -1.2 3.4 -0.7
v -0.8 3.4 -0.7
v 0.8 3.4 -0.7
v 1.2 3.4 -0.7
v 1.6 3.4 -0.7
v -1.2 3.4 -1.2
v -0.8 3.4 -1.2
v 0.8 3.4 -1.2
v 1.2 3.4 -1.2
v -0.8 3.4 -1.7
v 0.8 3.4 -1.7
v -1.2 0.2 1.4
v -0.8 0.2 1.4
v -0.4 0.2 1.4
v 0.4 0.2 1.4
v 0.8 0.2 1.4
v 1.2 0.2 1.4
v -1.2 0.2 0.9
v -0.8 0.2 0.9
v -0.4 0.2 0.9
v 0.4 0.2 0.9
v 0.8 0.2 0.9
v 1.2 0.2 0.9
v -1.6 0.2 0.4
v -1.2 0.2 0.4
v 1.2 0.2 0.4
v 1.6 0.2 0.4
v -1.6 0.2 -0.2
v -1.2 0.2 -0.2
v 1.2 0.2 -0.2
v 1.6 0.2 -0.2
v -1.2 0.2 -0.7
v -0.8 0.2 -0.7
v 0.8 0.2 -0.7
v 1.2 0.2 -0.7
v -1.2 0.2 -1.2
v -0.8 0.2 -1.2
v 0.8 0.2 -1.2
v 1.2 0.2 -1.2
v -1.6 1.2 0.4
v -1.2 1.2 0.4
v 1.2 1.2 0.4
v 1.6 1.2 0.4
v -1.6 1.2 -0.2
v -1.2 1.2 -0.2
v 1.2 1.2 -0.2
v 1.6 1.2 -0.2
v -1.2 3.9 1.4
v 1.2 3.9 1.4
v -1.6 3.9 0.9
v -1.2 3.9 0.9
v 1.2 3.9 0.9
v 1.6 3.9 0.9
v -1.6 3.9 -0.7
v -1.2 3.9 -0.7
v 1.2 3.9 -0.7
v 1.6 3.9 -0.7
v -1.2 3.9 -1.2
v -0.8 3.9 -1.2
v 0.8 3.9 -1.2
v 1.2 3.9 -1.2
v -0.8 3.9 -1.7
v 0.8 3.9 -1.7

# faces
f 3/1/1 2/1/1 1/1/1
f 4/1/1 2/1/1 3/1/1
f 5/5/1 4/5/1 3/5/1
f 6/5/1 4/5/1 5/5/1
f 9/1/1 8/1/1 7/1/1
f 10/1/1 8/1/1 9/1/1
f 13/5/1 12/5/1 11/5/1
f 14/5/1 12/5/1 13/5/1
f 18/6/1 16/6/1 15/6/1
f 19/6/1 16/6/1 18/6/1
f 20/6/1 16/6/1 19/6/1
f 21/6/1 16/6/1 20/6/1
f 22/6/1 16/6/1 21/6/1
f 24/2/1 18/2/1 17/2/1
f 24/2/1 19/2/1 18/2/1
f 24/5/1 20/5/1 19/5/1
f 25/5/1 20/5/1 24/5/1
f 26/2/1 25/2/1 24/2/1
f 26/5/1 20/5/1 25/5/1
f 27/5/1 20/5/1 26/5/1
f 28/2/1 27/2/1 26/2/1
f 28/5/1 20/5/1 27/5/1
f 29/5/1 20/5/1 28/5/1
f 30/2/1 29/2/1 28/2/1
f 31/5/1 22/5/1 21/5/1
f 32/6/1 23/6/1 22/6/1
f 32/5/1 22/5/1 31/5/1
f 33/6/1 23/6/1 32/6/1
f 34/2/1 30/2/1 28/2/1
f 34/2/1 24/2/1 17/2/1
f 34/2/1 26/2/1 24/2/1
f 34/2/1 28/2/1 26/2/1
f 35/2/1 30/2/1 34/2/1
f 36/2/1 33/2/1 32/2/1
f 36/2/1 32/2/1 31/2/1
f 37/2/1 33/2/1 36/2/1
f 38/5/1 35/5/1 34/5/1
f 39/5/1 35/5/1 38/5/1
f 40/5/1 35/5/1 39/5/1
f 41/5/1 37/5/1 36/5/1
f 42/5/1 37/5/1 41/5/1
f 43/5/1 37/5/1 42/5/1
f 44/1/1 40/1/1 39/1/1
f 44/1/1 42/1/1 41/1/1
f 44/1/1 41/1/1 40/1/1
f 45/1/1 42/1/1 44/1/1
f 46/1/1 44/1/1 39/1/1
f 47/1/1 42/1/1 45/1/1
f 48/1/1 46/1/1 39/1/1
f 48/1/1 47/1/1 46/1/1
f 49/1/1 42/1/1 47/1/1
f 49/1/1 47/1/1 48/1/1
f 51/5/1 49/5/1 48/5/1
f 52/5/1 49/5/1 51/5/1
f 54/5/1 51/5/1 50/5/1
f 55/5/1 51/5/1 54/5/1
f 56/5/1 53/5/1 52/5/1
f 57/5/1 53/5/1 56/5/1
f 60/7/1 59/7/1 58/7/1
f 61/7/1 59/7/1 60/7/1
f 64/1/1 63/1/1 62/1/1
f 65/1/1 63/1/1 64/1/1
f 66/5/1 65/5/1 64/5/1
f 67/5/1 65/5/1 66/5/1
f 69/5/1 68/5/1 67/5/1
f 70/5/1 68/5/1 69/5/1
f 74/7/1 72/7/1 71/7/1
f 75/7/1 72/7/1 74/7/1
f 77/6/1 74/6/1 73/6/1
f 78/5/1 75/5/1 74/5/1
f 78/6/1 74/6/1 77/6/1
f 79/6/1 76/6/1 75/6/1
f 79/5/1 75/5/1 78/5/1
f 80/6/1 76/6/1 79/6/1
f 81/7/2 82/7/2 84/7/2
f 84/7/2 82/7/2 85/7/2
f 83/6/2 84/6/2 87/6/2
f 84/5/2 85/5/2 88/5/2
f 87/6/2 84/6/2 88/6/2
f 85/6/2 86/6/2 89/6/2
f 88/5/2 85/5/2 89/5/2
f 89/6/2 86/6/2 90/6/2
f 91/7/2 92/7/2 93/7/2
f 93/7/2 92/7/2 94/7/2
f 95/1/2 96/1/2 97/1/2
f 97/1/2 96/1/2 98/1/2
f 97/5/2 98/5/2 99/5/2
f 99/5/2 98/5/2 100/5/2
f 100/5/2 101/5/2 102/5/2
f 102/5/2 101/5/2 103/5/2
f 104/6/2 105/6/2 107/6/2
f 107/6/2 105/6/2 108/6/2
f 108/6/2 105/6/2 109/6/2
f 109/6/2 105/6/2 110/6/2
f 110/6/2 105/6/2 111/6/2
f 106/2/2 107/2/2 113/2/2
f 107/2/2 108/2/2 113/2/2
f 108/5/2 109/5/2 113/5/2
f 113/5/2 109/5/2 114/5/2
f 113/2/2 114/2/2 115/2/2
f 114/5/2 109/5/2 115/5/2
f 115/5/2 109/5/2 116/5/2
f 115/2/2 116/2/2 117/2/2
f 116/5/2 109/5/2 117/5/2
f 117/5/2 109/5/2 118/5/2
f 117/2/2 118/2/2 119/2/2
f 110/5/2 111/5/2 120/5/2
f 111/6/2 112/6/2 121/6/2
f 120/5/2 111/5/2 121/5/2
f 121/6/2 112/6/2 122/6/2
f 117/2/2 119/2/2 123/2/2
f 106/2/2 113/2/2 123/2/2
f 113/2/2 115/2/2 123/2/2
f 115/2/2 117/2/2 123/2/2
f 123/2/2 119/2/2 124/2/2
f 121/2/2 122/2/2 125/2/2
f 120/2/2 121/2/2 125/2/2
f 125/2/2 122/2/2 126/2/2
f 123/5/2 124/5/2 127/5/2
f 127/5/2 124/5/2 128/5/2
f 128/5/2 124/5/2 129/5/2
f 125/5/2 126/5/2 130/5/2
f 130/5/2 126/5/2 131/5/2
f 131/5/2 126/5/2 132/5/2
f 128/1/2 129/1/2 133/1/2
f 130/1/2 131/1/2 133/1/2
f 129/1/2 130/1/2 133/1/2
f 133/1/2 131/1/2 134/1/2
f 128/1/2 133/1/2 135/1/2
f 134/1/2 131/1/2 136/1/2
f 128/1/2 135/1/2 137/1/2
f 135/1/2 136/1/2 137/1/2
f 136/1/2 131/1/2 138/1/2
f 137/1/2 136/1/2 138/1/2
f 137/5/2 138/5/2 140/5/2
f 140/5/2 138/5/2 141/5/2
f 139/5/2 140/5/2 143/5/2
f 143/5/2 140/5/2 144/5/2
f 141/5/2 142/5/2 145/5/2
f 145/5/2 142/5/2 146/5/2
f 147/1/2 148/1/2 149/1/2
f 149/1/2 148/1/2 150/1/2
f 149/5/2 150/5/2 151/5/2
f 151/5/2 150/5/2 152/5/2
f 153/1/2 154/1/2 155/1/2
f 155/1/2 154/1/2 156/1/2
f 157/5/2 158/5/2 159/5/2
f 159/5/2 158/5/2 160/5/2
f 166/2/3 162/2/3 161/2/3
f 166/5/3 163/5/3 162/5/3
f 167/5/3 163/5/3 166/5/3
f 168/2/3 167/2/3 166/2/3
f 168/5/3 163/5/3 167/5/3
f 169/5/3 163/5/3 168/5/3
f 170/2/3 169/2/3 168/2/3
f 170/5/3 163/5/3 169/5/3
f 171/5/3 163/5/3 170/5/3
f 172/2/3 171/2/3 170/2/3
f 173/2/3 171/2/3 172/2/3
f 174/2/3 172/2/3 170/2/3
f 175/5/3 173/5/3 172/5/3
f 175/2/3 172/2/3 174/2/3
f 176/2/3 174/2/3 170/2/3
f 176/5/3 175/5/3 174/5/3
f 177/5/3 173/5/3 175/5/3
f 177/5/3 175/5/3 176/5/3
f 178/2/3 177/2/3 176/2/3
f 178/5/3 173/5/3 177/5/3
f 179/5/3 173/5/3 178/5/3
f 180/2/3 170/2/3 168/2/3
f 180/2/3 176/2/3 170/2/3
f 180/2/3 179/2/3 178/2/3
f 180/2/3 178/2/3 176/2/3
f 181/2/3 179/2/3 180/2/3
f 182/2/3 168/2/3 166/2/3
f 182/2/3 180/2/3 168/2/3
f 183/5/3 181/5/3 180/5/3
f 183/2/3 180/2/3 182/2/3
f 184/2/3 166/2/3 161/2/3
f 184/2/3 182/2/3 166/2/3
f 185/5/3 183/5/3 182/5/3
f 185/2/3 182/2/3 184/2/3
f 186/2/3 184/2/3 161/2/3
f 187/5/3 185/5/3 184/5/3
f 187/2/3 184/2/3 186/2/3
f 188/5/3 181/5/3 183/5/3
f 188/5/3 185/5/3 187/5/3
f 188/5/3 183/5/3 185/5/3
f 189/5/3 165/5/3 164/5/3
f 190/5/3 165/5/3 189/5/3
f 197/5/3 192/5/3 191/5/3
f 198/5/3 192/5/3 197/5/3
f 199/1/3 196/1/3 195/1/3
f 200/1/3 196/1/3 199/1/3
f 201/1/3 196/1/3 200/1/3
f 202/6/3 194/6/3 193/6/3
f 203/6/3 194/6/3 202/6/3
f 204/1/3 200/1/3 199/1/3
f 205/8/3 201/8/3 200/8/3
f 205/1/3 200/1/3 204/1/3
f 206/1/3 196/1/3 201/1/3
f 206/8/3 201/8/3 205/8/3
f 207/1/3 205/1/3 204/1/3
f 207/1/3 206/1/3 205/1/3
f 208/1/3 206/1/3 207/1/3
f 209/1/3 207/1/3 204/1/3
f 209/4/3 208/4/3 207/4/3
f 210/1/3 206/1/3 208/1/3
f 210/4/3 208/4/3 209/4/3
f 213/1/3 209/1/3 204/1/3
f 213/1/3 210/1/3 209/1/3
f 214/1/3 206/1/3 210/1/3
f 214/1/3 210/1/3 213/1/3
f 215/1/3 196/1/3 206/1/3
f 215/1/3 206/1/3 214/1/3
f 216/1/3 214/1/3 213/1/3
f 217/8/3 215/8/3 214/8/3
f 217/1/3 214/1/3 216/1/3
f 218/1/3 196/1/3 215/1/3
f 218/8/3 215/8/3 217/8/3
f 219/6/3 212/6/3 211/6/3
f 220/6/3 212/6/3 219/6/3
f 221/1/3 217/1/3 216/1/3
f 221/1/3 218/1/3 217/1/3
f 222/5/3 197/5/3 196/5/3
f 222/1/3 218/1/3 221/1/3
f 222/1/3 196/1/3 218/1/3
f 223/5/3 197/5/3 222/5/3
f 225/5/3 224/5/3 223/5/3
f 226/5/3 224/5/3 225/5/3
f 232/1/3 228/1/3 227/1/3
f 233/1/3 228/1/3 232/1/3
f 234/5/3 229/5/3 228/5/3
f 234/1/3 228/1/3 233/1/3
f 235/5/3 229/5/3 234/5/3
f 236/5/3 229/5/3 235/5/3
f 237/1/3 231/1/3 230/1/3
f 238/1/3 231/1/3 237/1/3
f 241/7/3 240/7/3 239/7/3
f 242/7/3 240/7/3 241/7/3
f 245/7/3 244/7/3 243/7/3
f 246/7/3 244/7/3 245/7/3
f 254/1/3 248/1/3 247/1/3
f 254/1/3 249/1/3 248/1/3
f 255/5/3 251/5/3 250/5/3
f 255/1/3 249/1/3 254/1/3
f 255/5/3 250/5/3 249/5/3
f 256/5/3 251/5/3 255/5/3
f 257/1/3 253/1/3 252/1/3
f 258/1/3 253/1/3 257/1/3
f 259/1/4 260/1/4 264/1/4
f 260/5/4 261/5/4 265/5/4
f 264/1/4 260/1/4 265/1/4
f 265/5/4 261/5/4 266/5/4
f 266/5/4 261/5/4 267/5/4
f 262/1/4 263/1/4 268/1/4
f 268/1/4 263/1/4 269/1/4
f 270/7/4 271/7/4 272/7/4
f 272/7/4 271/7/4 273/7/4
f 274/7/4 275/7/4 276/7/4
f 276/7/4 275/7/4 277/7/4
f 278/1/4 279/1/4 284/1/4
f 279/5/4 280/5/4 285/5/4
f 284/1/4 279/1/4 285/1/4
f 280/5/4 281/5/4 285/5/4
f 285/5/4 281/5/4 286/5/4
f 282/1/4 283/1/4 287/1/4
f 287/1/4 283/1/4 288/1/4
f 289/5/4 290/5/4 295/5/4
f 295/5/4 290/5/4 296/5/4
f 293/1/4 294/1/4 297/1/4
f 294/5/4 295/5/4 298/5/4
f 297/1/4 294/1/4 298/1/4
f 298/5/4 295/5/4 299/5/4
f 291/6/4 292/6/4 300/6/4
f 300/6/4 292/6/4 301/6/4
f 302/6/4 303/6/4 307/6/4
f 307/6/4 303/6/4 308/6/4
f 304/1/4 305/1/4 309/1/4
f 305/5/4 306/5/4 310/5/4
f 309/1/4 305/1/4 310/1/4
f 310/5/4 306/5/4 311/5/4
f 311/5/4 312/5/4 313/5/4
f 313/5/4 312/5/4 314/5/4
f 317/5/4 318/5/4 321/5/4
f 319/5/4 320/5/4 323/5/4
f 323/5/4 320/5/4 324/5/4
f 315/6/4 316/6/4 325/6/4
f 316/2/4 317/2/4 326/2/4
f 325/6/4 316/6/4 326/6/4
f 326/2/4 317/2/4 327/2/4
f 315/6/4 325/6/4 328/6/4
f 325/3/4 326/3/4 329/3/4
f 328/6/4 325/6/4 329/6/4
f 326/3/4 327/3/4 329/3/4
f 329/3/4 327/3/4 330/3/4
f 327/2/4 317/2/4 331/2/4
f 330/3/4 327/3/4 331/3/4
f 331/2/4 317/2/4 332/2/4
f 315/6/4 328/6/4 333/6/4
f 328/3/4 329/3/4 333/3/4
f 329/6/4 330/6/4 334/6/4
f 333/3/4 329/3/4 334/3/4
f 330/2/4 331/2/4 335/2/4
f 334/6/4 330/6/4 335/6/4
f 331/3/4 332/3/4 336/3/4
f 335/2/4 331/2/4 336/2/4
f 332/2/4 317/2/4 337/2/4
f 336/3/4 332/3/4 337/3/4
f 317/5/4 321/5/4 338/5/4
f 337/2/4 317/2/4 338/2/4
f 315/6/4 333/6/4 339/6/4
f 333/6/4 334/6/4 339/6/4
f 334/3/4 335/3/4 340/3/4
f 339/6/4 334/6/4 340/6/4
f 336/2/4 337/2/4 341/2/4
f 340/3/4 335/3/4 341/3/4
f 335/2/4 336/2/4 341/2/4
f 337/3/4 338/3/4 342/3/4
f 341/2/4 337/2/4 342/2/4
f 339/3/4 340/3/4 343/3/4
f 340/3/4 341/3/4 343/3/4
f 341/3/4 342/3/4 343/3/4
f 315/6/4 339/6/4 343/6/4
f 343/3/4 342/3/4 344/3/4
f 344/3/4 342/3/4 345/3/4
f 342/3/4 338/3/4 346/3/4
f 345/3/4 342/3/4 346/3/4
f 344/3/4 345/3/4 347/3/4
f 343/6/4 344/6/4 347/6/4
f 347/3/4 345/3/4 348/3/4
f 348/3/4 345/3/4 349/3/4
f 345/2/4 346/2/4 350/2/4
f 349/3/4 345/3/4 350/3/4
f 350/2/4 346/2/4 351/2/4
f 346/3/4 338/3/4 352/3/4
f 351/2/4 346/2/4 352/2/4
f 338/5/4 321/5/4 353/5/4
f 352/3/4 338/3/4 353/3/4
f 348/3/4 349/3/4 354/3/4
f 349/6/4 350/6/4 354/6/4
f 350/2/4 351/2/4 355/2/4
f 354/6/4 350/6/4 355/6/4
f 351/3/4 352/3/4 356/3/4
f 355/2/4 351/2/4 356/2/4
f 352/2/4 353/2/4 357/2/4
f 356/3/4 352/3/4 357/3/4
f 354/3/4 355/3/4 358/3/4
f 348/3/4 354/3/4 358/3/4
f 347/6/4 348/6/4 358/6/4
f 355/3/4 356/3/4 358/3/4
f 358/3/4 356/3/4 359/3/4
f 356/2/4 357/2/4 360/2/4
f 359/3/4 356/3/4 360/3/4
f 321/1/4 322/1/4 361/1/4
f 353/5/4 321/5/4 361/5/4
f 322/5/4 323/5/4 362/5/4
f 361/1/4 322/1/4 362/1/4
f 362/5/4 323/5/4 363/5/4
f 358/6/4 359/6/4 365/6/4
f 315/6/4 343/6/4 365/6/4
f 347/6/4 358/6/4 365/6/4
f 343/6/4 347/6/4 365/6/4
f 359/2/4 360/2/4 366/2/4
f 365/6/4 359/6/4 366/6/4
f 357/2/4 353/2/4 367/2/4
f 366/2/4 360/2/4 367/2/4
f 360/2/4 357/2/4 367/2/4
f 353/5/4 361/5/4 367/5/4
f 367/5/4 361/5/4 368/5/4
f 363/5/4 364/5/4 369/5/4
f 369/5/4 364/5/4 370/5/4
f 371/5/4 372/5/4 373/5/4
f 373/5/4 372/5/4 374/5/4
f 379/7/5 376/7/5 375/7/5
f 380/7/5 376/7/5 379/7/5
f 381/7/5 378/7/5 377/7/5
f 382/7/5 378/7/5 381/7/5
f 387/6/5 384/6/5 383/6/5
f 388/6/5 384/6/5 387/6/5
f 389/6/5 386/6/5 385/6/5
f 390/6/5 386/6/5 389/6/5
f 391/6/5 387/6/5 383/6/5
f 394/6/5 386/6/5 390/6/5
f 395/6/5 392/6/5 391/6/5
f 395/6/5 391/6/5 383/6/5
f 396/6/5 392/6/5 395/6/5
f 397/6/5 394/6/5 393/6/5
f 398/6/5 386/6/5 394/6/5
f 398/6/5 394/6/5 397/6/5
f 401/2/5 400/2/5 399/2/5
f 402/2/5 400/2/5 401/2/5
f 403/2/5 400/2/5 402/2/5
f 404/2/5 400/2/5 403/2/5
f 407/6/5 403/6/5 402/6/5
f 408/6/5 403/6/5 407/6/5
f 411/1/5 406/1/5 405/1/5
f 412/1/5 406/1/5 411/1/5
f 413/6/5 408/6/5 407/6/5
f 414/6/5 408/6/5 413/6/5
f 415/1/5 410/1/5 409/1/5
f 416/1/5 410/1/5 415/1/5
f 418/6/5 414/6/5 413/6/5
f 419/6/5 414/6/5 418/6/5
f 421/6/5 418/6/5 417/6/5
f 421/6/5 420/6/5 419/6/5
f 421/6/5 419/6/5 418/6/5
f 422/6/5 420/6/5 421/6/5
f 427/1/5 424/1/5 423/1/5
f 428/1/5 424/1/5 427/1/5
f 429/1/5 426/1/5 425/1/5
f 430/1/5 426/1/5 429/1/5
f 434/5/5 432/5/5 431/5/5
f 435/5/5 432/5/5 434/5/5
f 437/5/5 434/5/5 433/5/5
f 438/5/5 434/5/5 437/5/5
f 441/5/5 436/5/5 435/5/5
f 442/5/5 436/5/5 441/5/5
f 443/5/5 439/5/5 438/5/5
f 444/5/5 439/5/5 443/5/5
f 445/5/5 441/5/5 440/5/5
f 446/5/5 441/5/5 445/5/5
f 447/5/5 445/5/5 444/5/5
f 448/5/5 445/5/5 447/5/5
f 449/5/6 450/5/6 455/5/6
f 450/2/6 451/2/6 456/2/6
f 455/5/6 450/5/6 456/5/6
f 451/5/6 452/5/6 457/5/6
f 456/2/6 451/2/6 457/2/6
f 452/2/6 453/2/6 458/2/6
f 457/5/6 452/5/6 458/5/6
f 453/5/6 454/5/6 459/5/6
f 458/2/6 453/2/6 459/2/6
f 459/5/6 454/5/6 460/5/6
f 461/5/6 462/5/6 465/5/6
f 465/5/6 462/5/6 466/5/6
f 463/5/6 464/5/6 467/5/6
f 467/5/6 464/5/6 468/5/6
f 469/5/6 470/5/6 473/5/6
f 473/5/6 470/5/6 474/5/6
f 471/5/6 472/5/6 475/5/6
f 475/5/6 472/5/6 476/5/6
f 477/1/6 478/1/6 481/1/6
f 481/1/6 478/1/6 482/1/6
f 479/1/6 480/1/6 483/1/6
f 483/1/6 480/1/6 484/1/6
f 485/5/6 486/5/6 488/5/6
f 488/5/6 486/5/6 489/5/6
f 487/5/6 488/5/6 491/5/6
f 489/5/6 490/5/6 491/5/6
f 488/5/6 489/5/6 491/5/6
f 491/5/6 490/5/6 492/5/6
f 492/5/6 490/5/6 493/5/6
f 493/5/6 490/5/6 494/5/6
f 492/5/6 493/5/6 495/5/6
f 495/5/6 493/5/6 496/5/6
f 496/5/6 493/5/6 497/5/6
f 497/5/6 493/5/6 498/5/6
f 496/5/6 497/5/6 499/5/6
f 499/5/6 497/5/6 500/5/6
