# MagicaVoxel @ Ephtracy

# group
o 

# material
mtllib entrega.vox.mtl
usemtl palette

# normals
vn -1 0 0
vn 1 0 0
vn 0 0 1
vn 0 0 -1
vn 0 -1 0
vn 0 1 0

# texcoords
vt 0.958984 0.5
vt 0.962891 0.5
vt 0.974609 0.5
vt 0.994141 0.5

# verts
v -3.2 0 1.4
v -3.2 0 -1.6
v -3.2 1.1 1.6
v -3.2 1.1 1.4
v -3.2 1.8 1.6
v -3.2 1.8 -1.6
v 2.7 1.3 1.6
v 2.7 1.3 1.5
v 2.7 1.7 1.5
v 2.7 1.7 -1.6
v 2.7 1.8 1.6
v 2.7 1.8 -1.6
v 2.9 0 1.4
v 2.9 0 -1.6
v 2.9 0.2 1.4
v 2.9 0.2 -1.6
v -2.9 0 1.4
v -2.9 0 -1.6
v -2.9 0.2 1.4
v -2.9 0.2 -1.6
v -2.7 1.3 1.6
v -2.7 1.3 1.5
v -2.7 1.7 1.5
v -2.7 1.7 -1.6
v -2.7 1.8 1.6
v -2.7 1.8 -1.6
v 3.2 0 1.4
v 3.2 0 -1.6
v 3.2 1.1 1.6
v 3.2 1.1 1.4
v 3.2 1.8 1.6
v 3.2 1.8 -1.6
v -3.2 1.1 1.6
v -3.2 1.8 1.6
v -2.7 1.3 1.6
v -2.7 1.8 1.6
v 2.7 1.3 1.6
v 2.7 1.8 1.6
v 3.2 1.1 1.6
v 3.2 1.8 1.6
v -2.7 1.3 1.5
v -2.7 1.7 1.5
v -0.8 1.3 1.5
v -0.8 1.4 1.5
v -0.7 1.4 1.5
v -0.7 1.5 1.5
v -0.6 1.5 1.5
v -0.6 1.6 1.5
v -0.5 1.6 1.5
v -0.5 1.7 1.5
v 0.5 1.6 1.5
v 0.5 1.7 1.5
v 0.6 1.5 1.5
v 0.6 1.6 1.5
v 0.7 1.4 1.5
v 0.7 1.5 1.5
v 0.8 1.3 1.5
v 0.8 1.4 1.5
v 2.7 1.3 1.5
v 2.7 1.7 1.5
v -3.2 0 1.4
v -3.2 1.1 1.4
v -2.9 0 1.4
v -2.9 0.2 1.4
v 2.9 0 1.4
v 2.9 0.2 1.4
v 3.2 0 1.4
v 3.2 1.1 1.4
v -3.2 0 -1.6
v -3.2 1.8 -1.6
v -2.9 0 -1.6
v -2.9 0.2 -1.6
v -2.7 1.3 -1.6
v -2.7 1.6 -1.6
v -2.7 1.7 -1.6
v -2.7 1.8 -1.6
v -0.0999999 1.6 -1.6
v -0.0999999 1.7 -1.6
v 0.1 1.6 -1.6
v 0.1 1.7 -1.6
v 2.7 1.3 -1.6
v 2.7 1.6 -1.6
v 2.7 1.7 -1.6
v 2.7 1.8 -1.6
v 2.9 0 -1.6
v 2.9 0.2 -1.6
v 3.2 0 -1.6
v 3.2 1.8 -1.6
v -3.2 0 1.4
v -2.9 0 1.4
v 2.9 0 1.4
v 3.2 0 1.4
v -3.2 0 -1.6
v -2.9 0 -1.6
v 2.9 0 -1.6
v 3.2 0 -1.6
v -2.9 0.2 1.4
v 2.9 0.2 1.4
v -2.9 0.2 -1.6
v 2.9 0.2 -1.6
v -3.2 1.1 1.6
v 3.2 1.1 1.6
v -3.2 1.1 1.4
v 3.2 1.1 1.4
v -2.7 1.3 1.6
v 2.7 1.3 1.6
v -2.7 1.3 1.5
v -0.8 1.3 1.5
v 0.8 1.3 1.5
v 2.7 1.3 1.5
v -2.7 1.7 1.5
v -0.5 1.7 1.5
v 0.5 1.7 1.5
v 2.7 1.7 1.5
v -0.5 1.7 1.4
v -0.4 1.7 1.4
v 0.4 1.7 1.4
v 0.5 1.7 1.4
v -0.4 1.7 1.3
v -0.3 1.7 1.3
v 0.3 1.7 1.3
v 0.4 1.7 1.3
v -0.3 1.7 1.2
v -0.2 1.7 1.2
v 0.2 1.7 1.2
v 0.3 1.7 1.2
v -0.2 1.7 1.1
v -0.0999999 1.7 1.1
v 0.1 1.7 1.1
v 0.2 1.7 1.1
v -0.0999999 1.7 1
v 0.1 1.7 1
v -1 1.7 0.7
v 1 1.7 0.7
v -1 1.7 0.6
v -0.9 1.7 0.6
v 0.9 1.7 0.6
v 1 1.7 0.6
v -0.9 1.7 0.5
v -0.8 1.7 0.5
v 0.8 1.7 0.5
v 0.9 1.7 0.5
v -0.8 1.7 0.4
v -0.7 1.7 0.4
v 0.7 1.7 0.4
v 0.8 1.7 0.4
v -0.7 1.7 0.3
v -0.6 1.7 0.3
v 0.6 1.7 0.3
v 0.7 1.7 0.3
v -0.6 1.7 0.2
v -0.5 1.7 0.2
v 0.5 1.7 0.2
v 0.6 1.7 0.2
v -0.5 1.7 0.1
v -0.4 1.7 0.1
v 0.4 1.7 0.1
v 0.5 1.7 0.1
v -0.4 1.7 0
v -0.3 1.7 0
v 0.3 1.7 0
v 0.4 1.7 0
v -0.3 1.7 -0.1
v -0.2 1.7 -0.1
v 0.2 1.7 -0.1
v 0.3 1.7 -0.1
v -0.2 1.7 -0.2
v -0.0999999 1.7 -0.2
v 0.1 1.7 -0.2
v 0.2 1.7 -0.2
v -0.0999999 1.7 -0.3
v 0.1 1.7 -0.3
v -1 1.7 -0.6
v 1 1.7 -0.6
v -1 1.7 -0.7
v -0.9 1.7 -0.7
v 0.9 1.7 -0.7
v 1 1.7 -0.7
v -0.9 1.7 -0.8
v -0.8 1.7 -0.8
v 0.8 1.7 -0.8
v 0.9 1.7 -0.8
v -0.8 1.7 -0.9
v -0.7 1.7 -0.9
v 0.7 1.7 -0.9
v 0.8 1.7 -0.9
v -0.7 1.7 -1
v -0.6 1.7 -1
v 0.6 1.7 -1
v 0.7 1.7 -1
v -0.6 1.7 -1.1
v -0.5 1.7 -1.1
v 0.5 1.7 -1.1
v 0.6 1.7 -1.1
v -0.5 1.7 -1.2
v -0.4 1.7 -1.2
v 0.4 1.7 -1.2
v 0.5 1.7 -1.2
v -0.4 1.7 -1.3
v -0.3 1.7 -1.3
v 0.3 1.7 -1.3
v 0.4 1.7 -1.3
v -0.3 1.7 -1.4
v -0.2 1.7 -1.4
v 0.2 1.7 -1.4
v 0.3 1.7 -1.4
v -0.2 1.7 -1.5
v -0.0999999 1.7 -1.5
v 0.1 1.7 -1.5
v 0.2 1.7 -1.5
v -2.7 1.7 -1.6
v -0.0999999 1.7 -1.6
v 0.1 1.7 -1.6
v 2.7 1.7 -1.6
v -3.2 1.8 1.6
v -2.7 1.8 1.6
v 2.7 1.8 1.6
v 3.2 1.8 1.6
v -3.2 1.8 -1.6
v -2.7 1.8 -1.6
v 2.7 1.8 -1.6
v 3.2 1.8 -1.6

# faces
f 4/3/1 2/3/1 1/3/1
f 5/3/1 4/3/1 3/3/1
f 6/3/1 2/3/1 4/3/1
f 6/3/1 4/3/1 5/3/1
f 9/3/1 8/3/1 7/3/1
f 11/3/1 9/3/1 7/3/1
f 11/3/1 10/3/1 9/3/1
f 12/3/1 10/3/1 11/3/1
f 15/3/1 14/3/1 13/3/1
f 16/3/1 14/3/1 15/3/1
f 17/3/2 18/3/2 19/3/2
f 19/3/2 18/3/2 20/3/2
f 21/3/2 22/3/2 23/3/2
f 21/3/2 23/3/2 25/3/2
f 23/3/2 24/3/2 25/3/2
f 25/3/2 24/3/2 26/3/2
f 27/3/2 28/3/2 30/3/2
f 29/3/2 30/3/2 31/3/2
f 30/3/2 28/3/2 32/3/2
f 31/3/2 30/3/2 32/3/2
f 35/3/3 34/3/3 33/3/3
f 36/3/3 34/3/3 35/3/3
f 37/3/3 35/3/3 33/3/3
f 39/3/3 37/3/3 33/3/3
f 39/3/3 38/3/3 37/3/3
f 40/3/3 38/3/3 39/3/3
f 43/2/3 42/2/3 41/2/3
f 44/2/3 42/2/3 43/2/3
f 45/4/3 44/4/3 43/4/3
f 45/2/3 42/2/3 44/2/3
f 46/2/3 42/2/3 45/2/3
f 47/4/3 46/4/3 45/4/3
f 47/2/3 42/2/3 46/2/3
f 48/2/3 42/2/3 47/2/3
f 49/4/3 48/4/3 47/4/3
f 49/2/3 42/2/3 48/2/3
f 50/2/3 42/2/3 49/2/3
f 51/4/3 49/4/3 47/4/3
f 51/4/3 50/4/3 49/4/3
f 52/4/3 50/4/3 51/4/3
f 53/4/3 47/4/3 45/4/3
f 53/4/3 51/4/3 47/4/3
f 54/2/3 52/2/3 51/2/3
f 54/4/3 51/4/3 53/4/3
f 55/4/3 45/4/3 43/4/3
f 55/4/3 53/4/3 45/4/3
f 56/2/3 54/2/3 53/2/3
f 56/4/3 53/4/3 55/4/3
f 57/4/3 55/4/3 43/4/3
f 58/2/3 56/2/3 55/2/3
f 58/4/3 55/4/3 57/4/3
f 59/2/3 58/2/3 57/2/3
f 60/2/3 52/2/3 54/2/3
f 60/2/3 58/2/3 59/2/3
f 60/2/3 54/2/3 56/2/3
f 60/2/3 56/2/3 58/2/3
f 63/3/3 62/3/3 61/3/3
f 64/3/3 62/3/3 63/3/3
f 66/3/3 62/3/3 64/3/3
f 67/3/3 66/3/3 65/3/3
f 68/3/3 62/3/3 66/3/3
f 68/3/3 66/3/3 67/3/3
f 69/3/4 70/3/4 71/3/4
f 71/3/4 70/3/4 72/3/4
f 72/3/4 70/3/4 73/3/4
f 73/3/4 70/3/4 74/3/4
f 74/3/4 70/3/4 75/3/4
f 75/3/4 70/3/4 76/3/4
f 73/1/4 74/1/4 77/1/4
f 74/2/4 75/2/4 77/2/4
f 77/2/4 75/2/4 78/2/4
f 73/1/4 77/1/4 79/1/4
f 77/4/4 78/4/4 79/4/4
f 79/4/4 78/4/4 80/4/4
f 72/3/4 73/3/4 81/3/4
f 73/1/4 79/1/4 81/1/4
f 79/2/4 80/2/4 82/2/4
f 81/1/4 79/1/4 82/1/4
f 82/2/4 80/2/4 83/2/4
f 82/3/4 83/3/4 86/3/4
f 83/3/4 84/3/4 86/3/4
f 72/3/4 81/3/4 86/3/4
f 81/3/4 82/3/4 86/3/4
f 85/3/4 86/3/4 87/3/4
f 86/3/4 84/3/4 88/3/4
f 87/3/4 86/3/4 88/3/4
f 93/3/5 90/3/5 89/3/5
f 94/3/5 90/3/5 93/3/5
f 95/3/5 92/3/5 91/3/5
f 96/3/5 92/3/5 95/3/5
f 99/3/5 98/3/5 97/3/5
f 100/3/5 98/3/5 99/3/5
f 103/3/5 102/3/5 101/3/5
f 104/3/5 102/3/5 103/3/5
f 105/3/6 106/3/6 107/3/6
f 107/3/6 106/3/6 108/3/6
f 108/3/6 106/3/6 109/3/6
f 109/3/6 106/3/6 110/3/6
f 111/2/6 112/2/6 115/2/6
f 112/4/6 113/4/6 115/4/6
f 115/4/6 113/4/6 116/4/6
f 116/4/6 113/4/6 117/4/6
f 113/2/6 114/2/6 118/2/6
f 117/4/6 113/4/6 118/4/6
f 116/4/6 117/4/6 119/4/6
f 115/2/6 116/2/6 119/2/6
f 119/4/6 117/4/6 120/4/6
f 120/4/6 117/4/6 121/4/6
f 117/2/6 118/2/6 122/2/6
f 121/4/6 117/4/6 122/4/6
f 120/4/6 121/4/6 123/4/6
f 119/2/6 120/2/6 123/2/6
f 123/4/6 121/4/6 124/4/6
f 124/4/6 121/4/6 125/4/6
f 121/2/6 122/2/6 126/2/6
f 125/4/6 121/4/6 126/4/6
f 124/4/6 125/4/6 127/4/6
f 123/2/6 124/2/6 127/2/6
f 127/4/6 125/4/6 128/4/6
f 128/4/6 125/4/6 129/4/6
f 125/2/6 126/2/6 130/2/6
f 129/4/6 125/4/6 130/4/6
f 128/4/6 129/4/6 131/4/6
f 127/2/6 128/2/6 131/2/6
f 129/2/6 130/2/6 132/2/6
f 131/4/6 129/4/6 132/4/6
f 111/2/6 115/2/6 133/2/6
f 115/2/6 119/2/6 133/2/6
f 131/2/6 132/2/6 133/2/6
f 127/2/6 131/2/6 133/2/6
f 123/2/6 127/2/6 133/2/6
f 119/2/6 123/2/6 133/2/6
f 118/2/6 114/2/6 134/2/6
f 133/2/6 132/2/6 134/2/6
f 132/2/6 130/2/6 134/2/6
f 126/2/6 122/2/6 134/2/6
f 130/2/6 126/2/6 134/2/6
f 122/2/6 118/2/6 134/2/6
f 111/2/6 133/2/6 135/2/6
f 133/4/6 134/4/6 135/4/6
f 135/4/6 134/4/6 136/4/6
f 136/4/6 134/4/6 137/4/6
f 134/2/6 114/2/6 138/2/6
f 137/4/6 134/4/6 138/4/6
f 136/4/6 137/4/6 139/4/6
f 135/2/6 136/2/6 139/2/6
f 139/4/6 137/4/6 140/4/6
f 140/4/6 137/4/6 141/4/6
f 137/2/6 138/2/6 142/2/6
f 141/4/6 137/4/6 142/4/6
f 140/4/6 141/4/6 143/4/6
f 139/2/6 140/2/6 143/2/6
f 143/4/6 141/4/6 144/4/6
f 144/4/6 141/4/6 145/4/6
f 141/2/6 142/2/6 146/2/6
f 145/4/6 141/4/6 146/4/6
f 144/4/6 145/4/6 147/4/6
f 143/2/6 144/2/6 147/2/6
f 147/4/6 145/4/6 148/4/6
f 148/4/6 145/4/6 149/4/6
f 145/2/6 146/2/6 150/2/6
f 149/4/6 145/4/6 150/4/6
f 148/4/6 149/4/6 151/4/6
f 147/2/6 148/2/6 151/2/6
f 151/4/6 149/4/6 152/4/6
f 152/4/6 149/4/6 153/4/6
f 149/2/6 150/2/6 154/2/6
f 153/4/6 149/4/6 154/4/6
f 152/4/6 153/4/6 155/4/6
f 151/2/6 152/2/6 155/2/6
f 155/4/6 153/4/6 156/4/6
f 156/4/6 153/4/6 157/4/6
f 153/2/6 154/2/6 158/2/6
f 157/4/6 153/4/6 158/4/6
f 156/4/6 157/4/6 159/4/6
f 155/2/6 156/2/6 159/2/6
f 159/4/6 157/4/6 160/4/6
f 160/4/6 157/4/6 161/4/6
f 157/2/6 158/2/6 162/2/6
f 161/4/6 157/4/6 162/4/6
f 160/4/6 161/4/6 163/4/6
f 159/2/6 160/2/6 163/2/6
f 163/4/6 161/4/6 164/4/6
f 164/4/6 161/4/6 165/4/6
f 161/2/6 162/2/6 166/2/6
f 165/4/6 161/4/6 166/4/6
f 164/4/6 165/4/6 167/4/6
f 163/2/6 164/2/6 167/2/6
f 167/4/6 165/4/6 168/4/6
f 168/4/6 165/4/6 169/4/6
f 165/2/6 166/2/6 170/2/6
f 169/4/6 165/4/6 170/4/6
f 168/4/6 169/4/6 171/4/6
f 167/2/6 168/2/6 171/2/6
f 169/2/6 170/2/6 172/2/6
f 171/4/6 169/4/6 172/4/6
f 111/2/6 135/2/6 173/2/6
f 135/2/6 139/2/6 173/2/6
f 171/2/6 172/2/6 173/2/6
f 167/2/6 171/2/6 173/2/6
f 163/2/6 167/2/6 173/2/6
f 139/2/6 143/2/6 173/2/6
f 159/2/6 163/2/6 173/2/6
f 143/2/6 147/2/6 173/2/6
f 155/2/6 159/2/6 173/2/6
f 147/2/6 151/2/6 173/2/6
f 151/2/6 155/2/6 173/2/6
f 138/2/6 114/2/6 174/2/6
f 173/2/6 172/2/6 174/2/6
f 172/2/6 170/2/6 174/2/6
f 158/2/6 154/2/6 174/2/6
f 154/2/6 150/2/6 174/2/6
f 162/2/6 158/2/6 174/2/6
f 150/2/6 146/2/6 174/2/6
f 166/2/6 162/2/6 174/2/6
f 146/2/6 142/2/6 174/2/6
f 170/2/6 166/2/6 174/2/6
f 142/2/6 138/2/6 174/2/6
f 111/2/6 173/2/6 175/2/6
f 173/4/6 174/4/6 175/4/6
f 175/4/6 174/4/6 176/4/6
f 176/4/6 174/4/6 177/4/6
f 174/2/6 114/2/6 178/2/6
f 177/4/6 174/4/6 178/4/6
f 176/4/6 177/4/6 179/4/6
f 175/2/6 176/2/6 179/2/6
f 179/4/6 177/4/6 180/4/6
f 180/4/6 177/4/6 181/4/6
f 177/2/6 178/2/6 182/2/6
f 181/4/6 177/4/6 182/4/6
f 180/4/6 181/4/6 183/4/6
f 179/2/6 180/2/6 183/2/6
f 183/4/6 181/4/6 184/4/6
f 184/4/6 181/4/6 185/4/6
f 181/2/6 182/2/6 186/2/6
f 185/4/6 181/4/6 186/4/6
f 184/4/6 185/4/6 187/4/6
f 183/2/6 184/2/6 187/2/6
f 187/4/6 185/4/6 188/4/6
f 188/4/6 185/4/6 189/4/6
f 185/2/6 186/2/6 190/2/6
f 189/4/6 185/4/6 190/4/6
f 188/4/6 189/4/6 191/4/6
f 187/2/6 188/2/6 191/2/6
f 191/4/6 189/4/6 192/4/6
f 192/4/6 189/4/6 193/4/6
f 189/2/6 190/2/6 194/2/6
f 193/4/6 189/4/6 194/4/6
f 192/4/6 193/4/6 195/4/6
f 191/2/6 192/2/6 195/2/6
f 195/4/6 193/4/6 196/4/6
f 196/4/6 193/4/6 197/4/6
f 193/2/6 194/2/6 198/2/6
f 197/4/6 193/4/6 198/4/6
f 196/4/6 197/4/6 199/4/6
f 195/2/6 196/2/6 199/2/6
f 199/4/6 197/4/6 200/4/6
f 200/4/6 197/4/6 201/4/6
f 197/2/6 198/2/6 202/2/6
f 201/4/6 197/4/6 202/4/6
f 200/4/6 201/4/6 203/4/6
f 199/2/6 200/2/6 203/2/6
f 203/4/6 201/4/6 204/4/6
f 204/4/6 201/4/6 205/4/6
f 201/2/6 202/2/6 206/2/6
f 205/4/6 201/4/6 206/4/6
f 204/4/6 205/4/6 207/4/6
f 203/2/6 204/2/6 207/2/6
f 207/4/6 205/4/6 208/4/6
f 208/4/6 205/4/6 209/4/6
f 205/2/6 206/2/6 210/2/6
f 209/4/6 205/4/6 210/4/6
f 111/2/6 175/2/6 211/2/6
f 175/2/6 179/2/6 211/2/6
f 179/2/6 183/2/6 211/2/6
f 207/2/6 208/2/6 211/2/6
f 203/2/6 207/2/6 211/2/6
f 183/2/6 187/2/6 211/2/6
f 199/2/6 203/2/6 211/2/6
f 187/2/6 191/2/6 211/2/6
f 195/2/6 199/2/6 211/2/6
f 191/2/6 195/2/6 211/2/6
f 208/4/6 209/4/6 212/4/6
f 211/2/6 208/2/6 212/2/6
f 209/2/6 210/2/6 213/2/6
f 212/4/6 209/4/6 213/4/6
f 178/2/6 114/2/6 214/2/6
f 213/2/6 210/2/6 214/2/6
f 210/2/6 206/2/6 214/2/6
f 198/2/6 194/2/6 214/2/6
f 202/2/6 198/2/6 214/2/6
f 194/2/6 190/2/6 214/2/6
f 206/2/6 202/2/6 214/2/6
f 190/2/6 186/2/6 214/2/6
f 182/2/6 178/2/6 214/2/6
f 186/2/6 182/2/6 214/2/6
f 215/3/6 216/3/6 219/3/6
f 219/3/6 216/3/6 220/3/6
f 217/3/6 218/3/6 221/3/6
f 221/3/6 218/3/6 222/3/6
