# MagicaVoxel @ Ephtracy

# group
o 

# material
mtllib LettuceDish.vox.mtl
usemtl palette

# normals
vn -1 0 0
vn 1 0 0
vn 0 0 1
vn 0 0 -1
vn 0 -1 0
vn 0 1 0

# texcoords
vt 0.888672 0.5
vt 0.892578 0.5
vt 0.896484 0.5

# verts
v -0.6 -1.1 0.3
v -0.6 -1.1 -0.3
v -0.6 -1 0.3
v -0.6 -1 -0.3
v -0.5 -1.1 0.5
v -0.5 -1.1 0.3
v -0.5 -1.1 -0.3
v -0.5 -1.1 -0.5
v -0.5 -1 0.5
v -0.5 -1 0.3
v -0.5 -1 -0.3
v -0.5 -1 -0.5
v -0.4 -1.1 0.6
v -0.4 -1.1 0.5
v -0.4 -1.1 -0.5
v -0.4 -1.1 -0.6
v -0.4 -1 0.6
v -0.4 -1 0.5
v -0.4 -1 -0.5
v -0.4 -1 -0.6
v -0.3 -1.1 0.7
v -0.3 -1.1 0.6
v -0.3 -1.1 -0.6
v -0.3 -1.1 -0.7
v -0.3 -1 0.7
v -0.3 -1 0.6
v -0.3 -1 -0.6
v -0.3 -1 -0.7
v -0.2 -1.1 0.8
v -0.2 -1.1 0.7
v -0.2 -1.1 -0.7
v -0.2 -1.1 -0.8
v -0.2 -1 0.8
v -0.2 -1 0.7
v -0.2 -1 -0.7
v -0.2 -1 -0.8
v 0.3 -1.1 0.8
v 0.3 -1.1 0.7
v 0.3 -1 0.8
v 0.3 -1 0.7
v 0.5 -1.1 -0.7
v 0.5 -1.1 -0.8
v 0.5 -1 -0.7
v 0.5 -1 -0.8
v 0.6 -1.1 0.7
v 0.6 -1.1 0.4
v 0.6 -1.1 -0.6
v 0.6 -1.1 -0.7
v 0.6 -1 0.7
v 0.6 -1 0.4
v 0.6 -1 -0.6
v 0.6 -1 -0.7
v 0.7 -1.1 0.4
v 0.7 -1.1 0.2
v 0.7 -1.1 -0.5
v 0.7 -1.1 -0.6
v 0.7 -1 0.4
v 0.7 -1 0.2
v 0.7 -1 -0.5
v 0.7 -1 -0.6
v 0.8 -1.1 0.2
v 0.8 -1.1 -5.96046e-08
v 0.8 -1.1 -0.4
v 0.8 -1.1 -0.5
v 0.8 -1 0.2
v 0.8 -1 -5.96046e-08
v 0.8 -1 -0.4
v 0.8 -1 -0.5
v 0.9 -1.1 -5.96046e-08
v 0.9 -1.1 -0.4
v 0.9 -1 -5.96046e-08
v 0.9 -1 -0.4
v -0.2 -1.1 0.8
v -0.2 -1 0.8
v 0.3 -1.1 0.8
v 0.3 -1 0.8
v -0.3 -1.1 0.7
v -0.3 -1 0.7
v -0.2 -1.1 0.7
v -0.2 -1 0.7
v 0.3 -1.1 0.7
v 0.3 -1 0.7
v 0.6 -1.1 0.7
v 0.6 -1 0.7
v -0.4 -1.1 0.6
v -0.4 -1 0.6
v -0.3 -1.1 0.6
v -0.3 -1 0.6
v -0.5 -1.1 0.5
v -0.5 -1 0.5
v -0.4 -1.1 0.5
v -0.4 -1 0.5
v 0.6 -1.1 0.4
v 0.6 -1 0.4
v 0.7 -1.1 0.4
v 0.7 -1 0.4
v -0.6 -1.1 0.3
v -0.6 -1 0.3
v -0.5 -1.1 0.3
v -0.5 -1 0.3
v 0.7 -1.1 0.2
v 0.7 -1 0.2
v 0.8 -1.1 0.2
v 0.8 -1 0.2
v 0.8 -1.1 -5.96046e-08
v 0.8 -1 -5.96046e-08
v 0.9 -1.1 -5.96046e-08
v 0.9 -1 -5.96046e-08
v -0.6 -1.1 -0.3
v -0.6 -1 -0.3
v -0.5 -1.1 -0.3
v -0.5 -1 -0.3
v 0.8 -1.1 -0.4
v 0.8 -1 -0.4
v 0.9 -1.1 -0.4
v 0.9 -1 -0.4
v -0.5 -1.1 -0.5
v -0.5 -1 -0.5
v -0.4 -1.1 -0.5
v -0.4 -1 -0.5
v 0.7 -1.1 -0.5
v 0.7 -1 -0.5
v 0.8 -1.1 -0.5
v 0.8 -1 -0.5
v -0.4 -1.1 -0.6
v -0.4 -1 -0.6
v -0.3 -1.1 -0.6
v -0.3 -1 -0.6
v 0.6 -1.1 -0.6
v 0.6 -1 -0.6
v 0.7 -1.1 -0.6
v 0.7 -1 -0.6
v -0.3 -1.1 -0.7
v -0.3 -1 -0.7
v -0.2 -1.1 -0.7
v -0.2 -1 -0.7
v 0.5 -1.1 -0.7
v 0.5 -1 -0.7
v 0.6 -1.1 -0.7
v 0.6 -1 -0.7
v -0.2 -1.1 -0.8
v -0.2 -1 -0.8
v 0.5 -1.1 -0.8
v 0.5 -1 -0.8
v -0.2 -1.1 0.8
v 0.3 -1.1 0.8
v -0.3 -1.1 0.7
v -0.2 -1.1 0.7
v -0.1 -1.1 0.7
v 0.2 -1.1 0.7
v 0.3 -1.1 0.7
v 0.6 -1.1 0.7
v -0.4 -1.1 0.6
v -0.3 -1.1 0.6
v -0.1 -1.1 0.6
v 0 -1.1 0.6
v 0.2 -1.1 0.6
v 0.5 -1.1 0.6
v -0.5 -1.1 0.5
v -0.4 -1.1 0.5
v -0.3 -1.1 0.5
v -0.1 -1.1 0.5
v 0 -1.1 0.5
v 0.2 -1.1 0.5
v -0.2 -1.1 0.4
v -0.1 -1.1 0.4
v 0 -1.1 0.4
v 0.2 -1.1 0.4
v 0.4 -1.1 0.4
v 0.5 -1.1 0.4
v 0.6 -1.1 0.4
v 0.7 -1.1 0.4
v -0.6 -1.1 0.3
v -0.5 -1.1 0.3
v -0.4 -1.1 0.3
v -0.3 -1.1 0.3
v -0.2 -1.1 0.3
v 0.3 -1.1 0.3
v 0.4 -1.1 0.3
v 0.5 -1.1 0.3
v -0.4 -1.1 0.2
v -0.3 -1.1 0.2
v -0.2 -1.1 0.2
v -0.1 -1.1 0.2
v 0 -1.1 0.2
v 0.6 -1.1 0.2
v 0.7 -1.1 0.2
v 0.8 -1.1 0.2
v -0.3 -1.1 0.1
v -0.2 -1.1 0.1
v -0.1 -1.1 0.1
v 0.1 -1.1 0.1
v 0.3 -1.1 0.1
v 0.4 -1.1 0.1
v -0.5 -1.1 -5.96046e-08
v -0.4 -1.1 -5.96046e-08
v -0.3 -1.1 -5.96046e-08
v -0.2 -1.1 -5.96046e-08
v 0.1 -1.1 -5.96046e-08
v 0.3 -1.1 -5.96046e-08
v 0.6 -1.1 -5.96046e-08
v 0.7 -1.1 -5.96046e-08
v 0.8 -1.1 -5.96046e-08
v 0.9 -1.1 -5.96046e-08
v -0.5 -1.1 -0.1
v -0.3 -1.1 -0.1
v -0.2 -1.1 -0.1
v 0 -1.1 -0.1
v 0.1 -1.1 -0.1
v 0.6 -1.1 -0.1
v 0.7 -1.1 -0.1
v -0.3 -1.1 -0.2
v -0.2 -1.1 -0.2
v -0.1 -1.1 -0.2
v 0 -1.1 -0.2
v 0.2 -1.1 -0.2
v 0.3 -1.1 -0.2
v 0.5 -1.1 -0.2
v -0.6 -1.1 -0.3
v -0.5 -1.1 -0.3
v -0.4 -1.1 -0.3
v -0.2 -1.1 -0.3
v -0.1 -1.1 -0.3
v 0 -1.1 -0.3
v 0.2 -1.1 -0.3
v 0.3 -1.1 -0.3
v 0.4 -1.1 -0.3
v 0.5 -1.1 -0.3
v 0.6 -1.1 -0.3
v 0.8 -1.1 -0.3
v 0.6 -1.1 -0.4
v 0.7 -1.1 -0.4
v 0.8 -1.1 -0.4
v 0.9 -1.1 -0.4
v -0.5 -1.1 -0.5
v -0.4 -1.1 -0.5
v -0.3 -1.1 -0.5
v -0.1 -1.1 -0.5
v 0 -1.1 -0.5
v 0.2 -1.1 -0.5
v 0.3 -1.1 -0.5
v 0.4 -1.1 -0.5
v 0.6 -1.1 -0.5
v 0.7 -1.1 -0.5
v 0.8 -1.1 -0.5
v -0.4 -1.1 -0.6
v -0.3 -1.1 -0.6
v -0.1 -1.1 -0.6
v 0 -1.1 -0.6
v 0.2 -1.1 -0.6
v 0.4 -1.1 -0.6
v 0.6 -1.1 -0.6
v 0.7 -1.1 -0.6
v -0.3 -1.1 -0.7
v -0.2 -1.1 -0.7
v -0.1 -1.1 -0.7
v 0.4 -1.1 -0.7
v 0.5 -1.1 -0.7
v 0.6 -1.1 -0.7
v -0.2 -1.1 -0.8
v 0.5 -1.1 -0.8
v -0.2 -1 0.8
v 0.3 -1 0.8
v -0.3 -1 0.7
v -0.2 -1 0.7
v -0.1 -1 0.7
v 0.2 -1 0.7
v 0.3 -1 0.7
v 0.6 -1 0.7
v -0.4 -1 0.6
v -0.3 -1 0.6
v -0.1 -1 0.6
v 0 -1 0.6
v 0.2 -1 0.6
v 0.5 -1 0.6
v -0.5 -1 0.5
v -0.4 -1 0.5
v -0.3 -1 0.5
v -0.1 -1 0.5
v 0 -1 0.5
v 0.2 -1 0.5
v -0.2 -1 0.4
v -0.1 -1 0.4
v 0 -1 0.4
v 0.2 -1 0.4
v 0.4 -1 0.4
v 0.5 -1 0.4
v 0.6 -1 0.4
v 0.7 -1 0.4
v -0.6 -1 0.3
v -0.5 -1 0.3
v -0.4 -1 0.3
v -0.3 -1 0.3
v -0.2 -1 0.3
v 0.3 -1 0.3
v 0.4 -1 0.3
v 0.5 -1 0.3
v -0.4 -1 0.2
v -0.3 -1 0.2
v -0.2 -1 0.2
v -0.1 -1 0.2
v 0 -1 0.2
v 0.6 -1 0.2
v 0.7 -1 0.2
v 0.8 -1 0.2
v -0.3 -1 0.1
v -0.2 -1 0.1
v -0.1 -1 0.1
v 0.1 -1 0.1
v 0.3 -1 0.1
v 0.4 -1 0.1
v -0.5 -1 -5.96046e-08
v -0.4 -1 -5.96046e-08
v -0.3 -1 -5.96046e-08
v -0.2 -1 -5.96046e-08
v 0.1 -1 -5.96046e-08
v 0.3 -1 -5.96046e-08
v 0.6 -1 -5.96046e-08
v 0.7 -1 -5.96046e-08
v 0.8 -1 -5.96046e-08
v 0.9 -1 -5.96046e-08
v -0.5 -1 -0.1
v -0.3 -1 -0.1
v -0.2 -1 -0.1
v 0 -1 -0.1
v 0.1 -1 -0.1
v 0.6 -1 -0.1
v 0.7 -1 -0.1
v -0.3 -1 -0.2
v -0.2 -1 -0.2
v -0.1 -1 -0.2
v 0 -1 -0.2
v 0.2 -1 -0.2
v 0.3 -1 -0.2
v 0.5 -1 -0.2
v -0.6 -1 -0.3
v -0.5 -1 -0.3
v -0.4 -1 -0.3
v -0.2 -1 -0.3
v -0.1 -1 -0.3
v 0 -1 -0.3
v 0.2 -1 -0.3
v 0.3 -1 -0.3
v 0.4 -1 -0.3
v 0.5 -1 -0.3
v 0.6 -1 -0.3
v 0.8 -1 -0.3
v 0.6 -1 -0.4
v 0.7 -1 -0.4
v 0.8 -1 -0.4
v 0.9 -1 -0.4
v -0.5 -1 -0.5
v -0.4 -1 -0.5
v -0.3 -1 -0.5
v -0.1 -1 -0.5
v 0 -1 -0.5
v 0.2 -1 -0.5
v 0.3 -1 -0.5
v 0.4 -1 -0.5
v 0.6 -1 -0.5
v 0.7 -1 -0.5
v 0.8 -1 -0.5
v -0.4 -1 -0.6
v -0.3 -1 -0.6
v -0.1 -1 -0.6
v 0 -1 -0.6
v 0.2 -1 -0.6
v 0.4 -1 -0.6
v 0.6 -1 -0.6
v 0.7 -1 -0.6
v -0.3 -1 -0.7
v -0.2 -1 -0.7
v -0.1 -1 -0.7
v 0.4 -1 -0.7
v 0.5 -1 -0.7
v 0.6 -1 -0.7
v -0.2 -1 -0.8
v 0.5 -1 -0.8

# faces
f 3/3/1 2/3/1 1/3/1
f 4/3/1 2/3/1 3/3/1
f 9/3/1 6/3/1 5/3/1
f 10/3/1 6/3/1 9/3/1
f 11/3/1 8/3/1 7/3/1
f 12/3/1 8/3/1 11/3/1
f 17/3/1 14/3/1 13/3/1
f 18/3/1 14/3/1 17/3/1
f 19/3/1 16/3/1 15/3/1
f 20/3/1 16/3/1 19/3/1
f 25/3/1 22/3/1 21/3/1
f 26/3/1 22/3/1 25/3/1
f 27/3/1 24/3/1 23/3/1
f 28/3/1 24/3/1 27/3/1
f 33/3/1 30/3/1 29/3/1
f 34/3/1 30/3/1 33/3/1
f 35/3/1 32/3/1 31/3/1
f 36/3/1 32/3/1 35/3/1
f 37/3/2 38/3/2 39/3/2
f 39/3/2 38/3/2 40/3/2
f 41/3/2 42/3/2 43/3/2
f 43/3/2 42/3/2 44/3/2
f 45/3/2 46/3/2 49/3/2
f 49/3/2 46/3/2 50/3/2
f 47/3/2 48/3/2 51/3/2
f 51/3/2 48/3/2 52/3/2
f 53/3/2 54/3/2 57/3/2
f 57/3/2 54/3/2 58/3/2
f 55/3/2 56/3/2 59/3/2
f 59/3/2 56/3/2 60/3/2
f 61/3/2 62/3/2 65/3/2
f 65/3/2 62/3/2 66/3/2
f 63/3/2 64/3/2 67/3/2
f 67/3/2 64/3/2 68/3/2
f 69/3/2 70/3/2 71/3/2
f 71/3/2 70/3/2 72/3/2
f 75/3/3 74/3/3 73/3/3
f 76/3/3 74/3/3 75/3/3
f 79/3/3 78/3/3 77/3/3
f 80/3/3 78/3/3 79/3/3
f 83/3/3 82/3/3 81/3/3
f 84/3/3 82/3/3 83/3/3
f 87/3/3 86/3/3 85/3/3
f 88/3/3 86/3/3 87/3/3
f 91/3/3 90/3/3 89/3/3
f 92/3/3 90/3/3 91/3/3
f 95/3/3 94/3/3 93/3/3
f 96/3/3 94/3/3 95/3/3
f 99/3/3 98/3/3 97/3/3
f 100/3/3 98/3/3 99/3/3
f 103/3/3 102/3/3 101/3/3
f 104/3/3 102/3/3 103/3/3
f 107/3/3 106/3/3 105/3/3
f 108/3/3 106/3/3 107/3/3
f 109/3/4 110/3/4 111/3/4
f 111/3/4 110/3/4 112/3/4
f 113/3/4 114/3/4 115/3/4
f 115/3/4 114/3/4 116/3/4
f 117/3/4 118/3/4 119/3/4
f 119/3/4 118/3/4 120/3/4
f 121/3/4 122/3/4 123/3/4
f 123/3/4 122/3/4 124/3/4
f 125/3/4 126/3/4 127/3/4
f 127/3/4 126/3/4 128/3/4
f 129/3/4 130/3/4 131/3/4
f 131/3/4 130/3/4 132/3/4
f 133/3/4 134/3/4 135/3/4
f 135/3/4 134/3/4 136/3/4
f 137/3/4 138/3/4 139/3/4
f 139/3/4 138/3/4 140/3/4
f 141/3/4 142/3/4 143/3/4
f 143/3/4 142/3/4 144/3/4
f 148/3/5 146/3/5 145/3/5
f 149/3/5 146/3/5 148/3/5
f 150/3/5 146/3/5 149/3/5
f 151/3/5 146/3/5 150/3/5
f 154/3/5 148/3/5 147/3/5
f 154/3/5 149/3/5 148/3/5
f 155/1/5 150/1/5 149/1/5
f 155/3/5 149/3/5 154/3/5
f 156/1/5 150/1/5 155/1/5
f 157/3/5 152/3/5 151/3/5
f 157/1/5 150/1/5 156/1/5
f 157/3/5 151/3/5 150/3/5
f 158/3/5 152/3/5 157/3/5
f 160/3/5 154/3/5 153/3/5
f 161/1/5 156/1/5 155/1/5
f 161/1/5 155/1/5 154/1/5
f 161/3/5 154/3/5 160/3/5
f 162/1/5 156/1/5 161/1/5
f 163/2/5 157/2/5 156/2/5
f 163/1/5 156/1/5 162/1/5
f 163/2/5 158/2/5 157/2/5
f 164/2/5 158/2/5 163/2/5
f 165/1/5 162/1/5 161/1/5
f 165/1/5 161/1/5 160/1/5
f 166/2/5 163/2/5 162/2/5
f 166/1/5 162/1/5 165/1/5
f 167/3/5 164/3/5 163/3/5
f 167/2/5 163/2/5 166/2/5
f 168/2/5 158/2/5 164/2/5
f 168/3/5 164/3/5 167/3/5
f 169/2/5 158/2/5 168/2/5
f 170/3/5 152/3/5 158/3/5
f 170/2/5 158/2/5 169/2/5
f 171/3/5 152/3/5 170/3/5
f 174/3/5 160/3/5 159/3/5
f 175/1/5 165/1/5 160/1/5
f 175/3/5 160/3/5 174/3/5
f 176/1/5 165/1/5 175/1/5
f 177/2/5 166/2/5 165/2/5
f 177/1/5 165/1/5 176/1/5
f 178/2/5 169/2/5 168/2/5
f 178/2/5 168/2/5 167/2/5
f 179/3/5 170/3/5 169/3/5
f 179/2/5 169/2/5 178/2/5
f 180/2/5 171/2/5 170/2/5
f 180/3/5 170/3/5 179/3/5
f 181/1/5 176/1/5 175/1/5
f 181/1/5 175/1/5 174/1/5
f 182/2/5 177/2/5 176/2/5
f 182/1/5 176/1/5 181/1/5
f 183/2/5 166/2/5 177/2/5
f 183/2/5 177/2/5 182/2/5
f 184/3/5 167/3/5 166/3/5
f 184/2/5 166/2/5 183/2/5
f 185/2/5 178/2/5 167/2/5
f 185/3/5 167/3/5 184/3/5
f 186/3/5 172/3/5 171/3/5
f 186/2/5 171/2/5 180/2/5
f 186/2/5 180/2/5 179/2/5
f 187/3/5 172/3/5 186/3/5
f 189/2/5 182/2/5 181/2/5
f 189/2/5 183/2/5 182/2/5
f 190/3/5 184/3/5 183/3/5
f 190/2/5 183/2/5 189/2/5
f 191/2/5 185/2/5 184/2/5
f 191/3/5 184/3/5 190/3/5
f 192/2/5 178/2/5 185/2/5
f 192/2/5 185/2/5 191/2/5
f 193/3/5 179/3/5 178/3/5
f 193/2/5 178/2/5 192/2/5
f 194/2/5 187/2/5 186/2/5
f 194/3/5 179/3/5 193/3/5
f 194/2/5 186/2/5 179/2/5
f 195/3/5 174/3/5 173/3/5
f 195/1/5 181/1/5 174/1/5
f 196/2/5 189/2/5 181/2/5
f 196/1/5 181/1/5 195/1/5
f 197/3/5 190/3/5 189/3/5
f 197/2/5 189/2/5 196/2/5
f 198/2/5 191/2/5 190/2/5
f 198/3/5 190/3/5 197/3/5
f 198/2/5 192/2/5 191/2/5
f 199/3/5 193/3/5 192/3/5
f 199/2/5 192/2/5 198/2/5
f 200/2/5 194/2/5 193/2/5
f 200/3/5 193/3/5 199/3/5
f 201/2/5 187/2/5 194/2/5
f 201/2/5 194/2/5 200/2/5
f 202/3/5 188/3/5 187/3/5
f 202/2/5 187/2/5 201/2/5
f 203/3/5 188/3/5 202/3/5
f 205/3/5 197/3/5 196/3/5
f 205/3/5 198/3/5 197/3/5
f 205/3/5 196/3/5 195/3/5
f 205/3/5 199/3/5 198/3/5
f 205/3/5 195/3/5 173/3/5
f 206/3/5 199/3/5 205/3/5
f 207/3/5 199/3/5 206/3/5
f 208/3/5 199/3/5 207/3/5
f 209/2/5 201/2/5 200/2/5
f 209/3/5 199/3/5 208/3/5
f 209/2/5 200/2/5 199/2/5
f 210/3/5 202/3/5 201/3/5
f 210/2/5 201/2/5 209/2/5
f 211/2/5 203/2/5 202/2/5
f 211/3/5 202/3/5 210/3/5
f 212/3/5 207/3/5 206/3/5
f 212/2/5 206/2/5 205/2/5
f 213/2/5 208/2/5 207/2/5
f 213/3/5 207/3/5 212/3/5
f 214/2/5 208/2/5 213/2/5
f 215/3/5 210/3/5 209/3/5
f 215/2/5 208/2/5 214/2/5
f 215/3/5 209/3/5 208/3/5
f 216/3/5 210/3/5 215/3/5
f 217/3/5 210/3/5 216/3/5
f 218/3/5 210/3/5 217/3/5
f 219/3/5 205/3/5 173/3/5
f 220/2/5 212/2/5 205/2/5
f 220/3/5 205/3/5 219/3/5
f 220/2/5 213/2/5 212/2/5
f 221/2/5 213/2/5 220/2/5
f 222/3/5 214/3/5 213/3/5
f 222/2/5 213/2/5 221/2/5
f 223/2/5 215/2/5 214/2/5
f 223/3/5 214/3/5 222/3/5
f 223/2/5 216/2/5 215/2/5
f 224/2/5 216/2/5 223/2/5
f 225/3/5 217/3/5 216/3/5
f 225/2/5 216/2/5 224/2/5
f 226/2/5 218/2/5 217/2/5
f 226/3/5 217/3/5 225/3/5
f 227/2/5 218/2/5 226/2/5
f 228/3/5 210/3/5 218/3/5
f 228/2/5 218/2/5 227/2/5
f 229/2/5 211/2/5 210/2/5
f 229/3/5 210/3/5 228/3/5
f 230/3/5 204/3/5 203/3/5
f 230/2/5 211/2/5 229/2/5
f 230/2/5 203/2/5 211/2/5
f 231/2/5 229/2/5 228/2/5
f 231/2/5 228/2/5 227/2/5
f 231/3/5 230/3/5 229/3/5
f 232/3/5 230/3/5 231/3/5
f 233/3/5 204/3/5 230/3/5
f 233/3/5 230/3/5 232/3/5
f 234/3/5 204/3/5 233/3/5
f 235/3/5 221/3/5 220/3/5
f 236/2/5 223/2/5 222/2/5
f 236/3/5 221/3/5 235/3/5
f 236/2/5 222/2/5 221/2/5
f 237/2/5 223/2/5 236/2/5
f 238/3/5 224/3/5 223/3/5
f 238/2/5 223/2/5 237/2/5
f 239/2/5 225/2/5 224/2/5
f 239/3/5 224/3/5 238/3/5
f 239/2/5 226/2/5 225/2/5
f 240/2/5 226/2/5 239/2/5
f 241/3/5 227/3/5 226/3/5
f 241/2/5 226/2/5 240/2/5
f 242/2/5 232/2/5 231/2/5
f 242/3/5 227/3/5 241/3/5
f 242/2/5 231/2/5 227/2/5
f 243/2/5 232/2/5 242/2/5
f 244/3/5 233/3/5 232/3/5
f 244/2/5 232/2/5 243/2/5
f 245/3/5 233/3/5 244/3/5
f 246/3/5 237/3/5 236/3/5
f 247/2/5 238/2/5 237/2/5
f 247/3/5 237/3/5 246/3/5
f 247/2/5 239/2/5 238/2/5
f 248/2/5 239/2/5 247/2/5
f 249/3/5 240/3/5 239/3/5
f 249/2/5 239/2/5 248/2/5
f 250/2/5 241/2/5 240/2/5
f 250/3/5 240/3/5 249/3/5
f 250/2/5 243/2/5 242/2/5
f 250/2/5 242/2/5 241/2/5
f 251/2/5 243/2/5 250/2/5
f 252/3/5 244/3/5 243/3/5
f 252/2/5 243/2/5 251/2/5
f 253/3/5 244/3/5 252/3/5
f 254/3/5 248/3/5 247/3/5
f 255/3/5 248/3/5 254/3/5
f 256/2/5 249/2/5 248/2/5
f 256/3/5 248/3/5 255/3/5
f 256/2/5 251/2/5 250/2/5
f 256/2/5 250/2/5 249/2/5
f 257/3/5 252/3/5 251/3/5
f 257/2/5 251/2/5 256/2/5
f 258/3/5 252/3/5 257/3/5
f 259/3/5 252/3/5 258/3/5
f 260/3/5 256/3/5 255/3/5
f 260/3/5 258/3/5 257/3/5
f 260/3/5 257/3/5 256/3/5
f 261/3/5 258/3/5 260/3/5
f 262/3/6 263/3/6 265/3/6
f 265/3/6 263/3/6 266/3/6
f 266/3/6 263/3/6 267/3/6
f 267/3/6 263/3/6 268/3/6
f 264/3/6 265/3/6 271/3/6
f 265/3/6 266/3/6 271/3/6
f 266/1/6 267/1/6 272/1/6
f 271/3/6 266/3/6 272/3/6
f 272/1/6 267/1/6 273/1/6
f 268/3/6 269/3/6 274/3/6
f 273/1/6 267/1/6 274/1/6
f 267/3/6 268/3/6 274/3/6
f 274/3/6 269/3/6 275/3/6
f 270/3/6 271/3/6 277/3/6
f 272/1/6 273/1/6 278/1/6
f 271/1/6 272/1/6 278/1/6
f 277/3/6 271/3/6 278/3/6
f 278/1/6 273/1/6 279/1/6
f 273/2/6 274/2/6 280/2/6
f 279/1/6 273/1/6 280/1/6
f 274/2/6 275/2/6 280/2/6
f 280/2/6 275/2/6 281/2/6
f 278/1/6 279/1/6 282/1/6
f 277/1/6 278/1/6 282/1/6
f 279/2/6 280/2/6 283/2/6
f 282/1/6 279/1/6 283/1/6
f 280/3/6 281/3/6 284/3/6
f 283/2/6 280/2/6 284/2/6
f 281/2/6 275/2/6 285/2/6
f 284/3/6 281/3/6 285/3/6
f 285/2/6 275/2/6 286/2/6
f 275/3/6 269/3/6 287/3/6
f 286/2/6 275/2/6 287/2/6
f 287/3/6 269/3/6 288/3/6
f 276/3/6 277/3/6 291/3/6
f 277/1/6 282/1/6 292/1/6
f 291/3/6 277/3/6 292/3/6
f 292/1/6 282/1/6 293/1/6
f 282/2/6 283/2/6 294/2/6
f 293/1/6 282/1/6 294/1/6
f 285/2/6 286/2/6 295/2/6
f 284/2/6 285/2/6 295/2/6
f 286/3/6 287/3/6 296/3/6
f 295/2/6 286/2/6 296/2/6
f 287/2/6 288/2/6 297/2/6
f 296/3/6 287/3/6 297/3/6
f 292/1/6 293/1/6 298/1/6
f 291/1/6 292/1/6 298/1/6
f 293/2/6 294/2/6 299/2/6
f 298/1/6 293/1/6 299/1/6
f 294/2/6 283/2/6 300/2/6
f 299/2/6 294/2/6 300/2/6
f 283/3/6 284/3/6 301/3/6
f 300/2/6 283/2/6 301/2/6
f 284/2/6 295/2/6 302/2/6
f 301/3/6 284/3/6 302/3/6
f 288/3/6 289/3/6 303/3/6
f 297/2/6 288/2/6 303/2/6
f 296/2/6 297/2/6 303/2/6
f 303/3/6 289/3/6 304/3/6
f 298/2/6 299/2/6 306/2/6
f 299/2/6 300/2/6 306/2/6
f 300/3/6 301/3/6 307/3/6
f 306/2/6 300/2/6 307/2/6
f 301/2/6 302/2/6 308/2/6
f 307/3/6 301/3/6 308/3/6
f 302/2/6 295/2/6 309/2/6
f 308/2/6 302/2/6 309/2/6
f 295/3/6 296/3/6 310/3/6
f 309/2/6 295/2/6 310/2/6
f 303/2/6 304/2/6 311/2/6
f 310/3/6 296/3/6 311/3/6
f 296/2/6 303/2/6 311/2/6
f 290/3/6 291/3/6 312/3/6
f 291/1/6 298/1/6 312/1/6
f 298/2/6 306/2/6 313/2/6
f 312/1/6 298/1/6 313/1/6
f 306/3/6 307/3/6 314/3/6
f 313/2/6 306/2/6 314/2/6
f 307/2/6 308/2/6 315/2/6
f 314/3/6 307/3/6 315/3/6
f 308/2/6 309/2/6 315/2/6
f 309/3/6 310/3/6 316/3/6
f 315/2/6 309/2/6 316/2/6
f 310/2/6 311/2/6 317/2/6
f 316/3/6 310/3/6 317/3/6
f 311/2/6 304/2/6 318/2/6
f 317/2/6 311/2/6 318/2/6
f 304/3/6 305/3/6 319/3/6
f 318/2/6 304/2/6 319/2/6
f 319/3/6 305/3/6 320/3/6
f 313/3/6 314/3/6 322/3/6
f 314/3/6 315/3/6 322/3/6
f 312/3/6 313/3/6 322/3/6
f 315/3/6 316/3/6 322/3/6
f 290/3/6 312/3/6 322/3/6
f 322/3/6 316/3/6 323/3/6
f 323/3/6 316/3/6 324/3/6
f 324/3/6 316/3/6 325/3/6
f 317/2/6 318/2/6 326/2/6
f 325/3/6 316/3/6 326/3/6
f 316/2/6 317/2/6 326/2/6
f 318/3/6 319/3/6 327/3/6
f 326/2/6 318/2/6 327/2/6
f 319/2/6 320/2/6 328/2/6
f 327/3/6 319/3/6 328/3/6
f 323/3/6 324/3/6 329/3/6
f 322/2/6 323/2/6 329/2/6
f 324/2/6 325/2/6 330/2/6
f 329/3/6 324/3/6 330/3/6
f 330/2/6 325/2/6 331/2/6
f 326/3/6 327/3/6 332/3/6
f 331/2/6 325/2/6 332/2/6
f 325/3/6 326/3/6 332/3/6
f 332/3/6 327/3/6 333/3/6
f 333/3/6 327/3/6 334/3/6
f 334/3/6 327/3/6 335/3/6
f 290/3/6 322/3/6 336/3/6
f 322/2/6 329/2/6 337/2/6
f 336/3/6 322/3/6 337/3/6
f 329/2/6 330/2/6 337/2/6
f 337/2/6 330/2/6 338/2/6
f 330/3/6 331/3/6 339/3/6
f 338/2/6 330/2/6 339/2/6
f 331/2/6 332/2/6 340/2/6
f 339/3/6 331/3/6 340/3/6
f 332/2/6 333/2/6 340/2/6
f 340/2/6 333/2/6 341/2/6
f 333/3/6 334/3/6 342/3/6
f 341/2/6 333/2/6 342/2/6
f 334/2/6 335/2/6 343/2/6
f 342/3/6 334/3/6 343/3/6
f 343/2/6 335/2/6 344/2/6
f 335/3/6 327/3/6 345/3/6
f 344/2/6 335/2/6 345/2/6
f 327/2/6 328/2/6 346/2/6
f 345/3/6 327/3/6 346/3/6
f 320/3/6 321/3/6 347/3/6
f 346/2/6 328/2/6 347/2/6
f 328/2/6 320/2/6 347/2/6
f 345/2/6 346/2/6 348/2/6
f 344/2/6 345/2/6 348/2/6
f 346/3/6 347/3/6 348/3/6
f 348/3/6 347/3/6 349/3/6
f 347/3/6 321/3/6 350/3/6
f 349/3/6 347/3/6 350/3/6
f 350/3/6 321/3/6 351/3/6
f 337/3/6 338/3/6 352/3/6
f 339/2/6 340/2/6 353/2/6
f 352/3/6 338/3/6 353/3/6
f 338/2/6 339/2/6 353/2/6
f 353/2/6 340/2/6 354/2/6
f 340/3/6 341/3/6 355/3/6
f 354/2/6 340/2/6 355/2/6
f 341/2/6 342/2/6 356/2/6
f 355/3/6 341/3/6 356/3/6
f 342/2/6 343/2/6 356/2/6
f 356/2/6 343/2/6 357/2/6
f 343/3/6 344/3/6 358/3/6
f 357/2/6 343/2/6 358/2/6
f 348/2/6 349/2/6 359/2/6
f 358/3/6 344/3/6 359/3/6
f 344/2/6 348/2/6 359/2/6
f 359/2/6 349/2/6 360/2/6
f 349/3/6 350/3/6 361/3/6
f 360/2/6 349/2/6 361/2/6
f 361/3/6 350/3/6 362/3/6
f 353/3/6 354/3/6 363/3/6
f 354/2/6 355/2/6 364/2/6
f 363/3/6 354/3/6 364/3/6
f 355/2/6 356/2/6 364/2/6
f 364/2/6 356/2/6 365/2/6
f 356/3/6 357/3/6 366/3/6
f 365/2/6 356/2/6 366/2/6
f 357/2/6 358/2/6 367/2/6
f 366/3/6 357/3/6 367/3/6
f 359/2/6 360/2/6 367/2/6
f 358/2/6 359/2/6 367/2/6
f 367/2/6 360/2/6 368/2/6
f 360/3/6 361/3/6 369/3/6
f 368/2/6 360/2/6 369/2/6
f 369/3/6 361/3/6 370/3/6
f 364/3/6 365/3/6 371/3/6
f 371/3/6 365/3/6 372/3/6
f 365/2/6 366/2/6 373/2/6
f 372/3/6 365/3/6 373/3/6
f 367/2/6 368/2/6 373/2/6
f 366/2/6 367/2/6 373/2/6
f 368/3/6 369/3/6 374/3/6
f 373/2/6 368/2/6 374/2/6
f 374/3/6 369/3/6 375/3/6
f 375/3/6 369/3/6 376/3/6
f 372/3/6 373/3/6 377/3/6
f 374/3/6 375/3/6 377/3/6
f 373/3/6 374/3/6 377/3/6
f 377/3/6 375/3/6 378/3/6
