# MagicaVoxel @ Ephtracy

# group
o 

# material
mtllib MassBoxTop.vox.mtl
usemtl palette

# normals
vn -1 0 0
vn 1 0 0
vn 0 0 1
vn 0 0 -1
vn 0 -1 0
vn 0 1 0

# texcoords
vt 0.0332031 0.5
vt 0.201172 0.5
vt 0.369141 0.5
vt 0.537109 0.5
vt 0.986328 0.5

# verts
v -1.6 0 1.6
v -1.6 0 -1.6
v -1.6 0.5 1.6
v -1.6 0.5 -1.6
v 1.6 0 1.6
v 1.6 0 -1.6
v 1.6 0.5 1.6
v 1.6 0.5 -1.6
v -1.6 0 1.6
v -1.6 0.5 1.6
v 1.6 0 1.6
v 1.6 0.5 1.6
v -1.6 0 -1.6
v -1.6 0.5 -1.6
v 1.6 0 -1.6
v 1.6 0.5 -1.6
v -1.6 0 1.6
v 1.6 0 1.6
v -1.6 0 -1.6
v 1.6 0 -1.6
v -1.6 0.5 1.6
v 1.6 0.5 1.6
v -1.4 0.5 1.4
v 1.4 0.5 1.4
v -0.3 0.5 1
v 0.3 0.5 1
v -0.5 0.5 0.9
v -0.3 0.5 0.9
v 0.3 0.5 0.9
v 0.5 0.5 0.9
v -0.7 0.5 0.8
v -0.5 0.5 0.8
v 0.5 0.5 0.8
v 0.7 0.5 0.8
v -0.8 0.5 0.7
v -0.7 0.5 0.7
v -0.4 0.5 0.7
v -0.1 0.5 0.7
v 0.4 0.5 0.7
v 0.7 0.5 0.7
v 0.8 0.5 0.7
v -0.6 0.5 0.6
v -0.4 0.5 0.6
v -0.1 0.5 0.6
v 0.2 0.5 0.6
v 0.4 0.5 0.6
v 0.6 0.5 0.6
v -0.9 0.5 0.5
v -0.8 0.5 0.5
v -0.7 0.5 0.5
v -0.6 0.5 0.5
v 0.2 0.5 0.5
v 0.4 0.5 0.5
v 0.6 0.5 0.5
v 0.7 0.5 0.5
v 0.8 0.5 0.5
v 0.9 0.5 0.5
v -0.8 0.5 0.4
v -0.7 0.5 0.4
v 0.4 0.5 0.4
v 0.5 0.5 0.4
v 0.7 0.5 0.4
v 0.8 0.5 0.4
v -1 0.5 0.3
v -0.9 0.5 0.3
v -0.7 0.5 0.3
v -0.4 0.5 0.3
v 0.5 0.5 0.3
v 0.6 0.5 0.3
v 0.9 0.5 0.3
v 1 0.5 0.3
v -0.9 0.5 0.2
v -0.8 0.5 0.2
v -0.7 0.5 0.2
v -0.4 0.5 0.2
v -0.1 0.5 0.2
v 0.6 0.5 0.2
v 0.7 0.5 0.2
v 0.8 0.5 0.2
v 0.9 0.5 0.2
v -0.1 0.5 0.1
v 0.1 0.5 0.1
v 0.7 0.5 0.1
v 0.8 0.5 0.1
v 0.1 0.5 0
v 0.2 0.5 0
v 0.8 0.5 0
v 0.9 0.5 0
v -0.9 0.5 -0.1
v -0.8 0.5 -0.1
v 0.2 0.5 -0.1
v 0.3 0.5 -0.1
v 0.8 0.5 -0.1
v 0.9 0.5 -0.1
v 0.3 0.5 -0.2
v 0.4 0.5 -0.2
v -1 0.5 -0.3
v -0.9 0.5 -0.3
v -0.8 0.5 -0.3
v -0.7 0.5 -0.3
v 0.4 0.5 -0.3
v 0.5 0.5 -0.3
v 0.7 0.5 -0.3
v 0.8 0.5 -0.3
v 0.9 0.5 -0.3
v 1 0.5 -0.3
v -0.7 0.5 -0.4
v -0.6 0.5 -0.4
v 0.5 0.5 -0.4
v 0.6 0.5 -0.4
v 0.7 0.5 -0.4
v -0.9 0.5 -0.5
v -0.8 0.5 -0.5
v -0.6 0.5 -0.5
v -0.4 0.5 -0.5
v 0.4 0.5 -0.5
v 0.6 0.5 -0.5
v 0.8 0.5 -0.5
v 0.9 0.5 -0.5
v -0.4 0.5 -0.6
v 0.4 0.5 -0.6
v -0.8 0.5 -0.7
v -0.7 0.5 -0.7
v 0.7 0.5 -0.7
v 0.8 0.5 -0.7
v -0.7 0.5 -0.8
v -0.5 0.5 -0.8
v 0.5 0.5 -0.8
v 0.7 0.5 -0.8
v -0.5 0.5 -0.9
v -0.3 0.5 -0.9
v 0.3 0.5 -0.9
v 0.5 0.5 -0.9
v -0.3 0.5 -1
v 0.3 0.5 -1
v -1.4 0.5 -1.4
v 1.4 0.5 -1.4
v -1.6 0.5 -1.6
v 1.6 0.5 -1.6

# faces
f 3/4/1 2/4/1 1/4/1
f 4/4/1 2/4/1 3/4/1
f 5/4/2 6/4/2 7/4/2
f 7/4/2 6/4/2 8/4/2
f 11/4/3 10/4/3 9/4/3
f 12/4/3 10/4/3 11/4/3
f 13/4/4 14/4/4 15/4/4
f 15/4/4 14/4/4 16/4/4
f 19/4/5 18/4/5 17/4/5
f 20/4/5 18/4/5 19/4/5
f 21/4/6 22/4/6 23/4/6
f 23/4/6 22/4/6 24/4/6
f 23/1/6 24/1/6 25/1/6
f 25/1/6 24/1/6 26/1/6
f 23/1/6 25/1/6 27/1/6
f 25/5/6 26/5/6 28/5/6
f 27/1/6 25/1/6 28/1/6
f 26/1/6 24/1/6 29/1/6
f 28/5/6 26/5/6 29/5/6
f 29/1/6 24/1/6 30/1/6
f 23/1/6 27/1/6 31/1/6
f 27/5/6 28/5/6 32/5/6
f 31/1/6 27/1/6 32/1/6
f 28/5/6 29/5/6 32/5/6
f 29/5/6 30/5/6 32/5/6
f 30/1/6 24/1/6 33/1/6
f 32/5/6 30/5/6 33/5/6
f 33/1/6 24/1/6 34/1/6
f 23/1/6 31/1/6 35/1/6
f 31/5/6 32/5/6 36/5/6
f 35/1/6 31/1/6 36/1/6
f 32/5/6 33/5/6 36/5/6
f 33/5/6 34/5/6 36/5/6
f 36/5/6 34/5/6 37/5/6
f 37/5/6 34/5/6 38/5/6
f 38/5/6 34/5/6 39/5/6
f 34/1/6 24/1/6 40/1/6
f 39/5/6 34/5/6 40/5/6
f 40/1/6 24/1/6 41/1/6
f 35/5/6 36/5/6 42/5/6
f 36/5/6 37/5/6 42/5/6
f 37/2/6 38/2/6 43/2/6
f 42/5/6 37/5/6 43/5/6
f 38/3/6 39/3/6 44/3/6
f 43/2/6 38/2/6 44/2/6
f 44/3/6 39/3/6 45/3/6
f 40/5/6 41/5/6 46/5/6
f 45/3/6 39/3/6 46/3/6
f 39/5/6 40/5/6 46/5/6
f 46/5/6 41/5/6 47/5/6
f 23/1/6 35/1/6 48/1/6
f 35/5/6 42/5/6 49/5/6
f 48/1/6 35/1/6 49/1/6
f 49/5/6 42/5/6 50/5/6
f 42/2/6 43/2/6 51/2/6
f 50/5/6 42/5/6 51/5/6
f 44/2/6 45/2/6 51/2/6
f 43/2/6 44/2/6 51/2/6
f 46/3/6 47/3/6 52/3/6
f 51/2/6 45/2/6 52/2/6
f 45/3/6 46/3/6 52/3/6
f 52/3/6 47/3/6 53/3/6
f 47/5/6 41/5/6 54/5/6
f 53/3/6 47/3/6 54/3/6
f 54/5/6 41/5/6 55/5/6
f 41/1/6 24/1/6 56/1/6
f 55/5/6 41/5/6 56/5/6
f 56/1/6 24/1/6 57/1/6
f 49/5/6 50/5/6 58/5/6
f 48/5/6 49/5/6 58/5/6
f 52/2/6 53/2/6 59/2/6
f 58/5/6 50/5/6 59/5/6
f 50/2/6 51/2/6 59/2/6
f 51/2/6 52/2/6 59/2/6
f 54/3/6 55/3/6 60/3/6
f 59/2/6 53/2/6 60/2/6
f 53/3/6 54/3/6 60/3/6
f 60/3/6 55/3/6 61/3/6
f 56/5/6 57/5/6 62/5/6
f 61/3/6 55/3/6 62/3/6
f 55/5/6 56/5/6 62/5/6
f 62/5/6 57/5/6 63/5/6
f 23/1/6 48/1/6 64/1/6
f 48/5/6 58/5/6 65/5/6
f 64/1/6 48/1/6 65/1/6
f 58/2/6 59/2/6 66/2/6
f 60/2/6 61/2/6 66/2/6
f 59/2/6 60/2/6 66/2/6
f 66/2/6 61/2/6 67/2/6
f 62/3/6 63/3/6 68/3/6
f 67/2/6 61/2/6 68/2/6
f 61/3/6 62/3/6 68/3/6
f 68/3/6 63/3/6 69/3/6
f 57/1/6 24/1/6 70/1/6
f 63/5/6 57/5/6 70/5/6
f 70/1/6 24/1/6 71/1/6
f 65/5/6 58/5/6 72/5/6
f 64/5/6 65/5/6 72/5/6
f 58/2/6 66/2/6 73/2/6
f 72/5/6 58/5/6 73/5/6
f 66/1/6 67/1/6 74/1/6
f 73/2/6 66/2/6 74/2/6
f 68/2/6 69/2/6 75/2/6
f 74/1/6 67/1/6 75/1/6
f 67/2/6 68/2/6 75/2/6
f 75/2/6 69/2/6 76/2/6
f 69/3/6 63/3/6 77/3/6
f 76/2/6 69/2/6 77/2/6
f 77/3/6 63/3/6 78/3/6
f 70/5/6 71/5/6 79/5/6
f 78/3/6 63/3/6 79/3/6
f 63/5/6 70/5/6 79/5/6
f 79/5/6 71/5/6 80/5/6
f 75/1/6 76/1/6 81/1/6
f 77/2/6 78/2/6 81/2/6
f 73/1/6 74/1/6 81/1/6
f 72/1/6 73/1/6 81/1/6
f 74/1/6 75/1/6 81/1/6
f 76/2/6 77/2/6 81/2/6
f 81/2/6 78/2/6 82/2/6
f 79/3/6 80/3/6 83/3/6
f 82/2/6 78/2/6 83/2/6
f 78/3/6 79/3/6 83/3/6
f 83/3/6 80/3/6 84/3/6
f 81/1/6 82/1/6 85/1/6
f 82/2/6 83/2/6 85/2/6
f 83/2/6 84/2/6 85/2/6
f 85/2/6 84/2/6 86/2/6
f 84/3/6 80/3/6 87/3/6
f 86/2/6 84/2/6 87/2/6
f 80/5/6 71/5/6 88/5/6
f 87/3/6 80/3/6 88/3/6
f 85/1/6 86/1/6 89/1/6
f 72/1/6 81/1/6 89/1/6
f 64/5/6 72/5/6 89/5/6
f 81/1/6 85/1/6 89/1/6
f 89/1/6 86/1/6 90/1/6
f 86/2/6 87/2/6 91/2/6
f 90/1/6 86/1/6 91/1/6
f 87/2/6 88/2/6 91/2/6
f 91/2/6 88/2/6 92/2/6
f 92/2/6 88/2/6 93/2/6
f 88/5/6 71/5/6 94/5/6
f 93/2/6 88/2/6 94/2/6
f 92/2/6 93/2/6 95/2/6
f 90/1/6 91/1/6 95/1/6
f 91/1/6 92/1/6 95/1/6
f 95/2/6 93/2/6 96/2/6
f 89/5/6 90/5/6 97/5/6
f 23/1/6 64/1/6 97/1/6
f 64/5/6 89/5/6 97/5/6
f 97/5/6 90/5/6 98/5/6
f 95/1/6 96/1/6 99/1/6
f 98/5/6 90/5/6 99/5/6
f 90/1/6 95/1/6 99/1/6
f 99/1/6 96/1/6 100/1/6
f 96/2/6 93/2/6 101/2/6
f 100/1/6 96/1/6 101/1/6
f 101/2/6 93/2/6 102/2/6
f 102/2/6 93/2/6 103/2/6
f 93/5/6 94/5/6 104/5/6
f 103/2/6 93/2/6 104/2/6
f 94/5/6 71/5/6 105/5/6
f 104/5/6 94/5/6 105/5/6
f 71/1/6 24/1/6 106/1/6
f 105/5/6 71/5/6 106/5/6
f 99/5/6 100/5/6 107/5/6
f 98/5/6 99/5/6 107/5/6
f 100/1/6 101/1/6 107/1/6
f 101/1/6 102/1/6 107/1/6
f 107/1/6 102/1/6 108/1/6
f 102/2/6 103/2/6 109/2/6
f 108/1/6 102/1/6 109/1/6
f 109/2/6 103/2/6 110/2/6
f 104/5/6 105/5/6 111/5/6
f 110/2/6 103/2/6 111/2/6
f 103/5/6 104/5/6 111/5/6
f 97/1/6 98/1/6 112/1/6
f 107/5/6 108/5/6 112/5/6
f 98/5/6 107/5/6 112/5/6
f 112/5/6 108/5/6 113/5/6
f 109/1/6 110/1/6 114/1/6
f 113/5/6 108/5/6 114/5/6
f 108/1/6 109/1/6 114/1/6
f 114/1/6 110/1/6 115/1/6
f 115/1/6 110/1/6 116/1/6
f 110/5/6 111/5/6 117/5/6
f 116/1/6 110/1/6 117/1/6
f 111/5/6 105/5/6 118/5/6
f 117/5/6 111/5/6 118/5/6
f 105/1/6 106/1/6 119/1/6
f 118/5/6 105/5/6 119/5/6
f 115/1/6 116/1/6 120/1/6
f 113/5/6 114/5/6 120/5/6
f 114/5/6 115/5/6 120/5/6
f 116/5/6 117/5/6 121/5/6
f 120/1/6 116/1/6 121/1/6
f 117/5/6 118/5/6 121/5/6
f 113/5/6 120/5/6 122/5/6
f 112/1/6 113/1/6 122/1/6
f 120/5/6 121/5/6 122/5/6
f 122/5/6 121/5/6 123/5/6
f 121/5/6 118/5/6 124/5/6
f 123/5/6 121/5/6 124/5/6
f 118/1/6 119/1/6 125/1/6
f 124/5/6 118/5/6 125/5/6
f 122/1/6 123/1/6 126/1/6
f 123/5/6 124/5/6 126/5/6
f 126/5/6 124/5/6 127/5/6
f 127/5/6 124/5/6 128/5/6
f 124/1/6 125/1/6 129/1/6
f 128/5/6 124/5/6 129/5/6
f 127/5/6 128/5/6 130/5/6
f 126/1/6 127/1/6 130/1/6
f 130/5/6 128/5/6 131/5/6
f 131/5/6 128/5/6 132/5/6
f 128/1/6 129/1/6 133/1/6
f 132/5/6 128/5/6 133/5/6
f 131/5/6 132/5/6 134/5/6
f 130/1/6 131/1/6 134/1/6
f 132/1/6 133/1/6 135/1/6
f 134/5/6 132/5/6 135/5/6
f 21/4/6 23/4/6 136/4/6
f 97/1/6 112/1/6 136/1/6
f 134/1/6 135/1/6 136/1/6
f 130/1/6 134/1/6 136/1/6
f 126/1/6 130/1/6 136/1/6
f 23/1/6 97/1/6 136/1/6
f 122/1/6 126/1/6 136/1/6
f 112/1/6 122/1/6 136/1/6
f 135/1/6 133/1/6 137/1/6
f 136/1/6 135/1/6 137/1/6
f 24/4/6 22/4/6 137/4/6
f 119/1/6 106/1/6 137/1/6
f 133/1/6 129/1/6 137/1/6
f 129/1/6 125/1/6 137/1/6
f 125/1/6 119/1/6 137/1/6
f 106/1/6 24/1/6 137/1/6
f 21/4/6 136/4/6 138/4/6
f 136/4/6 137/4/6 138/4/6
f 137/4/6 22/4/6 139/4/6
f 138/4/6 137/4/6 139/4/6
