# MagicaVoxel @ Ephtracy

# group
o 

# material
mtllib MushroomBoxTop.vox.mtl
usemtl palette

# normals
vn -1 0 0
vn 1 0 0
vn 0 0 1
vn 0 0 -1
vn 0 -1 0
vn 0 1 0

# texcoords
vt 0.0332031 0.5
vt 0.201172 0.5
vt 0.205078 0.5
vt 0.369141 0.5
vt 0.396484 0.5
vt 0.537109 0.5
vt 0.986328 0.5

# verts
v -1.6 0 1.6
v -1.6 0 -1.6
v -1.6 0.5 1.6
v -1.6 0.5 -1.6
v 1.6 0 1.6
v 1.6 0 -1.6
v 1.6 0.5 1.6
v 1.6 0.5 -1.6
v -1.6 0 1.6
v -1.6 0.5 1.6
v 1.6 0 1.6
v 1.6 0.5 1.6
v -1.6 0 -1.6
v -1.6 0.5 -1.6
v 1.6 0 -1.6
v 1.6 0.5 -1.6
v -1.6 0 1.6
v 1.6 0 1.6
v -1.6 0 -1.6
v 1.6 0 -1.6
v -1.6 0.5 1.6
v 1.6 0.5 1.6
v -1.4 0.5 1.4
v 1.4 0.5 1.4
v -0.3 0.5 1
v 0.3 0.5 1
v -0.5 0.5 0.9
v -0.3 0.5 0.9
v 0.3 0.5 0.9
v 0.5 0.5 0.9
v -0.7 0.5 0.8
v -0.5 0.5 0.8
v -0.3 0.5 0.8
v 0.1 0.5 0.8
v 0.5 0.5 0.8
v 0.7 0.5 0.8
v -0.8 0.5 0.7
v -0.7 0.5 0.7
v 0.1 0.5 0.7
v 0.2 0.5 0.7
v 0.7 0.5 0.7
v 0.8 0.5 0.7
v -0.3 0.5 0.6
v -0.2 0.5 0.6
v 0 0.5 0.6
v 0.2 0.5 0.6
v -0.9 0.5 0.5
v -0.8 0.5 0.5
v -0.1 0.5 0.5
v 0 0.5 0.5
v 0.8 0.5 0.5
v 0.9 0.5 0.5
v -1 0.5 0.3
v -0.9 0.5 0.3
v -0.3 0.5 0.3
v -0.2 0.5 0.3
v -0.1 0.5 0.3
v 0.2 0.5 0.3
v 0.4 0.5 0.3
v 0.9 0.5 0.3
v 1 0.5 0.3
v -0.6 0.5 0.2
v -0.3 0.5 0.2
v -0.2 0.5 0.2
v -0.1 0.5 0.2
v 0.2 0.5 0.2
v 0.3 0.5 0.2
v 0.4 0.5 0.2
v 0.7 0.5 0.2
v -0.7 0.5 0.1
v -0.6 0.5 0.1
v -0.4 0.5 0.1
v -0.2 0.5 0.1
v -0.1 0.5 0.1
v 0 0.5 0.1
v 0.3 0.5 0.1
v 0.4 0.5 0.1
v 0.5 0.5 0.1
v 0.7 0.5 0.1
v 0.8 0.5 0.1
v -0.6 0.5 0
v -0.4 0.5 0
v -0.3 0.5 0
v 0 0.5 0
v 0.1 0.5 0
v 0.2 0.5 0
v 0.4 0.5 0
v 0.5 0.5 0
v -0.6 0.5 -0.1
v -0.5 0.5 -0.1
v -0.4 0.5 -0.1
v -0.3 0.5 -0.1
v -0.1 0.5 -0.1
v 0.1 0.5 -0.1
v 0.4 0.5 -0.1
v 0.6 0.5 -0.1
v 0.7 0.5 -0.1
v -0.7 0.5 -0.2
v -0.6 0.5 -0.2
v -0.3 0.5 -0.2
v 0.1 0.5 -0.2
v 0.5 0.5 -0.2
v 0.6 0.5 -0.2
v 0.7 0.5 -0.2
v 0.8 0.5 -0.2
v -1 0.5 -0.3
v -0.9 0.5 -0.3
v -0.6 0.5 -0.3
v -0.5 0.5 -0.3
v -0.4 0.5 -0.3
v 0.3 0.5 -0.3
v 0.5 0.5 -0.3
v 0.6 0.5 -0.3
v 0.7 0.5 -0.3
v 0.9 0.5 -0.3
v 1 0.5 -0.3
v -0.5 0.5 -0.4
v -0.4 0.5 -0.4
v -0.3 0.5 -0.4
v 0.2 0.5 -0.4
v 0.3 0.5 -0.4
v 0.4 0.5 -0.4
v 0.5 0.5 -0.4
v 0.6 0.5 -0.4
v -0.9 0.5 -0.5
v -0.8 0.5 -0.5
v -0.4 0.5 -0.5
v -0.3 0.5 -0.5
v -0.1 0.5 -0.5
v 0 0.5 -0.5
v 0.2 0.5 -0.5
v 0.3 0.5 -0.5
v 0.4 0.5 -0.5
v 0.5 0.5 -0.5
v 0.8 0.5 -0.5
v 0.9 0.5 -0.5
v -0.3 0.5 -0.6
v -0.2 0.5 -0.6
v -0.1 0.5 -0.6
v 0 0.5 -0.6
v 0.3 0.5 -0.6
v 0.4 0.5 -0.6
v -0.8 0.5 -0.7
v -0.7 0.5 -0.7
v -0.2 0.5 -0.7
v 0.3 0.5 -0.7
v 0.7 0.5 -0.7
v 0.8 0.5 -0.7
v -0.7 0.5 -0.8
v -0.5 0.5 -0.8
v 0.5 0.5 -0.8
v 0.7 0.5 -0.8
v -0.5 0.5 -0.9
v -0.3 0.5 -0.9
v 0.3 0.5 -0.9
v 0.5 0.5 -0.9
v -0.3 0.5 -1
v 0.3 0.5 -1
v -1.4 0.5 -1.4
v 1.4 0.5 -1.4
v -1.6 0.5 -1.6
v 1.6 0.5 -1.6

# faces
f 3/6/1 2/6/1 1/6/1
f 4/6/1 2/6/1 3/6/1
f 5/6/2 6/6/2 7/6/2
f 7/6/2 6/6/2 8/6/2
f 11/6/3 10/6/3 9/6/3
f 12/6/3 10/6/3 11/6/3
f 13/6/4 14/6/4 15/6/4
f 15/6/4 14/6/4 16/6/4
f 19/6/5 18/6/5 17/6/5
f 20/6/5 18/6/5 19/6/5
f 21/6/6 22/6/6 23/6/6
f 23/6/6 22/6/6 24/6/6
f 23/1/6 24/1/6 25/1/6
f 25/1/6 24/1/6 26/1/6
f 23/1/6 25/1/6 27/1/6
f 25/7/6 26/7/6 28/7/6
f 27/1/6 25/1/6 28/1/6
f 26/1/6 24/1/6 29/1/6
f 28/7/6 26/7/6 29/7/6
f 29/1/6 24/1/6 30/1/6
f 23/1/6 27/1/6 31/1/6
f 27/7/6 28/7/6 32/7/6
f 31/1/6 27/1/6 32/1/6
f 28/7/6 29/7/6 32/7/6
f 29/7/6 30/7/6 32/7/6
f 32/7/6 30/7/6 33/7/6
f 33/7/6 30/7/6 34/7/6
f 30/1/6 24/1/6 35/1/6
f 34/7/6 30/7/6 35/7/6
f 35/1/6 24/1/6 36/1/6
f 23/1/6 31/1/6 37/1/6
f 31/7/6 32/7/6 38/7/6
f 37/1/6 31/1/6 38/1/6
f 32/7/6 33/7/6 38/7/6
f 33/3/6 34/3/6 39/3/6
f 35/7/6 36/7/6 39/7/6
f 34/7/6 35/7/6 39/7/6
f 39/7/6 36/7/6 40/7/6
f 36/1/6 24/1/6 41/1/6
f 40/7/6 36/7/6 41/7/6
f 41/1/6 24/1/6 42/1/6
f 39/3/6 40/3/6 43/3/6
f 38/7/6 33/7/6 43/7/6
f 37/7/6 38/7/6 43/7/6
f 33/3/6 39/3/6 43/3/6
f 43/3/6 40/3/6 44/3/6
f 44/3/6 40/3/6 45/3/6
f 41/7/6 42/7/6 46/7/6
f 45/3/6 40/3/6 46/3/6
f 40/7/6 41/7/6 46/7/6
f 23/1/6 37/1/6 47/1/6
f 43/7/6 44/7/6 48/7/6
f 47/1/6 37/1/6 48/1/6
f 37/7/6 43/7/6 48/7/6
f 44/3/6 45/3/6 49/3/6
f 45/2/6 46/2/6 50/2/6
f 49/3/6 45/3/6 50/3/6
f 42/1/6 24/1/6 51/1/6
f 46/7/6 42/7/6 51/7/6
f 51/1/6 24/1/6 52/1/6
f 23/1/6 47/1/6 53/1/6
f 47/7/6 48/7/6 54/7/6
f 53/1/6 47/1/6 54/1/6
f 48/7/6 44/7/6 55/7/6
f 54/7/6 48/7/6 55/7/6
f 44/3/6 49/3/6 56/3/6
f 55/7/6 44/7/6 56/7/6
f 49/2/6 50/2/6 57/2/6
f 56/3/6 49/3/6 57/3/6
f 50/2/6 46/2/6 58/2/6
f 57/2/6 50/2/6 58/2/6
f 46/7/6 51/7/6 58/7/6
f 51/7/6 52/7/6 58/7/6
f 58/7/6 52/7/6 59/7/6
f 52/1/6 24/1/6 60/1/6
f 59/7/6 52/7/6 60/7/6
f 60/1/6 24/1/6 61/1/6
f 53/7/6 54/7/6 62/7/6
f 54/7/6 55/7/6 62/7/6
f 56/6/6 57/6/6 63/6/6
f 62/7/6 55/7/6 63/7/6
f 55/6/6 56/6/6 63/6/6
f 63/6/6 57/6/6 64/6/6
f 57/2/6 58/2/6 65/2/6
f 64/6/6 57/6/6 65/6/6
f 58/6/6 59/6/6 66/6/6
f 65/2/6 58/2/6 66/2/6
f 66/6/6 59/6/6 67/6/6
f 59/7/6 60/7/6 68/7/6
f 67/6/6 59/6/6 68/6/6
f 60/7/6 61/7/6 68/7/6
f 68/7/6 61/7/6 69/7/6
f 53/7/6 62/7/6 70/7/6
f 63/6/6 64/6/6 71/6/6
f 70/7/6 62/7/6 71/7/6
f 62/6/6 63/6/6 71/6/6
f 71/6/6 64/6/6 72/6/6
f 64/5/6 65/5/6 73/5/6
f 72/6/6 64/6/6 73/6/6
f 65/2/6 66/2/6 74/2/6
f 73/5/6 65/5/6 74/5/6
f 74/2/6 66/2/6 75/2/6
f 66/5/6 67/5/6 76/5/6
f 68/6/6 69/6/6 76/6/6
f 67/6/6 68/6/6 76/6/6
f 76/6/6 69/6/6 77/6/6
f 77/6/6 69/6/6 78/6/6
f 69/7/6 61/7/6 79/7/6
f 78/6/6 69/6/6 79/6/6
f 79/7/6 61/7/6 80/7/6
f 71/6/6 72/6/6 81/6/6
f 70/6/6 71/6/6 81/6/6
f 72/5/6 73/5/6 82/5/6
f 81/6/6 72/6/6 82/6/6
f 73/5/6 74/5/6 82/5/6
f 82/5/6 74/5/6 83/5/6
f 75/2/6 66/2/6 84/2/6
f 74/3/6 75/3/6 84/3/6
f 84/2/6 66/2/6 85/2/6
f 66/5/6 76/5/6 86/5/6
f 85/2/6 66/2/6 86/2/6
f 76/5/6 77/5/6 86/5/6
f 77/6/6 78/6/6 87/6/6
f 86/5/6 77/5/6 87/5/6
f 78/4/6 79/4/6 88/4/6
f 87/6/6 78/6/6 88/6/6
f 70/6/6 81/6/6 89/6/6
f 81/4/6 82/4/6 89/4/6
f 89/4/6 82/4/6 90/4/6
f 82/6/6 83/6/6 91/6/6
f 90/4/6 82/4/6 91/4/6
f 83/5/6 74/5/6 92/5/6
f 91/6/6 83/6/6 92/6/6
f 84/3/6 85/3/6 93/3/6
f 92/5/6 74/5/6 93/5/6
f 74/3/6 84/3/6 93/3/6
f 85/6/6 86/6/6 94/6/6
f 93/3/6 85/3/6 94/3/6
f 86/6/6 87/6/6 94/6/6
f 87/4/6 88/4/6 95/4/6
f 94/6/6 87/6/6 95/6/6
f 88/4/6 79/4/6 96/4/6
f 95/4/6 88/4/6 96/4/6
f 79/6/6 80/6/6 97/6/6
f 96/4/6 79/4/6 97/4/6
f 53/7/6 70/7/6 98/7/6
f 89/6/6 90/6/6 98/6/6
f 70/6/6 89/6/6 98/6/6
f 98/6/6 90/6/6 99/6/6
f 92/6/6 93/6/6 100/6/6
f 90/4/6 91/4/6 100/4/6
f 93/6/6 94/6/6 100/6/6
f 91/4/6 92/4/6 100/4/6
f 94/4/6 95/4/6 101/4/6
f 100/6/6 94/6/6 101/6/6
f 95/4/6 96/4/6 101/4/6
f 101/4/6 96/4/6 102/4/6
f 96/6/6 97/6/6 103/6/6
f 102/4/6 96/4/6 103/4/6
f 97/6/6 80/6/6 104/6/6
f 103/6/6 97/6/6 104/6/6
f 80/7/6 61/7/6 105/7/6
f 104/6/6 80/6/6 105/6/6
f 98/7/6 99/7/6 106/7/6
f 23/1/6 53/1/6 106/1/6
f 53/7/6 98/7/6 106/7/6
f 106/7/6 99/7/6 107/7/6
f 99/6/6 90/6/6 108/6/6
f 107/7/6 99/7/6 108/7/6
f 90/4/6 100/4/6 109/4/6
f 108/6/6 90/6/6 109/6/6
f 101/4/6 102/4/6 109/4/6
f 100/4/6 101/4/6 109/4/6
f 109/4/6 102/4/6 110/4/6
f 110/4/6 102/4/6 111/4/6
f 103/6/6 104/6/6 112/6/6
f 111/4/6 102/4/6 112/4/6
f 102/6/6 103/6/6 112/6/6
f 112/6/6 104/6/6 113/6/6
f 104/7/6 105/7/6 114/7/6
f 113/6/6 104/6/6 114/6/6
f 105/7/6 61/7/6 115/7/6
f 114/7/6 105/7/6 115/7/6
f 61/1/6 24/1/6 116/1/6
f 115/7/6 61/7/6 116/7/6
f 107/7/6 108/7/6 117/7/6
f 109/6/6 110/6/6 117/6/6
f 108/7/6 109/7/6 117/7/6
f 110/4/6 111/4/6 118/4/6
f 117/6/6 110/6/6 118/6/6
f 118/4/6 111/4/6 119/4/6
f 119/4/6 111/4/6 120/4/6
f 111/2/6 112/2/6 121/2/6
f 120/4/6 111/4/6 121/4/6
f 121/2/6 112/2/6 122/2/6
f 112/6/6 113/6/6 123/6/6
f 122/2/6 112/2/6 123/2/6
f 114/7/6 115/7/6 124/7/6
f 123/6/6 113/6/6 124/6/6
f 113/7/6 114/7/6 124/7/6
f 106/1/6 107/1/6 125/1/6
f 107/7/6 117/7/6 125/7/6
f 117/7/6 118/7/6 125/7/6
f 125/7/6 118/7/6 126/7/6
f 118/6/6 119/6/6 127/6/6
f 126/7/6 118/7/6 127/7/6
f 119/4/6 120/4/6 128/4/6
f 127/6/6 119/6/6 128/6/6
f 128/4/6 120/4/6 129/4/6
f 129/4/6 120/4/6 130/4/6
f 120/2/6 121/2/6 131/2/6
f 130/4/6 120/4/6 131/4/6
f 121/2/6 122/2/6 131/2/6
f 131/2/6 122/2/6 132/2/6
f 122/6/6 123/6/6 133/6/6
f 132/2/6 122/2/6 133/2/6
f 123/7/6 124/7/6 134/7/6
f 133/6/6 123/6/6 134/6/6
f 124/7/6 115/7/6 135/7/6
f 134/7/6 124/7/6 135/7/6
f 115/1/6 116/1/6 136/1/6
f 135/7/6 115/7/6 136/7/6
f 128/6/6 129/6/6 137/6/6
f 126/7/6 127/7/6 137/7/6
f 127/7/6 128/7/6 137/7/6
f 137/6/6 129/6/6 138/6/6
f 129/4/6 130/4/6 139/4/6
f 138/6/6 129/6/6 139/6/6
f 131/2/6 132/2/6 140/2/6
f 139/4/6 130/4/6 140/4/6
f 130/2/6 131/2/6 140/2/6
f 132/6/6 133/6/6 141/6/6
f 140/2/6 132/2/6 141/2/6
f 133/7/6 134/7/6 142/7/6
f 141/6/6 133/6/6 142/6/6
f 134/7/6 135/7/6 142/7/6
f 137/7/6 138/7/6 143/7/6
f 126/7/6 137/7/6 143/7/6
f 125/1/6 126/1/6 143/1/6
f 143/7/6 138/7/6 144/7/6
f 140/6/6 141/6/6 145/6/6
f 144/7/6 138/7/6 145/7/6
f 138/6/6 139/6/6 145/6/6
f 139/6/6 140/6/6 145/6/6
f 141/7/6 142/7/6 146/7/6
f 145/6/6 141/6/6 146/6/6
f 142/7/6 135/7/6 147/7/6
f 146/7/6 142/7/6 147/7/6
f 135/1/6 136/1/6 148/1/6
f 147/7/6 135/7/6 148/7/6
f 143/1/6 144/1/6 149/1/6
f 145/7/6 146/7/6 149/7/6
f 144/7/6 145/7/6 149/7/6
f 146/7/6 147/7/6 149/7/6
f 149/7/6 147/7/6 150/7/6
f 150/7/6 147/7/6 151/7/6
f 147/1/6 148/1/6 152/1/6
f 151/7/6 147/7/6 152/7/6
f 150/7/6 151/7/6 153/7/6
f 149/1/6 150/1/6 153/1/6
f 153/7/6 151/7/6 154/7/6
f 154/7/6 151/7/6 155/7/6
f 151/1/6 152/1/6 156/1/6
f 155/7/6 151/7/6 156/7/6
f 154/7/6 155/7/6 157/7/6
f 153/1/6 154/1/6 157/1/6
f 155/1/6 156/1/6 158/1/6
f 157/7/6 155/7/6 158/7/6
f 21/6/6 23/6/6 159/6/6
f 125/1/6 143/1/6 159/1/6
f 157/1/6 158/1/6 159/1/6
f 153/1/6 157/1/6 159/1/6
f 149/1/6 153/1/6 159/1/6
f 106/1/6 125/1/6 159/1/6
f 143/1/6 149/1/6 159/1/6
f 23/1/6 106/1/6 159/1/6
f 158/1/6 156/1/6 160/1/6
f 159/1/6 158/1/6 160/1/6
f 24/6/6 22/6/6 160/6/6
f 116/1/6 24/1/6 160/1/6
f 136/1/6 116/1/6 160/1/6
f 152/1/6 148/1/6 160/1/6
f 156/1/6 152/1/6 160/1/6
f 148/1/6 136/1/6 160/1/6
f 21/6/6 159/6/6 161/6/6
f 159/6/6 160/6/6 161/6/6
f 160/6/6 22/6/6 162/6/6
f 161/6/6 160/6/6 162/6/6
