# MagicaVoxel @ Ephtracy

# group
o 

# material
mtllib Oven.mtl
usemtl palette

# normals
vn -1 0 0
vn 1 0 0
vn 0 0 1
vn 0 0 -1
vn 0 -1 0
vn 0 1 0

# texcoords
vt 0.849609 0.5
vt 0.986328 0.5
vt 0.990234 0.5

# verts
v -1.6 0 1.6
v -1.6 0 -1.6
v -1.6 1 1.6
v -1.6 1 -1.6
v -1.5 4.1 1.6
v -1.5 4.1 -1.6
v -1.5 4.8 1.6
v -1.5 4.8 -1.6
v -1.3 1 1.5
v -1.3 1 -1.5
v -1.3 4.1 1.5
v -1.3 4.1 -1.5
v -1.4 0.2 1.5
v -1.4 0.2 -1.5
v -1.4 0.8 1.5
v -1.4 0.8 -1.5
v -1.1 1.5 1.3
v -1.1 1.5 -1.3
v -1.1 3.7 1.3
v -1.1 3.7 -1.3
v 1 1 1.5
v 1 1 -1.5
v 1 1.5 1.3
v 1 1.5 -1.3
v 1 3.7 1.3
v 1 3.7 -1.3
v 1 4.1 1.5
v 1 4.1 -1.5
v 1.2 0.2 1.6
v 1.2 0.2 1.5
v 1.2 0.2 -1.5
v 1.2 0.2 -1.6
v 1.2 0.8 1.5
v 1.2 0.8 -1.5
v 1.2 1 1.6
v 1.2 1 -1.6
v 1.3 4.1 1.6
v 1.3 4.1 -1.6
v 1.3 4.2 1.3
v 1.3 4.2 0.8
v 1.3 4.2 0.6
v 1.3 4.2 0.1
v 1.3 4.2 -0.1
v 1.3 4.2 -0.6
v 1.3 4.2 -0.8
v 1.3 4.2 -1.3
v 1.3 4.3 1.2
v 1.3 4.3 0.9
v 1.3 4.3 0.5
v 1.3 4.3 0.2
v 1.3 4.3 -0.2
v 1.3 4.3 -0.5
v 1.3 4.3 -0.9
v 1.3 4.3 -1.2
v 1.3 4.6 1.2
v 1.3 4.6 0.9
v 1.3 4.6 0.5
v 1.3 4.6 0.2
v 1.3 4.6 -0.2
v 1.3 4.6 -0.5
v 1.3 4.6 -0.9
v 1.3 4.6 -1.2
v 1.3 4.7 1.3
v 1.3 4.7 0.8
v 1.3 4.7 0.6
v 1.3 4.7 0.1
v 1.3 4.7 -0.1
v 1.3 4.7 -0.6
v 1.3 4.7 -0.8
v 1.3 4.7 -1.3
v 1.3 4.8 1.6
v 1.3 4.8 -1.6
v 1.4 4.3 1.2
v 1.4 4.3 0.9
v 1.4 4.3 0.5
v 1.4 4.3 0.2
v 1.4 4.3 -0.2
v 1.4 4.3 -0.5
v 1.4 4.3 -0.9
v 1.4 4.3 -1.2
v 1.4 4.6 1.2
v 1.4 4.6 0.9
v 1.4 4.6 0.5
v 1.4 4.6 0.2
v 1.4 4.6 -0.2
v 1.4 4.6 -0.5
v 1.4 4.6 -0.9
v 1.4 4.6 -1.2
v 1.6 0 1.6
v 1.6 0 -1.6
v 1.6 0.2 1.6
v 1.6 0.2 -1.6
v -1.6 0 1.6
v -1.6 1 1.6
v -1.5 4.1 1.6
v -1.5 4.8 1.6
v 1.2 0.2 1.6
v 1.2 1 1.6
v 1.3 4.1 1.6
v 1.3 4.8 1.6
v 1.6 0 1.6
v 1.6 0.2 1.6
v -1.3 1 1.5
v -1.3 4.1 1.5
v 1 1 1.5
v 1 4.1 1.5
v 1.3 4.3 1.2
v 1.3 4.6 1.2
v 1.4 4.3 1.2
v 1.4 4.6 1.2
v 1.3 4.3 0.5
v 1.3 4.6 0.5
v 1.4 4.3 0.5
v 1.4 4.6 0.5
v 1.3 4.3 -0.2
v 1.3 4.6 -0.2
v 1.4 4.3 -0.2
v 1.4 4.6 -0.2
v 1.3 4.3 -0.9
v 1.3 4.6 -0.9
v 1.4 4.3 -0.9
v 1.4 4.6 -0.9
v -1.1 1.5 -1.3
v -1.1 3.7 -1.3
v 1 1.5 -1.3
v 1 3.7 -1.3
v -1.4 0.2 -1.5
v -1.4 0.8 -1.5
v 1.2 0.2 -1.5
v 1.2 0.8 -1.5
v -1.4 0.2 1.5
v -1.4 0.8 1.5
v 1.2 0.2 1.5
v 1.2 0.8 1.5
v -1.1 1.5 1.3
v -1.1 3.7 1.3
v 1 1.5 1.3
v 1 3.7 1.3
v 1.3 4.3 0.9
v 1.3 4.6 0.9
v 1.4 4.3 0.9
v 1.4 4.6 0.9
v 1.3 4.3 0.2
v 1.3 4.6 0.2
v 1.4 4.3 0.2
v 1.4 4.6 0.2
v 1.3 4.3 -0.5
v 1.3 4.6 -0.5
v 1.4 4.3 -0.5
v 1.4 4.6 -0.5
v 1.3 4.3 -1.2
v 1.3 4.6 -1.2
v 1.4 4.3 -1.2
v 1.4 4.6 -1.2
v -1.3 1 -1.5
v -1.3 4.1 -1.5
v 1 1 -1.5
v 1 4.1 -1.5
v -1.6 0 -1.6
v -1.6 1 -1.6
v -1.5 4.1 -1.6
v -1.5 4.8 -1.6
v 1.2 0.2 -1.6
v 1.2 1 -1.6
v 1.3 4.1 -1.6
v 1.3 4.8 -1.6
v 1.6 0 -1.6
v 1.6 0.2 -1.6
v -1.6 0 1.6
v 1.6 0 1.6
v -1.6 0 -1.6
v 1.6 0 -1.6
v -1.4 0.8 1.5
v 1.2 0.8 1.5
v -1.4 0.8 -1.5
v 1.2 0.8 -1.5
v -1.1 3.7 1.3
v 1 3.7 1.3
v -1.1 3.7 -1.3
v 1 3.7 -1.3
v -1.5 4.1 1.6
v 1.3 4.1 1.6
v -1.3 4.1 1.5
v 1 4.1 1.5
v -1.3 4.1 -1.5
v 1 4.1 -1.5
v -1.5 4.1 -1.6
v 1.3 4.1 -1.6
v 1.3 4.3 1.2
v 1.4 4.3 1.2
v 1.3 4.3 0.9
v 1.4 4.3 0.9
v 1.3 4.3 0.5
v 1.4 4.3 0.5
v 1.3 4.3 0.2
v 1.4 4.3 0.2
v 1.3 4.3 -0.2
v 1.4 4.3 -0.2
v 1.3 4.3 -0.5
v 1.4 4.3 -0.5
v 1.3 4.3 -0.9
v 1.4 4.3 -0.9
v 1.3 4.3 -1.2
v 1.4 4.3 -1.2
v 1.2 0.2 1.6
v 1.6 0.2 1.6
v -1.4 0.2 1.5
v 1.2 0.2 1.5
v -1.4 0.2 -1.5
v 1.2 0.2 -1.5
v 1.2 0.2 -1.6
v 1.6 0.2 -1.6
v -1.6 1 1.6
v 1.2 1 1.6
v -1.3 1 1.5
v 1 1 1.5
v -1.3 1 -1.5
v 1 1 -1.5
v -1.6 1 -1.6
v 1.2 1 -1.6
v -1.1 1.5 1.3
v 1 1.5 1.3
v -1.1 1.5 -1.3
v 1 1.5 -1.3
v 1.3 4.6 1.2
v 1.4 4.6 1.2
v 1.3 4.6 0.9
v 1.4 4.6 0.9
v 1.3 4.6 0.5
v 1.4 4.6 0.5
v 1.3 4.6 0.2
v 1.4 4.6 0.2
v 1.3 4.6 -0.2
v 1.4 4.6 -0.2
v 1.3 4.6 -0.5
v 1.4 4.6 -0.5
v 1.3 4.6 -0.9
v 1.4 4.6 -0.9
v 1.3 4.6 -1.2
v 1.4 4.6 -1.2
v -1.5 4.8 1.6
v 1.3 4.8 1.6
v -1.5 4.8 -1.6
v 1.3 4.8 -1.6

# faces
f 3/3/1 2/3/1 1/3/1
f 4/3/1 2/3/1 3/3/1
f 7/2/1 6/2/1 5/2/1
f 8/2/1 6/2/1 7/2/1
f 11/2/1 10/2/1 9/2/1
f 12/2/1 10/2/1 11/2/1
f 13/3/2 14/3/2 15/3/2
f 15/3/2 14/3/2 16/3/2
f 17/2/2 18/2/2 19/2/2
f 19/2/2 18/2/2 20/2/2
f 21/2/2 22/2/2 23/2/2
f 23/2/2 22/2/2 24/2/2
f 21/2/2 23/2/2 25/2/2
f 24/2/2 22/2/2 26/2/2
f 21/2/2 25/2/2 27/2/2
f 25/2/2 26/2/2 27/2/2
f 26/2/2 22/2/2 28/2/2
f 27/2/2 26/2/2 28/2/2
f 29/3/2 30/3/2 33/3/2
f 31/3/2 32/3/2 34/3/2
f 29/3/2 33/3/2 35/3/2
f 33/3/2 34/3/2 35/3/2
f 34/3/2 32/3/2 36/3/2
f 35/3/2 34/3/2 36/3/2
f 37/2/2 38/2/2 39/2/2
f 39/2/2 38/2/2 40/2/2
f 40/2/2 38/2/2 41/2/2
f 41/2/2 38/2/2 42/2/2
f 42/2/2 38/2/2 43/2/2
f 43/2/2 38/2/2 44/2/2
f 44/2/2 38/2/2 45/2/2
f 45/2/2 38/2/2 46/2/2
f 39/3/2 40/3/2 47/3/2
f 47/3/2 40/3/2 48/3/2
f 41/3/2 42/3/2 49/3/2
f 49/3/2 42/3/2 50/3/2
f 43/3/2 44/3/2 51/3/2
f 51/3/2 44/3/2 52/3/2
f 45/3/2 46/3/2 53/3/2
f 53/3/2 46/3/2 54/3/2
f 39/3/2 47/3/2 55/3/2
f 48/3/2 40/3/2 56/3/2
f 41/3/2 49/3/2 57/3/2
f 50/3/2 42/3/2 58/3/2
f 43/3/2 51/3/2 59/3/2
f 52/3/2 44/3/2 60/3/2
f 45/3/2 53/3/2 61/3/2
f 54/3/2 46/3/2 62/3/2
f 37/2/2 39/2/2 63/2/2
f 39/3/2 55/3/2 63/3/2
f 55/3/2 56/3/2 63/3/2
f 40/2/2 41/2/2 64/2/2
f 63/3/2 56/3/2 64/3/2
f 56/3/2 40/3/2 64/3/2
f 41/3/2 57/3/2 65/3/2
f 64/2/2 41/2/2 65/2/2
f 57/3/2 58/3/2 65/3/2
f 42/2/2 43/2/2 66/2/2
f 65/3/2 58/3/2 66/3/2
f 58/3/2 42/3/2 66/3/2
f 43/3/2 59/3/2 67/3/2
f 66/2/2 43/2/2 67/2/2
f 59/3/2 60/3/2 67/3/2
f 44/2/2 45/2/2 68/2/2
f 67/3/2 60/3/2 68/3/2
f 60/3/2 44/3/2 68/3/2
f 61/3/2 62/3/2 69/3/2
f 68/2/2 45/2/2 69/2/2
f 45/3/2 61/3/2 69/3/2
f 46/2/2 38/2/2 70/2/2
f 69/3/2 62/3/2 70/3/2
f 62/3/2 46/3/2 70/3/2
f 67/2/2 68/2/2 71/2/2
f 68/2/2 69/2/2 71/2/2
f 69/2/2 70/2/2 71/2/2
f 37/2/2 63/2/2 71/2/2
f 64/2/2 65/2/2 71/2/2
f 63/2/2 64/2/2 71/2/2
f 65/2/2 66/2/2 71/2/2
f 66/2/2 67/2/2 71/2/2
f 70/2/2 38/2/2 72/2/2
f 71/2/2 70/2/2 72/2/2
f 73/1/2 74/1/2 81/1/2
f 81/1/2 74/1/2 82/1/2
f 75/1/2 76/1/2 83/1/2
f 83/1/2 76/1/2 84/1/2
f 77/1/2 78/1/2 85/1/2
f 85/1/2 78/1/2 86/1/2
f 79/1/2 80/1/2 87/1/2
f 87/1/2 80/1/2 88/1/2
f 89/3/2 90/3/2 91/3/2
f 91/3/2 90/3/2 92/3/2
f 97/3/3 94/3/3 93/3/3
f 98/3/3 94/3/3 97/3/3
f 99/2/3 96/2/3 95/2/3
f 100/2/3 96/2/3 99/2/3
f 101/3/3 97/3/3 93/3/3
f 102/3/3 97/3/3 101/3/3
f 105/2/3 104/2/3 103/2/3
f 106/2/3 104/2/3 105/2/3
f 109/1/3 108/1/3 107/1/3
f 110/1/3 108/1/3 109/1/3
f 113/1/3 112/1/3 111/1/3
f 114/1/3 112/1/3 113/1/3
f 117/1/3 116/1/3 115/1/3
f 118/1/3 116/1/3 117/1/3
f 121/1/3 120/1/3 119/1/3
f 122/1/3 120/1/3 121/1/3
f 125/2/3 124/2/3 123/2/3
f 126/2/3 124/2/3 125/2/3
f 129/3/3 128/3/3 127/3/3
f 130/3/3 128/3/3 129/3/3
f 131/3/4 132/3/4 133/3/4
f 133/3/4 132/3/4 134/3/4
f 135/2/4 136/2/4 137/2/4
f 137/2/4 136/2/4 138/2/4
f 139/1/4 140/1/4 141/1/4
f 141/1/4 140/1/4 142/1/4
f 143/1/4 144/1/4 145/1/4
f 145/1/4 144/1/4 146/1/4
f 147/1/4 148/1/4 149/1/4
f 149/1/4 148/1/4 150/1/4
f 151/1/4 152/1/4 153/1/4
f 153/1/4 152/1/4 154/1/4
f 155/2/4 156/2/4 157/2/4
f 157/2/4 156/2/4 158/2/4
f 159/3/4 160/3/4 163/3/4
f 163/3/4 160/3/4 164/3/4
f 161/2/4 162/2/4 165/2/4
f 165/2/4 162/2/4 166/2/4
f 159/3/4 163/3/4 167/3/4
f 167/3/4 163/3/4 168/3/4
f 171/3/5 170/3/5 169/3/5
f 172/3/5 170/3/5 171/3/5
f 175/3/5 174/3/5 173/3/5
f 176/3/5 174/3/5 175/3/5
f 179/2/5 178/2/5 177/2/5
f 180/2/5 178/2/5 179/2/5
f 183/2/5 182/2/5 181/2/5
f 184/2/5 182/2/5 183/2/5
f 185/2/5 183/2/5 181/2/5
f 186/2/5 182/2/5 184/2/5
f 187/2/5 185/2/5 181/2/5
f 187/2/5 186/2/5 185/2/5
f 188/2/5 182/2/5 186/2/5
f 188/2/5 186/2/5 187/2/5
f 191/1/5 190/1/5 189/1/5
f 192/1/5 190/1/5 191/1/5
f 195/1/5 194/1/5 193/1/5
f 196/1/5 194/1/5 195/1/5
f 199/1/5 198/1/5 197/1/5
f 200/1/5 198/1/5 199/1/5
f 203/1/5 202/1/5 201/1/5
f 204/1/5 202/1/5 203/1/5
f 205/3/6 206/3/6 208/3/6
f 207/3/6 208/3/6 209/3/6
f 208/3/6 206/3/6 210/3/6
f 209/3/6 208/3/6 210/3/6
f 210/3/6 206/3/6 211/3/6
f 211/3/6 206/3/6 212/3/6
f 213/3/6 214/3/6 215/3/6
f 215/3/6 214/3/6 216/3/6
f 213/3/6 215/3/6 217/3/6
f 216/3/6 214/3/6 218/3/6
f 213/3/6 217/3/6 219/3/6
f 217/3/6 218/3/6 219/3/6
f 218/3/6 214/3/6 220/3/6
f 219/3/6 218/3/6 220/3/6
f 221/2/6 222/2/6 223/2/6
f 223/2/6 222/2/6 224/2/6
f 225/1/6 226/1/6 227/1/6
f 227/1/6 226/1/6 228/1/6
f 229/1/6 230/1/6 231/1/6
f 231/1/6 230/1/6 232/1/6
f 233/1/6 234/1/6 235/1/6
f 235/1/6 234/1/6 236/1/6
f 237/1/6 238/1/6 239/1/6
f 239/1/6 238/1/6 240/1/6
f 241/2/6 242/2/6 243/2/6
f 243/2/6 242/2/6 244/2/6
