# MagicaVoxel @ Ephtracy

# group
o 

# material
mtllib SopaM.vox.mtl
usemtl palette

# normals
vn -1 0 0
vn 1 0 0
vn 0 0 1
vn 0 0 -1
vn 0 -1 0
vn 0 1 0

# texcoords
vt 0.369141 0.5
vt 0.958984 0.5
vt 0.962891 0.5

# verts
v -1.3 -1.3 0.4
v -1.3 -1.3 -0.4
v -1.3 -1.2 0.4
v -1.3 -1.2 -0.4
v -1.2 -1.3 0.6
v -1.2 -1.3 0.4
v -1.2 -1.3 -0.4
v -1.2 -1.3 -0.6
v -1.2 -1.2 0.6
v -1.2 -1.2 0.4
v -1.2 -1.2 -0.4
v -1.2 -1.2 -0.6
v -1.1 -1.4 0.4
v -1.1 -1.4 -0.4
v -1.1 -1.3 0.8
v -1.1 -1.3 0.6
v -1.1 -1.3 0.4
v -1.1 -1.3 -0.4
v -1.1 -1.3 -0.6
v -1.1 -1.3 -0.8
v -1.1 -1.2 0.8
v -1.1 -1.2 0.6
v -1.1 -1.2 -0.6
v -1.1 -1.2 -0.8
v -1 -1.4 0.6
v -1 -1.4 0.4
v -1 -1.4 -0.4
v -1 -1.4 -0.6
v -1 -1.3 0.9
v -1 -1.3 0.8
v -1 -1.3 0.6
v -1 -1.3 0.4
v -1 -1.3 -0.4
v -1 -1.3 -0.6
v -1 -1.3 -0.8
v -1 -1.3 -0.9
v -1 -1.2 0.9
v -1 -1.2 0.8
v -1 -1.2 -0.8
v -1 -1.2 -0.9
v -0.9 -1.4 0.8
v -0.9 -1.4 0.6
v -0.9 -1.4 -0.6
v -0.9 -1.4 -0.8
v -0.9 -1.3 1
v -0.9 -1.3 0.9
v -0.9 -1.3 0.8
v -0.9 -1.3 0.6
v -0.9 -1.3 -0.6
v -0.9 -1.3 -0.8
v -0.9 -1.3 -0.9
v -0.9 -1.3 -1
v -0.9 -1.2 1
v -0.9 -1.2 0.9
v -0.9 -1.2 -0.9
v -0.9 -1.2 -1
v -0.8 -1.4 0.9
v -0.8 -1.4 0.8
v -0.8 -1.4 -0.8
v -0.8 -1.4 -0.9
v -0.8 -1.3 1.1
v -0.8 -1.3 1
v -0.8 -1.3 0.9
v -0.8 -1.3 0.8
v -0.8 -1.3 -0.8
v -0.8 -1.3 -0.9
v -0.8 -1.3 -1
v -0.8 -1.3 -1.1
v -0.8 -1.2 1.1
v -0.8 -1.2 1
v -0.8 -1.2 -1
v -0.8 -1.2 -1.1
v -0.6 -1.4 1
v -0.6 -1.4 0.9
v -0.6 -1.4 -0.9
v -0.6 -1.4 -1
v -0.6 -1.3 1.2
v -0.6 -1.3 1.1
v -0.6 -1.3 1
v -0.6 -1.3 0.9
v -0.6 -1.3 -0.9
v -0.6 -1.3 -1
v -0.6 -1.3 -1.1
v -0.6 -1.3 -1.2
v -0.6 -1.2 1.2
v -0.6 -1.2 1.1
v -0.6 -1.2 -1.1
v -0.6 -1.2 -1.2
v -0.4 -1.4 1.1
v -0.4 -1.4 1
v -0.4 -1.4 -1
v -0.4 -1.4 -1.1
v -0.4 -1.3 1.3
v -0.4 -1.3 1.2
v -0.4 -1.3 1.1
v -0.4 -1.3 1
v -0.4 -1.3 -1
v -0.4 -1.3 -1.1
v -0.4 -1.3 -1.2
v -0.4 -1.3 -1.3
v -0.4 -1.2 1.3
v -0.4 -1.2 1.2
v -0.4 -1.2 -1.2
v -0.4 -1.2 -1.3
v 0.4 -1.4 1.1
v 0.4 -1.4 1
v 0.4 -1.4 -1
v 0.4 -1.4 -1.1
v 0.4 -1.3 1.3
v 0.4 -1.3 1.2
v 0.4 -1.3 1.1
v 0.4 -1.3 1
v 0.4 -1.3 -1
v 0.4 -1.3 -1.1
v 0.4 -1.3 -1.2
v 0.4 -1.3 -1.3
v 0.4 -1.2 1.3
v 0.4 -1.2 1.2
v 0.4 -1.2 -1.2
v 0.4 -1.2 -1.3
v 0.6 -1.4 1
v 0.6 -1.4 0.9
v 0.6 -1.4 -0.9
v 0.6 -1.4 -1
v 0.6 -1.3 1.2
v 0.6 -1.3 1.1
v 0.6 -1.3 1
v 0.6 -1.3 0.9
v 0.6 -1.3 -0.9
v 0.6 -1.3 -1
v 0.6 -1.3 -1.1
v 0.6 -1.3 -1.2
v 0.6 -1.2 1.2
v 0.6 -1.2 1.1
v 0.6 -1.2 -1.1
v 0.6 -1.2 -1.2
v 0.8 -1.4 0.9
v 0.8 -1.4 0.8
v 0.8 -1.4 -0.8
v 0.8 -1.4 -0.9
v 0.8 -1.3 1.1
v 0.8 -1.3 1
v 0.8 -1.3 0.9
v 0.8 -1.3 0.8
v 0.8 -1.3 -0.8
v 0.8 -1.3 -0.9
v 0.8 -1.3 -1
v 0.8 -1.3 -1.1
v 0.8 -1.2 1.1
v 0.8 -1.2 1
v 0.8 -1.2 -1
v 0.8 -1.2 -1.1
v 0.9 -1.4 0.8
v 0.9 -1.4 0.6
v 0.9 -1.4 -0.6
v 0.9 -1.4 -0.8
v 0.9 -1.3 1
v 0.9 -1.3 0.9
v 0.9 -1.3 0.8
v 0.9 -1.3 0.6
v 0.9 -1.3 -0.6
v 0.9 -1.3 -0.8
v 0.9 -1.3 -0.9
v 0.9 -1.3 -1
v 0.9 -1.2 1
v 0.9 -1.2 0.9
v 0.9 -1.2 -0.9
v 0.9 -1.2 -1
v 1 -1.4 0.6
v 1 -1.4 0.4
v 1 -1.4 -0.4
v 1 -1.4 -0.6
v 1 -1.3 0.9
v 1 -1.3 0.8
v 1 -1.3 0.6
v 1 -1.3 0.4
v 1 -1.3 -0.4
v 1 -1.3 -0.6
v 1 -1.3 -0.8
v 1 -1.3 -0.9
v 1 -1.2 0.9
v 1 -1.2 0.8
v 1 -1.2 -0.8
v 1 -1.2 -0.9
v 1.1 -1.4 0.4
v 1.1 -1.4 -0.4
v 1.1 -1.3 0.8
v 1.1 -1.3 0.6
v 1.1 -1.3 0.4
v 1.1 -1.3 -0.4
v 1.1 -1.3 -0.6
v 1.1 -1.3 -0.8
v 1.1 -1.2 0.8
v 1.1 -1.2 0.6
v 1.1 -1.2 -0.6
v 1.1 -1.2 -0.8
v 1.2 -1.3 0.6
v 1.2 -1.3 0.4
v 1.2 -1.3 -0.4
v 1.2 -1.3 -0.6
v 1.2 -1.2 0.6
v 1.2 -1.2 0.4
v 1.2 -1.2 -0.4
v 1.2 -1.2 -0.6
v 1.3 -1.3 0.4
v 1.3 -1.3 -0.4
v 1.3 -1.2 0.4
v 1.3 -1.2 -0.4
v -0.4 -1.3 1.3
v -0.4 -1.2 1.3
v 0.4 -1.3 1.3
v 0.4 -1.2 1.3
v -0.6 -1.3 1.2
v -0.6 -1.2 1.2
v -0.4 -1.3 1.2
v -0.4 -1.2 1.2
v 0.4 -1.3 1.2
v 0.4 -1.2 1.2
v 0.6 -1.3 1.2
v 0.6 -1.2 1.2
v -0.8 -1.3 1.1
v -0.8 -1.2 1.1
v -0.6 -1.3 1.1
v -0.6 -1.2 1.1
v -0.4 -1.4 1.1
v -0.4 -1.3 1.1
v 0.4 -1.4 1.1
v 0.4 -1.3 1.1
v 0.6 -1.3 1.1
v 0.6 -1.2 1.1
v 0.8 -1.3 1.1
v 0.8 -1.2 1.1
v -0.9 -1.3 1
v -0.9 -1.2 1
v -0.8 -1.3 1
v -0.8 -1.2 1
v -0.6 -1.4 1
v -0.6 -1.3 1
v -0.4 -1.4 1
v -0.4 -1.3 1
v 0.4 -1.4 1
v 0.4 -1.3 1
v 0.6 -1.4 1
v 0.6 -1.3 1
v 0.8 -1.3 1
v 0.8 -1.2 1
v 0.9 -1.3 1
v 0.9 -1.2 1
v -1 -1.3 0.9
v -1 -1.2 0.9
v -0.9 -1.3 0.9
v -0.9 -1.2 0.9
v -0.8 -1.4 0.9
v -0.8 -1.3 0.9
v -0.6 -1.4 0.9
v -0.6 -1.3 0.9
v 0.6 -1.4 0.9
v 0.6 -1.3 0.9
v 0.8 -1.4 0.9
v 0.8 -1.3 0.9
v 0.9 -1.3 0.9
v 0.9 -1.2 0.9
v 1 -1.3 0.9
v 1 -1.2 0.9
v -1.1 -1.3 0.8
v -1.1 -1.2 0.8
v -1 -1.3 0.8
v -1 -1.2 0.8
v -0.9 -1.4 0.8
v -0.9 -1.3 0.8
v -0.8 -1.4 0.8
v -0.8 -1.3 0.8
v 0.8 -1.4 0.8
v 0.8 -1.3 0.8
v 0.9 -1.4 0.8
v 0.9 -1.3 0.8
v 1 -1.3 0.8
v 1 -1.2 0.8
v 1.1 -1.3 0.8
v 1.1 -1.2 0.8
v -1.2 -1.3 0.6
v -1.2 -1.2 0.6
v -1.1 -1.3 0.6
v -1.1 -1.2 0.6
v -1 -1.4 0.6
v -1 -1.3 0.6
v -0.9 -1.4 0.6
v -0.9 -1.3 0.6
v 0.9 -1.4 0.6
v 0.9 -1.3 0.6
v 1 -1.4 0.6
v 1 -1.3 0.6
v 1.1 -1.3 0.6
v 1.1 -1.2 0.6
v 1.2 -1.3 0.6
v 1.2 -1.2 0.6
v -1.3 -1.3 0.4
v -1.3 -1.2 0.4
v -1.2 -1.3 0.4
v -1.2 -1.2 0.4
v -1.1 -1.4 0.4
v -1.1 -1.3 0.4
v -1 -1.4 0.4
v -1 -1.3 0.4
v 1 -1.4 0.4
v 1 -1.3 0.4
v 1.1 -1.4 0.4
v 1.1 -1.3 0.4
v 1.2 -1.3 0.4
v 1.2 -1.2 0.4
v 1.3 -1.3 0.4
v 1.3 -1.2 0.4
v -1.3 -1.3 -0.4
v -1.3 -1.2 -0.4
v -1.2 -1.3 -0.4
v -1.2 -1.2 -0.4
v -1.1 -1.4 -0.4
v -1.1 -1.3 -0.4
v -1 -1.4 -0.4
v -1 -1.3 -0.4
v 1 -1.4 -0.4
v 1 -1.3 -0.4
v 1.1 -1.4 -0.4
v 1.1 -1.3 -0.4
v 1.2 -1.3 -0.4
v 1.2 -1.2 -0.4
v 1.3 -1.3 -0.4
v 1.3 -1.2 -0.4
v -1.2 -1.3 -0.6
v -1.2 -1.2 -0.6
v -1.1 -1.3 -0.6
v -1.1 -1.2 -0.6
v -1 -1.4 -0.6
v -1 -1.3 -0.6
v -0.9 -1.4 -0.6
v -0.9 -1.3 -0.6
v 0.9 -1.4 -0.6
v 0.9 -1.3 -0.6
v 1 -1.4 -0.6
v 1 -1.3 -0.6
v 1.1 -1.3 -0.6
v 1.1 -1.2 -0.6
v 1.2 -1.3 -0.6
v 1.2 -1.2 -0.6
v -1.1 -1.3 -0.8
v -1.1 -1.2 -0.8
v -1 -1.3 -0.8
v -1 -1.2 -0.8
v -0.9 -1.4 -0.8
v -0.9 -1.3 -0.8
v -0.8 -1.4 -0.8
v -0.8 -1.3 -0.8
v 0.8 -1.4 -0.8
v 0.8 -1.3 -0.8
v 0.9 -1.4 -0.8
v 0.9 -1.3 -0.8
v 1 -1.3 -0.8
v 1 -1.2 -0.8
v 1.1 -1.3 -0.8
v 1.1 -1.2 -0.8
v -1 -1.3 -0.9
v -1 -1.2 -0.9
v -0.9 -1.3 -0.9
v -0.9 -1.2 -0.9
v -0.8 -1.4 -0.9
v -0.8 -1.3 -0.9
v -0.6 -1.4 -0.9
v -0.6 -1.3 -0.9
v 0.6 -1.4 -0.9
v 0.6 -1.3 -0.9
v 0.8 -1.4 -0.9
v 0.8 -1.3 -0.9
v 0.9 -1.3 -0.9
v 0.9 -1.2 -0.9
v 1 -1.3 -0.9
v 1 -1.2 -0.9
v -0.9 -1.3 -1
v -0.9 -1.2 -1
v -0.8 -1.3 -1
v -0.8 -1.2 -1
v -0.6 -1.4 -1
v -0.6 -1.3 -1
v -0.4 -1.4 -1
v -0.4 -1.3 -1
v 0.4 -1.4 -1
v 0.4 -1.3 -1
v 0.6 -1.4 -1
v 0.6 -1.3 -1
v 0.8 -1.3 -1
v 0.8 -1.2 -1
v 0.9 -1.3 -1
v 0.9 -1.2 -1
v -0.8 -1.3 -1.1
v -0.8 -1.2 -1.1
v -0.6 -1.3 -1.1
v -0.6 -1.2 -1.1
v -0.4 -1.4 -1.1
v -0.4 -1.3 -1.1
v 0.4 -1.4 -1.1
v 0.4 -1.3 -1.1
v 0.6 -1.3 -1.1
v 0.6 -1.2 -1.1
v 0.8 -1.3 -1.1
v 0.8 -1.2 -1.1
v -0.6 -1.3 -1.2
v -0.6 -1.2 -1.2
v -0.4 -1.3 -1.2
v -0.4 -1.2 -1.2
v 0.4 -1.3 -1.2
v 0.4 -1.2 -1.2
v 0.6 -1.3 -1.2
v 0.6 -1.2 -1.2
v -0.4 -1.3 -1.3
v -0.4 -1.2 -1.3
v 0.4 -1.3 -1.3
v 0.4 -1.2 -1.3
v -0.4 -1.4 1.1
v 0.4 -1.4 1.1
v -0.6 -1.4 1
v -0.4 -1.4 1
v 0.4 -1.4 1
v 0.6 -1.4 1
v -0.8 -1.4 0.9
v -0.6 -1.4 0.9
v 0.6 -1.4 0.9
v 0.8 -1.4 0.9
v -0.9 -1.4 0.8
v -0.8 -1.4 0.8
v 0.8 -1.4 0.8
v 0.9 -1.4 0.8
v -1 -1.4 0.6
v -0.9 -1.4 0.6
v 0.9 -1.4 0.6
v 1 -1.4 0.6
v -1.1 -1.4 0.4
v -1 -1.4 0.4
v 1 -1.4 0.4
v 1.1 -1.4 0.4
v -1.1 -1.4 -0.4
v -1 -1.4 -0.4
v 1 -1.4 -0.4
v 1.1 -1.4 -0.4
v -1 -1.4 -0.6
v -0.9 -1.4 -0.6
v 0.9 -1.4 -0.6
v 1 -1.4 -0.6
v -0.9 -1.4 -0.8
v -0.8 -1.4 -0.8
v 0.8 -1.4 -0.8
v 0.9 -1.4 -0.8
v -0.8 -1.4 -0.9
v -0.6 -1.4 -0.9
v 0.6 -1.4 -0.9
v 0.8 -1.4 -0.9
v -0.6 -1.4 -1
v -0.4 -1.4 -1
v 0.4 -1.4 -1
v 0.6 -1.4 -1
v -0.4 -1.4 -1.1
v 0.4 -1.4 -1.1
v -0.4 -1.3 1.3
v 0.4 -1.3 1.3
v -0.6 -1.3 1.2
v -0.4 -1.3 1.2
v 0.4 -1.3 1.2
v 0.6 -1.3 1.2
v -0.8 -1.3 1.1
v -0.6 -1.3 1.1
v -0.4 -1.3 1.1
v 0.4 -1.3 1.1
v 0.6 -1.3 1.1
v 0.8 -1.3 1.1
v -0.9 -1.3 1
v -0.8 -1.3 1
v -0.6 -1.3 1
v -0.4 -1.3 1
v 0.4 -1.3 1
v 0.6 -1.3 1
v 0.8 -1.3 1
v 0.9 -1.3 1
v -1 -1.3 0.9
v -0.9 -1.3 0.9
v -0.8 -1.3 0.9
v -0.6 -1.3 0.9
v 0.6 -1.3 0.9
v 0.8 -1.3 0.9
v 0.9 -1.3 0.9
v 1 -1.3 0.9
v -1.1 -1.3 0.8
v -1 -1.3 0.8
v -0.9 -1.3 0.8
v -0.8 -1.3 0.8
v 0.8 -1.3 0.8
v 0.9 -1.3 0.8
v 1 -1.3 0.8
v 1.1 -1.3 0.8
v -1.2 -1.3 0.6
v -1.1 -1.3 0.6
v -1 -1.3 0.6
v -0.9 -1.3 0.6
v 0.9 -1.3 0.6
v 1 -1.3 0.6
v 1.1 -1.3 0.6
v 1.2 -1.3 0.6
v -1.3 -1.3 0.4
v -1.2 -1.3 0.4
v -1.1 -1.3 0.4
v -1 -1.3 0.4
v 1 -1.3 0.4
v 1.1 -1.3 0.4
v 1.2 -1.3 0.4
v 1.3 -1.3 0.4
v -1.3 -1.3 -0.4
v -1.2 -1.3 -0.4
v -1.1 -1.3 -0.4
v -1 -1.3 -0.4
v 1 -1.3 -0.4
v 1.1 -1.3 -0.4
v 1.2 -1.3 -0.4
v 1.3 -1.3 -0.4
v -1.2 -1.3 -0.6
v -1.1 -1.3 -0.6
v -1 -1.3 -0.6
v -0.9 -1.3 -0.6
v 0.9 -1.3 -0.6
v 1 -1.3 -0.6
v 1.1 -1.3 -0.6
v 1.2 -1.3 -0.6
v -1.1 -1.3 -0.8
v -1 -1.3 -0.8
v -0.9 -1.3 -0.8
v -0.8 -1.3 -0.8
v 0.8 -1.3 -0.8
v 0.9 -1.3 -0.8
v 1 -1.3 -0.8
v 1.1 -1.3 -0.8
v -1 -1.3 -0.9
v -0.9 -1.3 -0.9
v -0.8 -1.3 -0.9
v -0.6 -1.3 -0.9
v 0.6 -1.3 -0.9
v 0.8 -1.3 -0.9
v 0.9 -1.3 -0.9
v 1 -1.3 -0.9
v -0.9 -1.3 -1
v -0.8 -1.3 -1
v -0.6 -1.3 -1
v -0.4 -1.3 -1
v 0.4 -1.3 -1
v 0.6 -1.3 -1
v 0.8 -1.3 -1
v 0.9 -1.3 -1
v -0.8 -1.3 -1.1
v -0.6 -1.3 -1.1
v -0.4 -1.3 -1.1
v 0.4 -1.3 -1.1
v 0.6 -1.3 -1.1
v 0.8 -1.3 -1.1
v -0.6 -1.3 -1.2
v -0.4 -1.3 -1.2
v 0.4 -1.3 -1.2
v 0.6 -1.3 -1.2
v -0.4 -1.3 -1.3
v 0.4 -1.3 -1.3
v -0.4 -1.2 1.3
v 0.4 -1.2 1.3
v -0.6 -1.2 1.2
v -0.4 -1.2 1.2
v 0.4 -1.2 1.2
v 0.6 -1.2 1.2
v -0.8 -1.2 1.1
v -0.6 -1.2 1.1
v 0.6 -1.2 1.1
v 0.8 -1.2 1.1
v -0.9 -1.2 1
v -0.8 -1.2 1
v -0.4 -1.2 1
v 0.4 -1.2 1
v 0.8 -1.2 1
v 0.9 -1.2 1
v -1 -1.2 0.9
v -0.9 -1.2 0.9
v -0.6 -1.2 0.9
v -0.4 -1.2 0.9
v 0.4 -1.2 0.9
v 0.6 -1.2 0.9
v 0.9 -1.2 0.9
v 1 -1.2 0.9
v -1.1 -1.2 0.8
v -1 -1.2 0.8
v -0.7 -1.2 0.8
v -0.6 -1.2 0.8
v 0.6 -1.2 0.8
v 0.7 -1.2 0.8
v 1 -1.2 0.8
v 1.1 -1.2 0.8
v -0.8 -1.2 0.7
v -0.7 -1.2 0.7
v 0.7 -1.2 0.7
v 0.8 -1.2 0.7
v -1.2 -1.2 0.6
v -1.1 -1.2 0.6
v -0.9 -1.2 0.6
v -0.8 -1.2 0.6
v 0.8 -1.2 0.6
v 0.9 -1.2 0.6
v 1.1 -1.2 0.6
v 1.2 -1.2 0.6
v -1.3 -1.2 0.4
v -1.2 -1.2 0.4
v -1 -1.2 0.4
v -0.9 -1.2 0.4
v 0.9 -1.2 0.4
v 1 -1.2 0.4
v 1.2 -1.2 0.4
v 1.3 -1.2 0.4
v -1.3 -1.2 -0.4
v -1.2 -1.2 -0.4
v -1 -1.2 -0.4
v -0.9 -1.2 -0.4
v 0.9 -1.2 -0.4
v 1 -1.2 -0.4
v 1.2 -1.2 -0.4
v 1.3 -1.2 -0.4
v -1.2 -1.2 -0.6
v -1.1 -1.2 -0.6
v -0.9 -1.2 -0.6
v -0.8 -1.2 -0.6
v 0.8 -1.2 -0.6
v 0.9 -1.2 -0.6
v 1.1 -1.2 -0.6
v 1.2 -1.2 -0.6
v -0.8 -1.2 -0.7
v -0.7 -1.2 -0.7
v 0.7 -1.2 -0.7
v 0.8 -1.2 -0.7
v -1.1 -1.2 -0.8
v -1 -1.2 -0.8
v -0.7 -1.2 -0.8
v -0.6 -1.2 -0.8
v 0.6 -1.2 -0.8
v 0.7 -1.2 -0.8
v 1 -1.2 -0.8
v 1.1 -1.2 -0.8
v -1 -1.2 -0.9
v -0.9 -1.2 -0.9
v -0.6 -1.2 -0.9
v -0.4 -1.2 -0.9
v 0.4 -1.2 -0.9
v 0.6 -1.2 -0.9
v 0.9 -1.2 -0.9
v 1 -1.2 -0.9
v -0.9 -1.2 -1
v -0.8 -1.2 -1
v -0.4 -1.2 -1
v 0.4 -1.2 -1
v 0.8 -1.2 -1
v 0.9 -1.2 -1
v -0.8 -1.2 -1.1
v -0.6 -1.2 -1.1
v 0.6 -1.2 -1.1
v 0.8 -1.2 -1.1
v -0.6 -1.2 -1.2
v -0.4 -1.2 -1.2
v 0.4 -1.2 -1.2
v 0.6 -1.2 -1.2
v -0.4 -1.2 -1.3
v 0.4 -1.2 -1.3

# faces
f 3/2/1 2/2/1 1/2/1
f 4/2/1 2/2/1 3/2/1
f 9/2/1 6/2/1 5/2/1
f 10/2/1 6/2/1 9/2/1
f 11/2/1 8/2/1 7/2/1
f 12/2/1 8/2/1 11/2/1
f 17/3/1 14/3/1 13/3/1
f 18/3/1 14/3/1 17/3/1
f 21/2/1 16/2/1 15/2/1
f 22/2/1 16/2/1 21/2/1
f 23/2/1 20/2/1 19/2/1
f 24/2/1 20/2/1 23/2/1
f 31/3/1 26/3/1 25/3/1
f 32/3/1 26/3/1 31/3/1
f 33/3/1 28/3/1 27/3/1
f 34/3/1 28/3/1 33/3/1
f 37/2/1 30/2/1 29/2/1
f 38/2/1 30/2/1 37/2/1
f 39/2/1 36/2/1 35/2/1
f 40/2/1 36/2/1 39/2/1
f 47/3/1 42/3/1 41/3/1
f 48/3/1 42/3/1 47/3/1
f 49/3/1 44/3/1 43/3/1
f 50/3/1 44/3/1 49/3/1
f 53/2/1 46/2/1 45/2/1
f 54/2/1 46/2/1 53/2/1
f 55/2/1 52/2/1 51/2/1
f 56/2/1 52/2/1 55/2/1
f 63/3/1 58/3/1 57/3/1
f 64/3/1 58/3/1 63/3/1
f 65/3/1 60/3/1 59/3/1
f 66/3/1 60/3/1 65/3/1
f 69/2/1 62/2/1 61/2/1
f 70/2/1 62/2/1 69/2/1
f 71/2/1 68/2/1 67/2/1
f 72/2/1 68/2/1 71/2/1
f 79/3/1 74/3/1 73/3/1
f 80/3/1 74/3/1 79/3/1
f 81/3/1 76/3/1 75/3/1
f 82/3/1 76/3/1 81/3/1
f 85/2/1 78/2/1 77/2/1
f 86/2/1 78/2/1 85/2/1
f 87/2/1 84/2/1 83/2/1
f 88/2/1 84/2/1 87/2/1
f 95/3/1 90/3/1 89/3/1
f 96/3/1 90/3/1 95/3/1
f 97/3/1 92/3/1 91/3/1
f 98/3/1 92/3/1 97/3/1
f 101/2/1 94/2/1 93/2/1
f 102/2/1 94/2/1 101/2/1
f 103/2/1 100/2/1 99/2/1
f 104/2/1 100/2/1 103/2/1
f 105/3/2 106/3/2 111/3/2
f 111/3/2 106/3/2 112/3/2
f 107/3/2 108/3/2 113/3/2
f 113/3/2 108/3/2 114/3/2
f 109/2/2 110/2/2 117/2/2
f 117/2/2 110/2/2 118/2/2
f 115/2/2 116/2/2 119/2/2
f 119/2/2 116/2/2 120/2/2
f 121/3/2 122/3/2 127/3/2
f 127/3/2 122/3/2 128/3/2
f 123/3/2 124/3/2 129/3/2
f 129/3/2 124/3/2 130/3/2
f 125/2/2 126/2/2 133/2/2
f 133/2/2 126/2/2 134/2/2
f 131/2/2 132/2/2 135/2/2
f 135/2/2 132/2/2 136/2/2
f 137/3/2 138/3/2 143/3/2
f 143/3/2 138/3/2 144/3/2
f 139/3/2 140/3/2 145/3/2
f 145/3/2 140/3/2 146/3/2
f 141/2/2 142/2/2 149/2/2
f 149/2/2 142/2/2 150/2/2
f 147/2/2 148/2/2 151/2/2
f 151/2/2 148/2/2 152/2/2
f 153/3/2 154/3/2 159/3/2
f 159/3/2 154/3/2 160/3/2
f 155/3/2 156/3/2 161/3/2
f 161/3/2 156/3/2 162/3/2
f 157/2/2 158/2/2 165/2/2
f 165/2/2 158/2/2 166/2/2
f 163/2/2 164/2/2 167/2/2
f 167/2/2 164/2/2 168/2/2
f 169/3/2 170/3/2 175/3/2
f 175/3/2 170/3/2 176/3/2
f 171/3/2 172/3/2 177/3/2
f 177/3/2 172/3/2 178/3/2
f 173/2/2 174/2/2 181/2/2
f 181/2/2 174/2/2 182/2/2
f 179/2/2 180/2/2 183/2/2
f 183/2/2 180/2/2 184/2/2
f 185/3/2 186/3/2 189/3/2
f 189/3/2 186/3/2 190/3/2
f 187/2/2 188/2/2 193/2/2
f 193/2/2 188/2/2 194/2/2
f 191/2/2 192/2/2 195/2/2
f 195/2/2 192/2/2 196/2/2
f 197/2/2 198/2/2 201/2/2
f 201/2/2 198/2/2 202/2/2
f 199/2/2 200/2/2 203/2/2
f 203/2/2 200/2/2 204/2/2
f 205/2/2 206/2/2 207/2/2
f 207/2/2 206/2/2 208/2/2
f 211/2/3 210/2/3 209/2/3
f 212/2/3 210/2/3 211/2/3
f 215/2/3 214/2/3 213/2/3
f 216/2/3 214/2/3 215/2/3
f 219/2/3 218/2/3 217/2/3
f 220/2/3 218/2/3 219/2/3
f 223/2/3 222/2/3 221/2/3
f 224/2/3 222/2/3 223/2/3
f 227/3/3 226/3/3 225/3/3
f 228/3/3 226/3/3 227/3/3
f 231/2/3 230/2/3 229/2/3
f 232/2/3 230/2/3 231/2/3
f 235/2/3 234/2/3 233/2/3
f 236/2/3 234/2/3 235/2/3
f 239/3/3 238/3/3 237/3/3
f 240/3/3 238/3/3 239/3/3
f 243/3/3 242/3/3 241/3/3
f 244/3/3 242/3/3 243/3/3
f 247/2/3 246/2/3 245/2/3
f 248/2/3 246/2/3 247/2/3
f 251/2/3 250/2/3 249/2/3
f 252/2/3 250/2/3 251/2/3
f 255/3/3 254/3/3 253/3/3
f 256/3/3 254/3/3 255/3/3
f 259/3/3 258/3/3 257/3/3
f 260/3/3 258/3/3 259/3/3
f 263/2/3 262/2/3 261/2/3
f 264/2/3 262/2/3 263/2/3
f 267/2/3 266/2/3 265/2/3
f 268/2/3 266/2/3 267/2/3
f 271/3/3 270/3/3 269/3/3
f 272/3/3 270/3/3 271/3/3
f 275/3/3 274/3/3 273/3/3
f 276/3/3 274/3/3 275/3/3
f 279/2/3 278/2/3 277/2/3
f 280/2/3 278/2/3 279/2/3
f 283/2/3 282/2/3 281/2/3
f 284/2/3 282/2/3 283/2/3
f 287/3/3 286/3/3 285/3/3
f 288/3/3 286/3/3 287/3/3
f 291/3/3 290/3/3 289/3/3
f 292/3/3 290/3/3 291/3/3
f 295/2/3 294/2/3 293/2/3
f 296/2/3 294/2/3 295/2/3
f 299/2/3 298/2/3 297/2/3
f 300/2/3 298/2/3 299/2/3
f 303/3/3 302/3/3 301/3/3
f 304/3/3 302/3/3 303/3/3
f 307/3/3 306/3/3 305/3/3
f 308/3/3 306/3/3 307/3/3
f 311/2/3 310/2/3 309/2/3
f 312/2/3 310/2/3 311/2/3
f 313/2/4 314/2/4 315/2/4
f 315/2/4 314/2/4 316/2/4
f 317/3/4 318/3/4 319/3/4
f 319/3/4 318/3/4 320/3/4
f 321/3/4 322/3/4 323/3/4
f 323/3/4 322/3/4 324/3/4
f 325/2/4 326/2/4 327/2/4
f 327/2/4 326/2/4 328/2/4
f 329/2/4 330/2/4 331/2/4
f 331/2/4 330/2/4 332/2/4
f 333/3/4 334/3/4 335/3/4
f 335/3/4 334/3/4 336/3/4
f 337/3/4 338/3/4 339/3/4
f 339/3/4 338/3/4 340/3/4
f 341/2/4 342/2/4 343/2/4
f 343/2/4 342/2/4 344/2/4
f 345/2/4 346/2/4 347/2/4
f 347/2/4 346/2/4 348/2/4
f 349/3/4 350/3/4 351/3/4
f 351/3/4 350/3/4 352/3/4
f 353/3/4 354/3/4 355/3/4
f 355/3/4 354/3/4 356/3/4
f 357/2/4 358/2/4 359/2/4
f 359/2/4 358/2/4 360/2/4
f 361/2/4 362/2/4 363/2/4
f 363/2/4 362/2/4 364/2/4
f 365/3/4 366/3/4 367/3/4
f 367/3/4 366/3/4 368/3/4
f 369/3/4 370/3/4 371/3/4
f 371/3/4 370/3/4 372/3/4
f 373/2/4 374/2/4 375/2/4
f 375/2/4 374/2/4 376/2/4
f 377/2/4 378/2/4 379/2/4
f 379/2/4 378/2/4 380/2/4
f 381/3/4 382/3/4 383/3/4
f 383/3/4 382/3/4 384/3/4
f 385/3/4 386/3/4 387/3/4
f 387/3/4 386/3/4 388/3/4
f 389/2/4 390/2/4 391/2/4
f 391/2/4 390/2/4 392/2/4
f 393/2/4 394/2/4 395/2/4
f 395/2/4 394/2/4 396/2/4
f 397/3/4 398/3/4 399/3/4
f 399/3/4 398/3/4 400/3/4
f 401/2/4 402/2/4 403/2/4
f 403/2/4 402/2/4 404/2/4
f 405/2/4 406/2/4 407/2/4
f 407/2/4 406/2/4 408/2/4
f 409/2/4 410/2/4 411/2/4
f 411/2/4 410/2/4 412/2/4
f 413/2/4 414/2/4 415/2/4
f 415/2/4 414/2/4 416/2/4
f 420/3/5 418/3/5 417/3/5
f 421/3/5 418/3/5 420/3/5
f 424/3/5 420/3/5 419/3/5
f 424/3/5 422/3/5 421/3/5
f 424/3/5 421/3/5 420/3/5
f 425/3/5 422/3/5 424/3/5
f 428/3/5 424/3/5 423/3/5
f 428/3/5 426/3/5 425/3/5
f 428/3/5 425/3/5 424/3/5
f 429/3/5 426/3/5 428/3/5
f 432/3/5 428/3/5 427/3/5
f 432/3/5 430/3/5 429/3/5
f 432/3/5 429/3/5 428/3/5
f 433/3/5 430/3/5 432/3/5
f 436/3/5 432/3/5 431/3/5
f 436/3/5 434/3/5 433/3/5
f 436/3/5 433/3/5 432/3/5
f 437/3/5 434/3/5 436/3/5
f 439/3/5 436/3/5 435/3/5
f 439/3/5 438/3/5 437/3/5
f 439/3/5 437/3/5 436/3/5
f 440/3/5 438/3/5 439/3/5
f 441/3/5 438/3/5 440/3/5
f 442/3/5 438/3/5 441/3/5
f 443/3/5 441/3/5 440/3/5
f 444/3/5 441/3/5 443/3/5
f 445/3/5 441/3/5 444/3/5
f 446/3/5 441/3/5 445/3/5
f 447/3/5 445/3/5 444/3/5
f 448/3/5 445/3/5 447/3/5
f 449/3/5 445/3/5 448/3/5
f 450/3/5 445/3/5 449/3/5
f 451/3/5 449/3/5 448/3/5
f 452/3/5 449/3/5 451/3/5
f 453/3/5 449/3/5 452/3/5
f 454/3/5 449/3/5 453/3/5
f 455/3/5 453/3/5 452/3/5
f 456/3/5 453/3/5 455/3/5
f 457/3/5 453/3/5 456/3/5
f 458/3/5 453/3/5 457/3/5
f 459/3/5 457/3/5 456/3/5
f 460/3/5 457/3/5 459/3/5
f 464/2/5 462/2/5 461/2/5
f 465/2/5 462/2/5 464/2/5
f 468/2/5 464/2/5 463/2/5
f 468/2/5 466/2/5 465/2/5
f 468/2/5 465/2/5 464/2/5
f 469/2/5 466/2/5 468/2/5
f 470/2/5 466/2/5 469/2/5
f 471/2/5 466/2/5 470/2/5
f 474/2/5 468/2/5 467/2/5
f 474/2/5 469/2/5 468/2/5
f 475/2/5 469/2/5 474/2/5
f 476/2/5 469/2/5 475/2/5
f 477/2/5 471/2/5 470/2/5
f 477/2/5 472/2/5 471/2/5
f 478/2/5 472/2/5 477/2/5
f 479/2/5 472/2/5 478/2/5
f 482/2/5 475/2/5 474/2/5
f 482/2/5 474/2/5 473/2/5
f 483/2/5 475/2/5 482/2/5
f 484/2/5 475/2/5 483/2/5
f 485/2/5 480/2/5 479/2/5
f 485/2/5 479/2/5 478/2/5
f 486/2/5 480/2/5 485/2/5
f 487/2/5 480/2/5 486/2/5
f 490/2/5 483/2/5 482/2/5
f 490/2/5 482/2/5 481/2/5
f 491/2/5 483/2/5 490/2/5
f 492/2/5 483/2/5 491/2/5
f 493/2/5 488/2/5 487/2/5
f 493/2/5 487/2/5 486/2/5
f 494/2/5 488/2/5 493/2/5
f 495/2/5 488/2/5 494/2/5
f 498/2/5 491/2/5 490/2/5
f 498/2/5 490/2/5 489/2/5
f 499/2/5 491/2/5 498/2/5
f 500/2/5 491/2/5 499/2/5
f 501/2/5 496/2/5 495/2/5
f 501/2/5 495/2/5 494/2/5
f 502/2/5 496/2/5 501/2/5
f 503/2/5 496/2/5 502/2/5
f 506/2/5 499/2/5 498/2/5
f 506/2/5 498/2/5 497/2/5
f 507/2/5 499/2/5 506/2/5
f 508/2/5 499/2/5 507/2/5
f 509/2/5 504/2/5 503/2/5
f 509/2/5 503/2/5 502/2/5
f 510/2/5 504/2/5 509/2/5
f 511/2/5 504/2/5 510/2/5
f 513/2/5 507/2/5 506/2/5
f 513/2/5 506/2/5 505/2/5
f 514/2/5 507/2/5 513/2/5
f 515/2/5 507/2/5 514/2/5
f 518/2/5 512/2/5 511/2/5
f 518/2/5 511/2/5 510/2/5
f 519/2/5 512/2/5 518/2/5
f 520/2/5 512/2/5 519/2/5
f 521/2/5 516/2/5 515/2/5
f 521/2/5 515/2/5 514/2/5
f 522/2/5 516/2/5 521/2/5
f 523/2/5 516/2/5 522/2/5
f 526/2/5 519/2/5 518/2/5
f 526/2/5 518/2/5 517/2/5
f 527/2/5 519/2/5 526/2/5
f 528/2/5 519/2/5 527/2/5
f 529/2/5 524/2/5 523/2/5
f 529/2/5 523/2/5 522/2/5
f 530/2/5 524/2/5 529/2/5
f 531/2/5 524/2/5 530/2/5
f 534/2/5 527/2/5 526/2/5
f 534/2/5 526/2/5 525/2/5
f 535/2/5 527/2/5 534/2/5
f 536/2/5 527/2/5 535/2/5
f 537/2/5 532/2/5 531/2/5
f 537/2/5 531/2/5 530/2/5
f 538/2/5 532/2/5 537/2/5
f 539/2/5 532/2/5 538/2/5
f 542/2/5 535/2/5 534/2/5
f 542/2/5 534/2/5 533/2/5
f 543/2/5 535/2/5 542/2/5
f 544/2/5 535/2/5 543/2/5
f 545/2/5 540/2/5 539/2/5
f 545/2/5 539/2/5 538/2/5
f 546/2/5 540/2/5 545/2/5
f 547/2/5 540/2/5 546/2/5
f 550/2/5 543/2/5 542/2/5
f 550/2/5 542/2/5 541/2/5
f 551/2/5 543/2/5 550/2/5
f 552/2/5 543/2/5 551/2/5
f 553/2/5 548/2/5 547/2/5
f 553/2/5 547/2/5 546/2/5
f 554/2/5 548/2/5 553/2/5
f 555/2/5 548/2/5 554/2/5
f 556/2/5 551/2/5 550/2/5
f 556/2/5 550/2/5 549/2/5
f 557/2/5 551/2/5 556/2/5
f 558/2/5 551/2/5 557/2/5
f 559/2/5 555/2/5 554/2/5
f 559/2/5 557/2/5 556/2/5
f 559/2/5 556/2/5 555/2/5
f 560/2/5 557/2/5 559/2/5
f 561/2/5 557/2/5 560/2/5
f 562/2/5 557/2/5 561/2/5
f 563/2/5 561/2/5 560/2/5
f 564/2/5 561/2/5 563/2/5
f 565/2/6 566/2/6 568/2/6
f 568/2/6 566/2/6 569/2/6
f 567/2/6 568/2/6 572/2/6
f 569/2/6 570/2/6 572/2/6
f 568/2/6 569/2/6 572/2/6
f 572/2/6 570/2/6 573/2/6
f 571/2/6 572/2/6 576/2/6
f 573/2/6 574/2/6 576/2/6
f 572/2/6 573/2/6 576/2/6
f 576/2/6 574/2/6 577/2/6
f 577/2/6 574/2/6 578/2/6
f 578/2/6 574/2/6 579/2/6
f 575/2/6 576/2/6 582/2/6
f 576/2/6 577/2/6 582/2/6
f 582/2/6 577/2/6 583/2/6
f 577/1/6 578/1/6 584/1/6
f 583/2/6 577/2/6 584/2/6
f 579/2/6 580/2/6 585/2/6
f 584/1/6 578/1/6 585/1/6
f 578/2/6 579/2/6 585/2/6
f 585/2/6 580/2/6 586/2/6
f 586/2/6 580/2/6 587/2/6
f 581/2/6 582/2/6 590/2/6
f 582/2/6 583/2/6 590/2/6
f 590/2/6 583/2/6 591/2/6
f 583/1/6 584/1/6 592/1/6
f 591/2/6 583/2/6 592/2/6
f 584/1/6 585/1/6 592/1/6
f 585/1/6 586/1/6 592/1/6
f 587/2/6 588/2/6 593/2/6
f 592/1/6 586/1/6 593/1/6
f 586/2/6 587/2/6 593/2/6
f 593/2/6 588/2/6 594/2/6
f 594/2/6 588/2/6 595/2/6
f 590/2/6 591/2/6 597/2/6
f 589/2/6 590/2/6 597/2/6
f 591/1/6 592/1/6 598/1/6
f 597/2/6 591/2/6 598/2/6
f 592/1/6 593/1/6 598/1/6
f 593/1/6 594/1/6 598/1/6
f 595/2/6 596/2/6 599/2/6
f 598/1/6 594/1/6 599/1/6
f 594/2/6 595/2/6 599/2/6
f 599/2/6 596/2/6 600/2/6
f 589/2/6 597/2/6 602/2/6
f 602/2/6 597/2/6 603/2/6
f 597/1/6 598/1/6 604/1/6
f 603/2/6 597/2/6 604/2/6
f 598/1/6 599/1/6 604/1/6
f 599/1/6 600/1/6 604/1/6
f 600/2/6 596/2/6 605/2/6
f 604/1/6 600/1/6 605/1/6
f 605/2/6 596/2/6 606/2/6
f 606/2/6 596/2/6 607/2/6
f 602/2/6 603/2/6 610/2/6
f 601/2/6 602/2/6 610/2/6
f 610/2/6 603/2/6 611/2/6
f 603/1/6 604/1/6 612/1/6
f 611/2/6 603/2/6 612/2/6
f 604/1/6 605/1/6 612/1/6
f 605/1/6 606/1/6 612/1/6
f 607/2/6 608/2/6 613/2/6
f 612/1/6 606/1/6 613/1/6
f 606/2/6 607/2/6 613/2/6
f 613/2/6 608/2/6 614/2/6
f 614/2/6 608/2/6 615/2/6
f 610/2/6 611/2/6 617/2/6
f 609/2/6 610/2/6 617/2/6
f 617/2/6 611/2/6 618/2/6
f 611/1/6 612/1/6 619/1/6
f 618/2/6 611/2/6 619/2/6
f 612/1/6 613/1/6 619/1/6
f 613/1/6 614/1/6 619/1/6
f 619/1/6 614/1/6 620/1/6
f 620/1/6 614/1/6 621/1/6
f 615/2/6 616/2/6 622/2/6
f 621/1/6 614/1/6 622/1/6
f 614/2/6 615/2/6 622/2/6
f 622/2/6 616/2/6 623/2/6
f 623/2/6 616/2/6 624/2/6
f 619/2/6 620/2/6 625/2/6
f 618/2/6 619/2/6 625/2/6
f 625/2/6 620/2/6 626/2/6
f 620/1/6 621/1/6 627/1/6
f 626/2/6 620/2/6 627/2/6
f 627/1/6 621/1/6 628/1/6
f 628/1/6 621/1/6 629/1/6
f 622/2/6 623/2/6 630/2/6
f 629/1/6 621/1/6 630/1/6
f 621/2/6 622/2/6 630/2/6
f 630/2/6 623/2/6 631/2/6
f 631/2/6 623/2/6 632/2/6
f 628/1/6 629/1/6 633/1/6
f 627/2/6 628/2/6 633/2/6
f 626/2/6 627/2/6 633/2/6
f 633/1/6 629/1/6 634/1/6
f 634/1/6 629/1/6 635/1/6
f 630/2/6 631/2/6 636/2/6
f 635/1/6 629/1/6 636/1/6
f 629/2/6 630/2/6 636/2/6
f 633/2/6 634/2/6 637/2/6
f 626/2/6 633/2/6 637/2/6
f 637/2/6 634/2/6 638/2/6
f 634/1/6 635/1/6 639/1/6
f 638/2/6 634/2/6 639/2/6
f 639/1/6 635/1/6 640/1/6
f 640/1/6 635/1/6 641/1/6
f 635/2/6 636/2/6 642/2/6
f 641/1/6 635/1/6 642/1/6
f 636/2/6 631/2/6 643/2/6
f 642/2/6 636/2/6 643/2/6
f 643/2/6 631/2/6 644/2/6
f 638/2/6 639/2/6 645/2/6
f 639/2/6 640/2/6 645/2/6
f 645/2/6 640/2/6 646/2/6
f 640/1/6 641/1/6 647/1/6
f 646/2/6 640/2/6 647/2/6
f 647/1/6 641/1/6 648/1/6
f 648/1/6 641/1/6 649/1/6
f 641/2/6 642/2/6 650/2/6
f 649/1/6 641/1/6 650/1/6
f 642/2/6 643/2/6 650/2/6
f 650/2/6 643/2/6 651/2/6
f 651/2/6 643/2/6 652/2/6
f 647/2/6 648/2/6 653/2/6
f 646/2/6 647/2/6 653/2/6
f 653/2/6 648/2/6 654/2/6
f 648/1/6 649/1/6 655/1/6
f 654/2/6 648/2/6 655/2/6
f 650/2/6 651/2/6 656/2/6
f 655/1/6 649/1/6 656/1/6
f 649/2/6 650/2/6 656/2/6
f 656/2/6 651/2/6 657/2/6
f 657/2/6 651/2/6 658/2/6
f 654/2/6 655/2/6 659/2/6
f 656/2/6 657/2/6 659/2/6
f 655/2/6 656/2/6 659/2/6
f 659/2/6 657/2/6 660/2/6
f 660/2/6 657/2/6 661/2/6
f 661/2/6 657/2/6 662/2/6
f 660/2/6 661/2/6 663/2/6
f 663/2/6 661/2/6 664/2/6
f 664/2/6 661/2/6 665/2/6
f 665/2/6 661/2/6 666/2/6
f 664/2/6 665/2/6 667/2/6
f 667/2/6 665/2/6 668/2/6
