# MagicaVoxel @ Ephtracy

# group
o 

# material
mtllib Steak.vox.mtl
usemtl palette

# normals
vn -1 0 0
vn 1 0 0
vn 0 0 1
vn 0 0 -1
vn 0 -1 0
vn 0 1 0

# texcoords
vt 0.419922 0.5
vt 0.853516 0.5
vt 0.958984 0.5

# verts
v -0.7 -1.1 0.4
v -0.7 -1.1 -0.3
v -0.7 -0.9 0.4
v -0.7 -0.9 -0.3
v -0.6 -1.1 0.5
v -0.6 -1.1 0.4
v -0.6 -1.1 -0.3
v -0.6 -1.1 -0.4
v -0.6 -0.9 0.5
v -0.6 -0.9 0.4
v -0.6 -0.9 -0.3
v -0.6 -0.9 -0.4
v -0.5 -1.1 0.6
v -0.5 -1.1 0.5
v -0.5 -1.1 -0.4
v -0.5 -1.1 -0.5
v -0.5 -0.9 0.6
v -0.5 -0.9 0.5
v -0.5 -0.9 -0.4
v -0.5 -0.9 -0.5
v -0.4 -1.1 0.8
v -0.4 -1.1 0.6
v -0.4 -1.1 -0.5
v -0.4 -1.1 -0.7
v -0.4 -0.9 0.8
v -0.4 -0.9 0.6
v -0.4 -0.9 -0.5
v -0.4 -0.9 -0.7
v -0.3 -1.1 0.9
v -0.3 -1.1 0.8
v -0.3 -1.1 -0.7
v -0.3 -1.1 -0.9
v -0.3 -0.9 0.9
v -0.3 -0.9 0.8
v -0.3 -0.9 -0.7
v -0.3 -0.9 -0.9
v -0.2 -1.1 1
v -0.2 -1.1 0.9
v -0.2 -1.1 -0.9
v -0.2 -1.1 -1
v -0.2 -0.9 1
v -0.2 -0.9 0.9
v -0.2 -0.9 -0.9
v -0.2 -0.9 -1
v 0.2 -1.1 1
v 0.2 -1.1 0.9
v 0.2 -1.1 -0.9
v 0.2 -1.1 -1
v 0.2 -0.9 1
v 0.2 -0.9 0.9
v 0.2 -0.9 -0.9
v 0.2 -0.9 -1
v 0.3 -1.1 0.9
v 0.3 -1.1 0.7
v 0.3 -1.1 -0.7
v 0.3 -1.1 -0.9
v 0.3 -0.9 0.9
v 0.3 -0.9 0.7
v 0.3 -0.9 -0.7
v 0.3 -0.9 -0.9
v 0.4 -1.1 0.7
v 0.4 -1.1 0.6
v 0.4 -1.1 -0.5
v 0.4 -1.1 -0.7
v 0.4 -0.9 0.7
v 0.4 -0.9 0.6
v 0.4 -0.9 -0.5
v 0.4 -0.9 -0.7
v 0.5 -1.1 0.6
v 0.5 -1.1 0.5
v 0.5 -1.1 -0.4
v 0.5 -1.1 -0.5
v 0.5 -0.9 0.6
v 0.5 -0.9 0.5
v 0.5 -0.9 -0.4
v 0.5 -0.9 -0.5
v 0.6 -1.1 0.5
v 0.6 -1.1 0.4
v 0.6 -1.1 -0.2
v 0.6 -1.1 -0.4
v 0.6 -0.9 0.5
v 0.6 -0.9 0.4
v 0.6 -0.9 -0.2
v 0.6 -0.9 -0.4
v 0.7 -1.1 0.4
v 0.7 -1.1 -0.2
v 0.7 -0.9 0.4
v 0.7 -0.9 -0.2
v -0.2 -1.1 1
v -0.2 -0.9 1
v 0.2 -1.1 1
v 0.2 -0.9 1
v -0.3 -1.1 0.9
v -0.3 -0.9 0.9
v -0.2 -1.1 0.9
v -0.2 -0.9 0.9
v 0.2 -1.1 0.9
v 0.2 -0.9 0.9
v 0.3 -1.1 0.9
v 0.3 -0.9 0.9
v -0.4 -1.1 0.8
v -0.4 -0.9 0.8
v -0.3 -1.1 0.8
v -0.3 -0.9 0.8
v 0.3 -1.1 0.7
v 0.3 -0.9 0.7
v 0.4 -1.1 0.7
v 0.4 -0.9 0.7
v -0.5 -1.1 0.6
v -0.5 -0.9 0.6
v -0.4 -1.1 0.6
v -0.4 -0.9 0.6
v 0.4 -1.1 0.6
v 0.4 -0.9 0.6
v 0.5 -1.1 0.6
v 0.5 -0.9 0.6
v -0.6 -1.1 0.5
v -0.6 -0.9 0.5
v -0.5 -1.1 0.5
v -0.5 -0.9 0.5
v 0.5 -1.1 0.5
v 0.5 -0.9 0.5
v 0.6 -1.1 0.5
v 0.6 -0.9 0.5
v -0.7 -1.1 0.4
v -0.7 -0.9 0.4
v -0.6 -1.1 0.4
v -0.6 -0.9 0.4
v 0.6 -1.1 0.4
v 0.6 -0.9 0.4
v 0.7 -1.1 0.4
v 0.7 -0.9 0.4
v 0.6 -1.1 -0.2
v 0.6 -0.9 -0.2
v 0.7 -1.1 -0.2
v 0.7 -0.9 -0.2
v -0.7 -1.1 -0.3
v -0.7 -0.9 -0.3
v -0.6 -1.1 -0.3
v -0.6 -0.9 -0.3
v -0.6 -1.1 -0.4
v -0.6 -0.9 -0.4
v -0.5 -1.1 -0.4
v -0.5 -0.9 -0.4
v 0.5 -1.1 -0.4
v 0.5 -0.9 -0.4
v 0.6 -1.1 -0.4
v 0.6 -0.9 -0.4
v -0.5 -1.1 -0.5
v -0.5 -0.9 -0.5
v -0.4 -1.1 -0.5
v -0.4 -0.9 -0.5
v 0.4 -1.1 -0.5
v 0.4 -0.9 -0.5
v 0.5 -1.1 -0.5
v 0.5 -0.9 -0.5
v -0.4 -1.1 -0.7
v -0.4 -0.9 -0.7
v -0.3 -1.1 -0.7
v -0.3 -0.9 -0.7
v 0.3 -1.1 -0.7
v 0.3 -0.9 -0.7
v 0.4 -1.1 -0.7
v 0.4 -0.9 -0.7
v -0.3 -1.1 -0.9
v -0.3 -0.9 -0.9
v -0.2 -1.1 -0.9
v -0.2 -0.9 -0.9
v 0.2 -1.1 -0.9
v 0.2 -0.9 -0.9
v 0.3 -1.1 -0.9
v 0.3 -0.9 -0.9
v -0.2 -1.1 -1
v -0.2 -0.9 -1
v 0.2 -1.1 -1
v 0.2 -0.9 -1
v -0.2 -1.1 1
v 0.2 -1.1 1
v -0.3 -1.1 0.9
v -0.2 -1.1 0.9
v -0.1 -1.1 0.9
v 0.1 -1.1 0.9
v 0.2 -1.1 0.9
v 0.3 -1.1 0.9
v -0.4 -1.1 0.8
v -0.3 -1.1 0.8
v -0.2 -1.1 0.8
v -0.1 -1.1 0.8
v 0.1 -1.1 0.8
v 0.2 -1.1 0.8
v -0.3 -1.1 0.7
v -0.2 -1.1 0.7
v 0.3 -1.1 0.7
v 0.4 -1.1 0.7
v -0.5 -1.1 0.6
v -0.4 -1.1 0.6
v 0.2 -1.1 0.6
v 0.3 -1.1 0.6
v 0.4 -1.1 0.6
v 0.5 -1.1 0.6
v -0.6 -1.1 0.5
v -0.5 -1.1 0.5
v -0.4 -1.1 0.5
v -0.3 -1.1 0.5
v 0.3 -1.1 0.5
v 0.4 -1.1 0.5
v 0.5 -1.1 0.5
v 0.6 -1.1 0.5
v -0.7 -1.1 0.4
v -0.6 -1.1 0.4
v -0.5 -1.1 0.4
v -0.4 -1.1 0.4
v 0.1 -1.1 0.4
v 0.2 -1.1 0.4
v 0.4 -1.1 0.4
v 0.5 -1.1 0.4
v 0.6 -1.1 0.4
v 0.7 -1.1 0.4
v -0.6 -1.1 0.3
v -0.5 -1.1 0.3
v 0 -1.1 0.3
v 0.1 -1.1 0.3
v 0.5 -1.1 0.3
v 0.6 -1.1 0.3
v 0 -1.1 0.2
v 0.1 -1.1 0.2
v -0.5 -1.1 0.1
v -0.4 -1.1 0.1
v 0.1 -1.1 0.1
v 0.2 -1.1 0.1
v -0.4 -1.1 0
v -0.3 -1.1 0
v 0.5 -1.1 -0.1
v 0.6 -1.1 -0.1
v -0.6 -1.1 -0.2
v -0.5 -1.1 -0.2
v -0.3 -1.1 -0.2
v -0.2 -1.1 -0.2
v 0.6 -1.1 -0.2
v 0.7 -1.1 -0.2
v -0.7 -1.1 -0.3
v -0.6 -1.1 -0.3
v -0.5 -1.1 -0.3
v -0.4 -1.1 -0.3
v -0.2 -1.1 -0.3
v -0.1 -1.1 -0.3
v 0.4 -1.1 -0.3
v 0.5 -1.1 -0.3
v -0.6 -1.1 -0.4
v -0.5 -1.1 -0.4
v -0.4 -1.1 -0.4
v -0.3 -1.1 -0.4
v -0.1 -1.1 -0.4
v 0 -1.1 -0.4
v 0.3 -1.1 -0.4
v 0.4 -1.1 -0.4
v 0.5 -1.1 -0.4
v 0.6 -1.1 -0.4
v -0.5 -1.1 -0.5
v -0.4 -1.1 -0.5
v 0 -1.1 -0.5
v 0.3 -1.1 -0.5
v 0.4 -1.1 -0.5
v 0.5 -1.1 -0.5
v -0.3 -1.1 -0.6
v -0.2 -1.1 -0.6
v 0.2 -1.1 -0.6
v 0.3 -1.1 -0.6
v -0.4 -1.1 -0.7
v -0.3 -1.1 -0.7
v 0.3 -1.1 -0.7
v 0.4 -1.1 -0.7
v -0.2 -1.1 -0.8
v -0.1 -1.1 -0.8
v 0.1 -1.1 -0.8
v 0.2 -1.1 -0.8
v -0.3 -1.1 -0.9
v -0.2 -1.1 -0.9
v -0.1 -1.1 -0.9
v 0.1 -1.1 -0.9
v 0.2 -1.1 -0.9
v 0.3 -1.1 -0.9
v -0.2 -1.1 -1
v 0.2 -1.1 -1
v -0.2 -0.9 1
v 0.2 -0.9 1
v -0.3 -0.9 0.9
v -0.2 -0.9 0.9
v -0.1 -0.9 0.9
v 0.1 -0.9 0.9
v 0.2 -0.9 0.9
v 0.3 -0.9 0.9
v -0.4 -0.9 0.8
v -0.3 -0.9 0.8
v -0.2 -0.9 0.8
v -0.1 -0.9 0.8
v 0.1 -0.9 0.8
v 0.2 -0.9 0.8
v -0.3 -0.9 0.7
v -0.2 -0.9 0.7
v 0.3 -0.9 0.7
v 0.4 -0.9 0.7
v -0.5 -0.9 0.6
v -0.4 -0.9 0.6
v 0.2 -0.9 0.6
v 0.3 -0.9 0.6
v 0.4 -0.9 0.6
v 0.5 -0.9 0.6
v -0.6 -0.9 0.5
v -0.5 -0.9 0.5
v -0.4 -0.9 0.5
v -0.3 -0.9 0.5
v 0.3 -0.9 0.5
v 0.4 -0.9 0.5
v 0.5 -0.9 0.5
v 0.6 -0.9 0.5
v -0.7 -0.9 0.4
v -0.6 -0.9 0.4
v -0.5 -0.9 0.4
v -0.4 -0.9 0.4
v 0.1 -0.9 0.4
v 0.2 -0.9 0.4
v 0.4 -0.9 0.4
v 0.5 -0.9 0.4
v 0.6 -0.9 0.4
v 0.7 -0.9 0.4
v -0.6 -0.9 0.3
v -0.5 -0.9 0.3
v 0 -0.9 0.3
v 0.1 -0.9 0.3
v 0.5 -0.9 0.3
v 0.6 -0.9 0.3
v 0 -0.9 0.2
v 0.1 -0.9 0.2
v -0.5 -0.9 0.1
v -0.4 -0.9 0.1
v 0.1 -0.9 0.1
v 0.2 -0.9 0.1
v -0.4 -0.9 0
v -0.3 -0.9 0
v 0.5 -0.9 -0.1
v 0.6 -0.9 -0.1
v -0.6 -0.9 -0.2
v -0.5 -0.9 -0.2
v -0.3 -0.9 -0.2
v -0.2 -0.9 -0.2
v 0.6 -0.9 -0.2
v 0.7 -0.9 -0.2
v -0.7 -0.9 -0.3
v -0.6 -0.9 -0.3
v -0.5 -0.9 -0.3
v -0.4 -0.9 -0.3
v -0.2 -0.9 -0.3
v -0.1 -0.9 -0.3
v 0.4 -0.9 -0.3
v 0.5 -0.9 -0.3
v -0.6 -0.9 -0.4
v -0.5 -0.9 -0.4
v -0.4 -0.9 -0.4
v -0.3 -0.9 -0.4
v -0.1 -0.9 -0.4
v 0 -0.9 -0.4
v 0.3 -0.9 -0.4
v 0.4 -0.9 -0.4
v 0.5 -0.9 -0.4
v 0.6 -0.9 -0.4
v -0.5 -0.9 -0.5
v -0.4 -0.9 -0.5
v 0 -0.9 -0.5
v 0.3 -0.9 -0.5
v 0.4 -0.9 -0.5
v 0.5 -0.9 -0.5
v -0.3 -0.9 -0.6
v -0.2 -0.9 -0.6
v 0.2 -0.9 -0.6
v 0.3 -0.9 -0.6
v -0.4 -0.9 -0.7
v -0.3 -0.9 -0.7
v 0.3 -0.9 -0.7
v 0.4 -0.9 -0.7
v -0.2 -0.9 -0.8
v -0.1 -0.9 -0.8
v 0.1 -0.9 -0.8
v 0.2 -0.9 -0.8
v -0.3 -0.9 -0.9
v -0.2 -0.9 -0.9
v -0.1 -0.9 -0.9
v 0.1 -0.9 -0.9
v 0.2 -0.9 -0.9
v 0.3 -0.9 -0.9
v -0.2 -0.9 -1
v 0.2 -0.9 -1

# faces
f 3/3/1 2/3/1 1/3/1
f 4/3/1 2/3/1 3/3/1
f 9/3/1 6/3/1 5/3/1
f 10/3/1 6/3/1 9/3/1
f 11/3/1 8/3/1 7/3/1
f 12/3/1 8/3/1 11/3/1
f 17/3/1 14/3/1 13/3/1
f 18/3/1 14/3/1 17/3/1
f 19/3/1 16/3/1 15/3/1
f 20/3/1 16/3/1 19/3/1
f 25/3/1 22/3/1 21/3/1
f 26/3/1 22/3/1 25/3/1
f 27/3/1 24/3/1 23/3/1
f 28/3/1 24/3/1 27/3/1
f 33/3/1 30/3/1 29/3/1
f 34/3/1 30/3/1 33/3/1
f 35/3/1 32/3/1 31/3/1
f 36/3/1 32/3/1 35/3/1
f 41/3/1 38/3/1 37/3/1
f 42/3/1 38/3/1 41/3/1
f 43/3/1 40/3/1 39/3/1
f 44/3/1 40/3/1 43/3/1
f 45/3/2 46/3/2 49/3/2
f 49/3/2 46/3/2 50/3/2
f 47/3/2 48/3/2 51/3/2
f 51/3/2 48/3/2 52/3/2
f 53/3/2 54/3/2 57/3/2
f 57/3/2 54/3/2 58/3/2
f 55/3/2 56/3/2 59/3/2
f 59/3/2 56/3/2 60/3/2
f 61/3/2 62/3/2 65/3/2
f 65/3/2 62/3/2 66/3/2
f 63/3/2 64/3/2 67/3/2
f 67/3/2 64/3/2 68/3/2
f 69/3/2 70/3/2 73/3/2
f 73/3/2 70/3/2 74/3/2
f 71/3/2 72/3/2 75/3/2
f 75/3/2 72/3/2 76/3/2
f 77/3/2 78/3/2 81/3/2
f 81/3/2 78/3/2 82/3/2
f 79/3/2 80/3/2 83/3/2
f 83/3/2 80/3/2 84/3/2
f 85/3/2 86/3/2 87/3/2
f 87/3/2 86/3/2 88/3/2
f 91/3/3 90/3/3 89/3/3
f 92/3/3 90/3/3 91/3/3
f 95/3/3 94/3/3 93/3/3
f 96/3/3 94/3/3 95/3/3
f 99/3/3 98/3/3 97/3/3
f 100/3/3 98/3/3 99/3/3
f 103/3/3 102/3/3 101/3/3
f 104/3/3 102/3/3 103/3/3
f 107/3/3 106/3/3 105/3/3
f 108/3/3 106/3/3 107/3/3
f 111/3/3 110/3/3 109/3/3
f 112/3/3 110/3/3 111/3/3
f 115/3/3 114/3/3 113/3/3
f 116/3/3 114/3/3 115/3/3
f 119/3/3 118/3/3 117/3/3
f 120/3/3 118/3/3 119/3/3
f 123/3/3 122/3/3 121/3/3
f 124/3/3 122/3/3 123/3/3
f 127/3/3 126/3/3 125/3/3
f 128/3/3 126/3/3 127/3/3
f 131/3/3 130/3/3 129/3/3
f 132/3/3 130/3/3 131/3/3
f 133/3/4 134/3/4 135/3/4
f 135/3/4 134/3/4 136/3/4
f 137/3/4 138/3/4 139/3/4
f 139/3/4 138/3/4 140/3/4
f 141/3/4 142/3/4 143/3/4
f 143/3/4 142/3/4 144/3/4
f 145/3/4 146/3/4 147/3/4
f 147/3/4 146/3/4 148/3/4
f 149/3/4 150/3/4 151/3/4
f 151/3/4 150/3/4 152/3/4
f 153/3/4 154/3/4 155/3/4
f 155/3/4 154/3/4 156/3/4
f 157/3/4 158/3/4 159/3/4
f 159/3/4 158/3/4 160/3/4
f 161/3/4 162/3/4 163/3/4
f 163/3/4 162/3/4 164/3/4
f 165/3/4 166/3/4 167/3/4
f 167/3/4 166/3/4 168/3/4
f 169/3/4 170/3/4 171/3/4
f 171/3/4 170/3/4 172/3/4
f 173/3/4 174/3/4 175/3/4
f 175/3/4 174/3/4 176/3/4
f 180/3/5 178/3/5 177/3/5
f 181/3/5 178/3/5 180/3/5
f 182/3/5 178/3/5 181/3/5
f 183/3/5 178/3/5 182/3/5
f 186/3/5 180/3/5 179/3/5
f 186/3/5 181/3/5 180/3/5
f 187/3/5 181/3/5 186/3/5
f 188/1/5 182/1/5 181/1/5
f 188/3/5 181/3/5 187/3/5
f 189/3/5 184/3/5 183/3/5
f 189/1/5 182/1/5 188/1/5
f 189/3/5 183/3/5 182/3/5
f 190/3/5 184/3/5 189/3/5
f 191/3/5 186/3/5 185/3/5
f 191/3/5 187/3/5 186/3/5
f 192/1/5 188/1/5 187/1/5
f 192/3/5 187/3/5 191/3/5
f 192/1/5 190/1/5 189/1/5
f 192/1/5 189/1/5 188/1/5
f 193/3/5 184/3/5 190/3/5
f 196/3/5 191/3/5 185/3/5
f 197/3/5 194/3/5 193/3/5
f 197/1/5 190/1/5 192/1/5
f 197/1/5 192/1/5 191/1/5
f 197/3/5 193/3/5 190/3/5
f 198/3/5 194/3/5 197/3/5
f 199/3/5 194/3/5 198/3/5
f 202/3/5 196/3/5 195/3/5
f 203/3/5 191/3/5 196/3/5
f 203/3/5 196/3/5 202/3/5
f 204/1/5 197/1/5 191/1/5
f 204/3/5 191/3/5 203/3/5
f 204/1/5 198/1/5 197/1/5
f 205/3/5 200/3/5 199/3/5
f 205/1/5 198/1/5 204/1/5
f 205/3/5 199/3/5 198/3/5
f 206/3/5 200/3/5 205/3/5
f 207/3/5 200/3/5 206/3/5
f 210/3/5 202/3/5 201/3/5
f 210/3/5 203/3/5 202/3/5
f 211/3/5 203/3/5 210/3/5
f 212/1/5 204/1/5 203/1/5
f 212/3/5 203/3/5 211/3/5
f 212/1/5 205/1/5 204/1/5
f 212/1/5 206/1/5 205/1/5
f 213/1/5 206/1/5 212/1/5
f 214/1/5 206/1/5 213/1/5
f 215/3/5 208/3/5 207/3/5
f 215/1/5 206/1/5 214/1/5
f 215/3/5 207/3/5 206/3/5
f 216/3/5 208/3/5 215/3/5
f 217/3/5 208/3/5 216/3/5
f 219/3/5 211/3/5 210/3/5
f 219/3/5 210/3/5 209/3/5
f 220/1/5 213/1/5 212/1/5
f 220/3/5 211/3/5 219/3/5
f 220/1/5 212/1/5 211/1/5
f 221/1/5 213/1/5 220/1/5
f 222/3/5 214/3/5 213/3/5
f 222/1/5 213/1/5 221/1/5
f 223/3/5 218/3/5 217/3/5
f 223/3/5 217/3/5 216/3/5
f 223/1/5 216/1/5 215/1/5
f 223/1/5 215/1/5 214/1/5
f 224/3/5 218/3/5 223/3/5
f 225/1/5 221/1/5 220/1/5
f 225/3/5 222/3/5 221/3/5
f 226/3/5 214/3/5 222/3/5
f 226/3/5 222/3/5 225/3/5
f 227/1/5 225/1/5 220/1/5
f 227/2/5 220/2/5 219/2/5
f 227/1/5 226/1/5 225/1/5
f 228/1/5 226/1/5 227/1/5
f 229/3/5 214/3/5 226/3/5
f 229/1/5 226/1/5 228/1/5
f 230/1/5 224/1/5 223/1/5
f 230/3/5 214/3/5 229/3/5
f 230/1/5 223/1/5 214/1/5
f 231/2/5 228/2/5 227/2/5
f 231/1/5 229/1/5 228/1/5
f 231/1/5 230/1/5 229/1/5
f 232/1/5 230/1/5 231/1/5
f 233/1/5 224/1/5 230/1/5
f 233/1/5 230/1/5 232/1/5
f 234/3/5 218/3/5 224/3/5
f 234/1/5 224/1/5 233/1/5
f 235/2/5 232/2/5 231/2/5
f 235/3/5 219/3/5 209/3/5
f 235/2/5 227/2/5 219/2/5
f 235/2/5 231/2/5 227/2/5
f 236/2/5 232/2/5 235/2/5
f 237/1/5 233/1/5 232/1/5
f 237/2/5 232/2/5 236/2/5
f 238/1/5 233/1/5 237/1/5
f 239/3/5 218/3/5 234/3/5
f 239/3/5 234/3/5 233/3/5
f 240/3/5 218/3/5 239/3/5
f 241/3/5 236/3/5 235/3/5
f 241/3/5 235/3/5 209/3/5
f 242/3/5 236/3/5 241/3/5
f 243/2/5 238/2/5 237/2/5
f 243/3/5 236/3/5 242/3/5
f 243/2/5 237/2/5 236/2/5
f 244/2/5 238/2/5 243/2/5
f 245/1/5 233/1/5 238/1/5
f 245/2/5 238/2/5 244/2/5
f 246/1/5 233/1/5 245/1/5
f 247/1/5 233/1/5 246/1/5
f 248/3/5 239/3/5 233/3/5
f 248/1/5 233/1/5 247/1/5
f 249/3/5 244/3/5 243/3/5
f 249/3/5 243/3/5 242/3/5
f 250/3/5 244/3/5 249/3/5
f 251/2/5 246/2/5 245/2/5
f 251/3/5 244/3/5 250/3/5
f 251/2/5 245/2/5 244/2/5
f 252/2/5 246/2/5 251/2/5
f 253/1/5 247/1/5 246/1/5
f 253/2/5 246/2/5 252/2/5
f 254/1/5 247/1/5 253/1/5
f 255/1/5 247/1/5 254/1/5
f 256/3/5 248/3/5 247/3/5
f 256/1/5 247/1/5 255/1/5
f 257/3/5 239/3/5 248/3/5
f 257/3/5 248/3/5 256/3/5
f 258/3/5 239/3/5 257/3/5
f 259/3/5 252/3/5 251/3/5
f 259/3/5 251/3/5 250/3/5
f 260/3/5 252/3/5 259/3/5
f 261/1/5 255/1/5 254/1/5
f 261/2/5 254/2/5 253/2/5
f 261/2/5 253/2/5 252/2/5
f 262/3/5 256/3/5 255/3/5
f 262/1/5 255/1/5 261/1/5
f 262/3/5 257/3/5 256/3/5
f 263/3/5 257/3/5 262/3/5
f 264/3/5 257/3/5 263/3/5
f 265/2/5 261/2/5 252/2/5
f 265/3/5 252/3/5 260/3/5
f 265/2/5 262/2/5 261/2/5
f 266/2/5 262/2/5 265/2/5
f 267/2/5 262/2/5 266/2/5
f 268/3/5 263/3/5 262/3/5
f 268/2/5 262/2/5 267/2/5
f 269/3/5 265/3/5 260/3/5
f 269/3/5 266/3/5 265/3/5
f 270/3/5 266/3/5 269/3/5
f 271/3/5 263/3/5 268/3/5
f 271/3/5 268/3/5 267/3/5
f 272/3/5 263/3/5 271/3/5
f 273/2/5 267/2/5 266/2/5
f 273/3/5 266/3/5 270/3/5
f 274/2/5 267/2/5 273/2/5
f 275/2/5 267/2/5 274/2/5
f 276/3/5 271/3/5 267/3/5
f 276/2/5 267/2/5 275/2/5
f 277/3/5 273/3/5 270/3/5
f 277/3/5 274/3/5 273/3/5
f 278/3/5 274/3/5 277/3/5
f 279/2/5 275/2/5 274/2/5
f 279/3/5 274/3/5 278/3/5
f 280/3/5 276/3/5 275/3/5
f 280/2/5 275/2/5 279/2/5
f 281/3/5 271/3/5 276/3/5
f 281/3/5 276/3/5 280/3/5
f 282/3/5 271/3/5 281/3/5
f 283/3/5 280/3/5 279/3/5
f 283/3/5 281/3/5 280/3/5
f 283/3/5 279/3/5 278/3/5
f 284/3/5 281/3/5 283/3/5
f 285/3/6 286/3/6 288/3/6
f 288/3/6 286/3/6 289/3/6
f 289/3/6 286/3/6 290/3/6
f 290/3/6 286/3/6 291/3/6
f 287/3/6 288/3/6 294/3/6
f 288/3/6 289/3/6 294/3/6
f 294/3/6 289/3/6 295/3/6
f 289/1/6 290/1/6 296/1/6
f 295/3/6 289/3/6 296/3/6
f 291/3/6 292/3/6 297/3/6
f 296/1/6 290/1/6 297/1/6
f 290/3/6 291/3/6 297/3/6
f 297/3/6 292/3/6 298/3/6
f 293/3/6 294/3/6 299/3/6
f 294/3/6 295/3/6 299/3/6
f 295/1/6 296/1/6 300/1/6
f 299/3/6 295/3/6 300/3/6
f 297/1/6 298/1/6 300/1/6
f 296/1/6 297/1/6 300/1/6
f 298/3/6 292/3/6 301/3/6
f 293/3/6 299/3/6 304/3/6
f 301/3/6 302/3/6 305/3/6
f 300/1/6 298/1/6 305/1/6
f 299/1/6 300/1/6 305/1/6
f 298/3/6 301/3/6 305/3/6
f 305/3/6 302/3/6 306/3/6
f 306/3/6 302/3/6 307/3/6
f 303/3/6 304/3/6 310/3/6
f 304/3/6 299/3/6 311/3/6
f 310/3/6 304/3/6 311/3/6
f 299/1/6 305/1/6 312/1/6
f 311/3/6 299/3/6 312/3/6
f 305/1/6 306/1/6 312/1/6
f 307/3/6 308/3/6 313/3/6
f 312/1/6 306/1/6 313/1/6
f 306/3/6 307/3/6 313/3/6
f 313/3/6 308/3/6 314/3/6
f 314/3/6 308/3/6 315/3/6
f 309/3/6 310/3/6 318/3/6
f 310/3/6 311/3/6 318/3/6
f 318/3/6 311/3/6 319/3/6
f 311/1/6 312/1/6 320/1/6
f 319/3/6 311/3/6 320/3/6
f 312/1/6 313/1/6 320/1/6
f 313/1/6 314/1/6 320/1/6
f 320/1/6 314/1/6 321/1/6
f 321/1/6 314/1/6 322/1/6
f 315/3/6 316/3/6 323/3/6
f 322/1/6 314/1/6 323/1/6
f 314/3/6 315/3/6 323/3/6
f 323/3/6 316/3/6 324/3/6
f 324/3/6 316/3/6 325/3/6
f 318/3/6 319/3/6 327/3/6
f 317/3/6 318/3/6 327/3/6
f 320/1/6 321/1/6 328/1/6
f 327/3/6 319/3/6 328/3/6
f 319/1/6 320/1/6 328/1/6
f 328/1/6 321/1/6 329/1/6
f 321/3/6 322/3/6 330/3/6
f 329/1/6 321/1/6 330/1/6
f 325/3/6 326/3/6 331/3/6
f 324/3/6 325/3/6 331/3/6
f 323/1/6 324/1/6 331/1/6
f 322/1/6 323/1/6 331/1/6
f 331/3/6 326/3/6 332/3/6
f 328/1/6 329/1/6 333/1/6
f 329/3/6 330/3/6 333/3/6
f 330/3/6 322/3/6 334/3/6
f 333/3/6 330/3/6 334/3/6
f 328/1/6 333/1/6 335/1/6
f 327/2/6 328/2/6 335/2/6
f 333/1/6 334/1/6 335/1/6
f 335/1/6 334/1/6 336/1/6
f 334/3/6 322/3/6 337/3/6
f 336/1/6 334/1/6 337/1/6
f 331/1/6 332/1/6 338/1/6
f 337/3/6 322/3/6 338/3/6
f 322/1/6 331/1/6 338/1/6
f 335/2/6 336/2/6 339/2/6
f 336/1/6 337/1/6 339/1/6
f 337/1/6 338/1/6 339/1/6
f 339/1/6 338/1/6 340/1/6
f 338/1/6 332/1/6 341/1/6
f 340/1/6 338/1/6 341/1/6
f 332/3/6 326/3/6 342/3/6
f 341/1/6 332/1/6 342/1/6
f 339/2/6 340/2/6 343/2/6
f 317/3/6 327/3/6 343/3/6
f 327/2/6 335/2/6 343/2/6
f 335/2/6 339/2/6 343/2/6
f 343/2/6 340/2/6 344/2/6
f 340/1/6 341/1/6 345/1/6
f 344/2/6 340/2/6 345/2/6
f 345/1/6 341/1/6 346/1/6
f 342/3/6 326/3/6 347/3/6
f 341/3/6 342/3/6 347/3/6
f 347/3/6 326/3/6 348/3/6
f 343/3/6 344/3/6 349/3/6
f 317/3/6 343/3/6 349/3/6
f 349/3/6 344/3/6 350/3/6
f 345/2/6 346/2/6 351/2/6
f 350/3/6 344/3/6 351/3/6
f 344/2/6 345/2/6 351/2/6
f 351/2/6 346/2/6 352/2/6
f 346/1/6 341/1/6 353/1/6
f 352/2/6 346/2/6 353/2/6
f 353/1/6 341/1/6 354/1/6
f 354/1/6 341/1/6 355/1/6
f 341/3/6 347/3/6 356/3/6
f 355/1/6 341/1/6 356/1/6
f 351/3/6 352/3/6 357/3/6
f 350/3/6 351/3/6 357/3/6
f 357/3/6 352/3/6 358/3/6
f 353/2/6 354/2/6 359/2/6
f 358/3/6 352/3/6 359/3/6
f 352/2/6 353/2/6 359/2/6
f 359/2/6 354/2/6 360/2/6
f 354/1/6 355/1/6 361/1/6
f 360/2/6 354/2/6 361/2/6
f 361/1/6 355/1/6 362/1/6
f 362/1/6 355/1/6 363/1/6
f 355/3/6 356/3/6 364/3/6
f 363/1/6 355/1/6 364/1/6
f 356/3/6 347/3/6 365/3/6
f 364/3/6 356/3/6 365/3/6
f 365/3/6 347/3/6 366/3/6
f 359/3/6 360/3/6 367/3/6
f 358/3/6 359/3/6 367/3/6
f 367/3/6 360/3/6 368/3/6
f 362/1/6 363/1/6 369/1/6
f 361/2/6 362/2/6 369/2/6
f 360/2/6 361/2/6 369/2/6
f 363/3/6 364/3/6 370/3/6
f 369/1/6 363/1/6 370/1/6
f 364/3/6 365/3/6 370/3/6
f 370/3/6 365/3/6 371/3/6
f 371/3/6 365/3/6 372/3/6
f 360/2/6 369/2/6 373/2/6
f 368/3/6 360/3/6 373/3/6
f 369/2/6 370/2/6 373/2/6
f 373/2/6 370/2/6 374/2/6
f 374/2/6 370/2/6 375/2/6
f 370/3/6 371/3/6 376/3/6
f 375/2/6 370/2/6 376/2/6
f 368/3/6 373/3/6 377/3/6
f 373/3/6 374/3/6 377/3/6
f 377/3/6 374/3/6 378/3/6
f 376/3/6 371/3/6 379/3/6
f 375/3/6 376/3/6 379/3/6
f 379/3/6 371/3/6 380/3/6
f 374/2/6 375/2/6 381/2/6
f 378/3/6 374/3/6 381/3/6
f 381/2/6 375/2/6 382/2/6
f 382/2/6 375/2/6 383/2/6
f 375/3/6 379/3/6 384/3/6
f 383/2/6 375/2/6 384/2/6
f 378/3/6 381/3/6 385/3/6
f 381/3/6 382/3/6 385/3/6
f 385/3/6 382/3/6 386/3/6
f 382/2/6 383/2/6 387/2/6
f 386/3/6 382/3/6 387/3/6
f 383/3/6 384/3/6 388/3/6
f 387/2/6 383/2/6 388/2/6
f 384/3/6 379/3/6 389/3/6
f 388/3/6 384/3/6 389/3/6
f 389/3/6 379/3/6 390/3/6
f 387/3/6 388/3/6 391/3/6
f 388/3/6 389/3/6 391/3/6
f 386/3/6 387/3/6 391/3/6
f 391/3/6 389/3/6 392/3/6
