# MagicaVoxel @ Ephtracy

# group
o 

# material
mtllib TomatoBoxTop.vox.mtl
usemtl palette

# normals
vn -1 0 0
vn 1 0 0
vn 0 0 1
vn 0 0 -1
vn 0 -1 0
vn 0 1 0

# texcoords
vt 0.0332031 0.5
vt 0.0566406 0.5
vt 0.111328 0.5
vt 0.537109 0.5
vt 0.845703 0.5
vt 0.849609 0.5
vt 0.853516 0.5
vt 0.857422 0.5
vt 0.861328 0.5
vt 0.892578 0.5
vt 0.900391 0.5
vt 0.986328 0.5

# verts
v -1.6 0 1.6
v -1.6 0 -1.6
v -1.6 0.5 1.6
v -1.6 0.5 -1.6
v 1.6 0 1.6
v 1.6 0 -1.6
v 1.6 0.5 1.6
v 1.6 0.5 -1.6
v -1.6 0 1.6
v -1.6 0.5 1.6
v 1.6 0 1.6
v 1.6 0.5 1.6
v -1.6 0 -1.6
v -1.6 0.5 -1.6
v 1.6 0 -1.6
v 1.6 0.5 -1.6
v -1.6 0 1.6
v 1.6 0 1.6
v -1.6 0 -1.6
v 1.6 0 -1.6
v -1.6 0.5 1.6
v 1.6 0.5 1.6
v -1.4 0.5 1.4
v 1.4 0.5 1.4
v -0.3 0.5 1
v 0.3 0.5 1
v -0.5 0.5 0.9
v -0.3 0.5 0.9
v 0.3 0.5 0.9
v 0.5 0.5 0.9
v -0.7 0.5 0.8
v -0.5 0.5 0.8
v 0.5 0.5 0.8
v 0.7 0.5 0.8
v -0.8 0.5 0.7
v -0.7 0.5 0.7
v -0.4 0.5 0.7
v 0.3 0.5 0.7
v 0.7 0.5 0.7
v 0.8 0.5 0.7
v -0.5 0.5 0.6
v -0.4 0.5 0.6
v -0.3 0.5 0.6
v 0.3 0.5 0.6
v 0.4 0.5 0.6
v -0.9 0.5 0.5
v -0.8 0.5 0.5
v -0.6 0.5 0.5
v -0.5 0.5 0.5
v -0.4 0.5 0.5
v -0.3 0.5 0.5
v -0.2 0.5 0.5
v 0.3 0.5 0.5
v 0.4 0.5 0.5
v 0.5 0.5 0.5
v 0.8 0.5 0.5
v 0.9 0.5 0.5
v -0.7 0.5 0.4
v -0.6 0.5 0.4
v -0.5 0.5 0.4
v -0.4 0.5 0.4
v -0.3 0.5 0.4
v -0.2 0.5 0.4
v 0.3 0.5 0.4
v 0.4 0.5 0.4
v 0.5 0.5 0.4
v 0.6 0.5 0.4
v -1 0.5 0.3
v -0.9 0.5 0.3
v -0.6 0.5 0.3
v -0.5 0.5 0.3
v -0.4 0.5 0.3
v -0.3 0.5 0.3
v -0.2 0.5 0.3
v 0.3 0.5 0.3
v 0.4 0.5 0.3
v 0.5 0.5 0.3
v 0.6 0.5 0.3
v 0.9 0.5 0.3
v 1 0.5 0.3
v -0.5 0.5 0.2
v -0.4 0.5 0.2
v -0.3 0.5 0.2
v 0 0.5 0.2
v 0.2 0.5 0.2
v 0.4 0.5 0.2
v 0.5 0.5 0.2
v 0.6 0.5 0.2
v -0.1 0.5 0.1
v 0 0.5 0.1
v 0.2 0.5 0.1
v 0.4 0.5 0.1
v 0.5 0.5 0.1
v 0.6 0.5 0.1
v -0.4 0.5 0
v -0.3 0.5 0
v -0.1 0.5 0
v 0 0.5 0
v 0.2 0.5 0
v 0.4 0.5 0
v 0.5 0.5 0
v -0.7 0.5 -0.1
v -0.6 0.5 -0.1
v -0.5 0.5 -0.1
v -0.4 0.5 -0.1
v -0.3 0.5 -0.1
v -0.2 0.5 -0.1
v 0 0.5 -0.1
v 0.2 0.5 -0.1
v -0.6 0.5 -0.2
v -0.5 0.5 -0.2
v -0.4 0.5 -0.2
v -0.3 0.5 -0.2
v -0.2 0.5 -0.2
v -0.1 0.5 -0.2
v 0.1 0.5 -0.2
v 0.2 0.5 -0.2
v 0.4 0.5 -0.2
v 0.5 0.5 -0.2
v 0.6 0.5 -0.2
v -1 0.5 -0.3
v -0.9 0.5 -0.3
v -0.6 0.5 -0.3
v -0.5 0.5 -0.3
v -0.4 0.5 -0.3
v -0.3 0.5 -0.3
v -0.2 0.5 -0.3
v 0.1 0.5 -0.3
v 0.4 0.5 -0.3
v 0.5 0.5 -0.3
v 0.9 0.5 -0.3
v 1 0.5 -0.3
v -0.5 0.5 -0.4
v -0.4 0.5 -0.4
v -0.2 0.5 -0.4
v -0.1 0.5 -0.4
v 0 0.5 -0.4
v 0.1 0.5 -0.4
v 0.3 0.5 -0.4
v 0.4 0.5 -0.4
v -0.9 0.5 -0.5
v -0.8 0.5 -0.5
v -0.5 0.5 -0.5
v -0.4 0.5 -0.5
v -0.3 0.5 -0.5
v -0.1 0.5 -0.5
v 0 0.5 -0.5
v 0.2 0.5 -0.5
v 0.3 0.5 -0.5
v 0.4 0.5 -0.5
v 0.8 0.5 -0.5
v 0.9 0.5 -0.5
v -0.5 0.5 -0.6
v -0.3 0.5 -0.6
v -0.1 0.5 -0.6
v 0 0.5 -0.6
v 0.1 0.5 -0.6
v 0.2 0.5 -0.6
v 0.4 0.5 -0.6
v -0.8 0.5 -0.7
v -0.7 0.5 -0.7
v 0.7 0.5 -0.7
v 0.8 0.5 -0.7
v -0.7 0.5 -0.8
v -0.5 0.5 -0.8
v 0 0.5 -0.8
v 0.1 0.5 -0.8
v 0.5 0.5 -0.8
v 0.7 0.5 -0.8
v -0.5 0.5 -0.9
v -0.3 0.5 -0.9
v 0.3 0.5 -0.9
v 0.5 0.5 -0.9
v -0.3 0.5 -1
v 0.3 0.5 -1
v -1.4 0.5 -1.4
v 1.4 0.5 -1.4
v -1.6 0.5 -1.6
v 1.6 0.5 -1.6

# faces
f 3/4/1 2/4/1 1/4/1
f 4/4/1 2/4/1 3/4/1
f 5/4/2 6/4/2 7/4/2
f 7/4/2 6/4/2 8/4/2
f 11/4/3 10/4/3 9/4/3
f 12/4/3 10/4/3 11/4/3
f 13/4/4 14/4/4 15/4/4
f 15/4/4 14/4/4 16/4/4
f 19/4/5 18/4/5 17/4/5
f 20/4/5 18/4/5 19/4/5
f 21/4/6 22/4/6 23/4/6
f 23/4/6 22/4/6 24/4/6
f 23/1/6 24/1/6 25/1/6
f 25/1/6 24/1/6 26/1/6
f 23/1/6 25/1/6 27/1/6
f 25/12/6 26/12/6 28/12/6
f 27/1/6 25/1/6 28/1/6
f 26/1/6 24/1/6 29/1/6
f 28/12/6 26/12/6 29/12/6
f 29/1/6 24/1/6 30/1/6
f 23/1/6 27/1/6 31/1/6
f 27/12/6 28/12/6 32/12/6
f 31/1/6 27/1/6 32/1/6
f 28/12/6 29/12/6 32/12/6
f 29/12/6 30/12/6 32/12/6
f 30/1/6 24/1/6 33/1/6
f 32/12/6 30/12/6 33/12/6
f 33/1/6 24/1/6 34/1/6
f 23/1/6 31/1/6 35/1/6
f 31/12/6 32/12/6 36/12/6
f 35/1/6 31/1/6 36/1/6
f 32/12/6 33/12/6 36/12/6
f 33/12/6 34/12/6 36/12/6
f 36/12/6 34/12/6 37/12/6
f 37/12/6 34/12/6 38/12/6
f 34/1/6 24/1/6 39/1/6
f 38/12/6 34/12/6 39/12/6
f 39/1/6 24/1/6 40/1/6
f 35/12/6 36/12/6 41/12/6
f 36/12/6 37/12/6 41/12/6
f 37/9/6 38/9/6 42/9/6
f 41/12/6 37/12/6 42/12/6
f 42/9/6 38/9/6 43/9/6
f 39/12/6 40/12/6 44/12/6
f 43/9/6 38/9/6 44/9/6
f 38/12/6 39/12/6 44/12/6
f 44/12/6 40/12/6 45/12/6
f 23/1/6 35/1/6 46/1/6
f 35/12/6 41/12/6 47/12/6
f 46/1/6 35/1/6 47/1/6
f 47/12/6 41/12/6 48/12/6
f 42/9/6 43/9/6 49/9/6
f 48/12/6 41/12/6 49/12/6
f 41/9/6 42/9/6 49/9/6
f 49/9/6 43/9/6 50/9/6
f 43/8/6 44/8/6 51/8/6
f 50/9/6 43/9/6 51/9/6
f 51/8/6 44/8/6 52/8/6
f 44/9/6 45/9/6 53/9/6
f 52/8/6 44/8/6 53/8/6
f 45/12/6 40/12/6 54/12/6
f 53/9/6 45/9/6 54/9/6
f 54/12/6 40/12/6 55/12/6
f 40/1/6 24/1/6 56/1/6
f 55/12/6 40/12/6 56/12/6
f 56/1/6 24/1/6 57/1/6
f 47/12/6 48/12/6 58/12/6
f 46/12/6 47/12/6 58/12/6
f 49/9/6 50/9/6 59/9/6
f 58/12/6 48/12/6 59/12/6
f 48/9/6 49/9/6 59/9/6
f 59/9/6 50/9/6 60/9/6
f 51/8/6 52/8/6 61/8/6
f 60/9/6 50/9/6 61/9/6
f 50/8/6 51/8/6 61/8/6
f 61/8/6 52/8/6 62/8/6
f 52/7/6 53/7/6 63/7/6
f 62/8/6 52/8/6 63/8/6
f 53/8/6 54/8/6 64/8/6
f 63/7/6 53/7/6 64/7/6
f 54/9/6 55/9/6 65/9/6
f 64/8/6 54/8/6 65/8/6
f 56/12/6 57/12/6 66/12/6
f 65/9/6 55/9/6 66/9/6
f 55/12/6 56/12/6 66/12/6
f 66/12/6 57/12/6 67/12/6
f 23/1/6 46/1/6 68/1/6
f 46/12/6 58/12/6 69/12/6
f 68/1/6 46/1/6 69/1/6
f 59/9/6 60/9/6 70/9/6
f 58/9/6 59/9/6 70/9/6
f 61/8/6 62/8/6 71/8/6
f 70/9/6 60/9/6 71/9/6
f 60/8/6 61/8/6 71/8/6
f 71/8/6 62/8/6 72/8/6
f 62/7/6 63/7/6 73/7/6
f 72/8/6 62/8/6 73/8/6
f 63/6/6 64/6/6 74/6/6
f 73/7/6 63/7/6 74/7/6
f 64/7/6 65/7/6 75/7/6
f 74/6/6 64/6/6 75/6/6
f 65/8/6 66/8/6 76/8/6
f 75/7/6 65/7/6 76/7/6
f 66/9/6 67/9/6 77/9/6
f 76/8/6 66/8/6 77/8/6
f 67/12/6 57/12/6 78/12/6
f 77/9/6 67/9/6 78/9/6
f 57/1/6 24/1/6 79/1/6
f 78/12/6 57/12/6 79/12/6
f 79/1/6 24/1/6 80/1/6
f 71/8/6 72/8/6 81/8/6
f 70/8/6 71/8/6 81/8/6
f 72/7/6 73/7/6 82/7/6
f 81/8/6 72/8/6 82/8/6
f 73/6/6 74/6/6 83/6/6
f 82/7/6 73/7/6 83/7/6
f 75/6/6 76/6/6 83/6/6
f 74/6/6 75/6/6 83/6/6
f 83/6/6 76/6/6 84/6/6
f 84/6/6 76/6/6 85/6/6
f 76/7/6 77/7/6 86/7/6
f 85/6/6 76/6/6 86/6/6
f 77/8/6 78/8/6 87/8/6
f 86/7/6 77/7/6 87/7/6
f 78/12/6 79/12/6 88/12/6
f 87/8/6 78/8/6 88/8/6
f 79/12/6 80/12/6 88/12/6
f 83/6/6 84/6/6 89/6/6
f 82/6/6 83/6/6 89/6/6
f 84/5/6 85/5/6 90/5/6
f 89/6/6 84/6/6 90/6/6
f 85/6/6 86/6/6 91/6/6
f 90/5/6 85/5/6 91/5/6
f 86/6/6 87/6/6 91/6/6
f 91/6/6 87/6/6 92/6/6
f 87/7/6 88/7/6 93/7/6
f 92/6/6 87/6/6 93/6/6
f 88/12/6 80/12/6 94/12/6
f 93/7/6 88/7/6 94/7/6
f 82/6/6 89/6/6 95/6/6
f 81/7/6 82/7/6 95/7/6
f 95/6/6 89/6/6 96/6/6
f 89/5/6 90/5/6 97/5/6
f 96/6/6 89/6/6 97/6/6
f 90/3/6 91/3/6 98/3/6
f 97/5/6 90/5/6 98/5/6
f 91/5/6 92/5/6 99/5/6
f 98/3/6 91/3/6 99/3/6
f 93/6/6 94/6/6 100/6/6
f 99/5/6 92/5/6 100/5/6
f 92/6/6 93/6/6 100/6/6
f 100/6/6 94/6/6 101/6/6
f 58/9/6 70/9/6 102/9/6
f 69/12/6 58/12/6 102/12/6
f 68/12/6 69/12/6 102/12/6
f 70/8/6 81/8/6 103/8/6
f 102/9/6 70/9/6 103/9/6
f 81/7/6 95/7/6 104/7/6
f 103/8/6 81/8/6 104/8/6
f 95/5/6 96/5/6 105/5/6
f 104/7/6 95/7/6 105/7/6
f 96/6/6 97/6/6 106/6/6
f 105/5/6 96/5/6 106/5/6
f 106/6/6 97/6/6 107/6/6
f 98/3/6 99/3/6 108/3/6
f 97/2/6 98/2/6 108/2/6
f 99/3/6 100/3/6 108/3/6
f 108/3/6 100/3/6 109/3/6
f 103/8/6 104/8/6 110/8/6
f 102/12/6 103/12/6 110/12/6
f 104/8/6 105/8/6 110/8/6
f 110/8/6 105/8/6 111/8/6
f 105/2/6 106/2/6 112/2/6
f 111/8/6 105/8/6 112/8/6
f 106/3/6 107/3/6 113/3/6
f 112/2/6 106/2/6 113/2/6
f 107/6/6 97/6/6 114/6/6
f 113/3/6 107/3/6 114/3/6
f 108/2/6 109/2/6 115/2/6
f 114/6/6 97/6/6 115/6/6
f 97/2/6 108/2/6 115/2/6
f 115/2/6 109/2/6 116/2/6
f 109/3/6 100/3/6 117/3/6
f 116/2/6 109/2/6 117/2/6
f 100/5/6 101/5/6 118/5/6
f 117/3/6 100/3/6 118/3/6
f 101/6/6 94/6/6 119/6/6
f 118/5/6 101/5/6 119/5/6
f 94/12/6 80/12/6 120/12/6
f 119/6/6 94/6/6 120/6/6
f 68/12/6 102/12/6 121/12/6
f 23/1/6 68/1/6 121/1/6
f 102/12/6 110/12/6 121/12/6
f 121/12/6 110/12/6 122/12/6
f 110/9/6 111/9/6 123/9/6
f 122/12/6 110/12/6 123/12/6
f 111/8/6 112/8/6 124/8/6
f 123/9/6 111/9/6 124/9/6
f 112/7/6 113/7/6 125/7/6
f 124/8/6 112/8/6 125/8/6
f 113/2/6 114/2/6 126/2/6
f 125/7/6 113/7/6 126/7/6
f 115/6/6 116/6/6 127/6/6
f 126/2/6 114/2/6 127/2/6
f 114/6/6 115/6/6 127/6/6
f 117/2/6 118/2/6 128/2/6
f 127/6/6 116/6/6 128/6/6
f 116/2/6 117/2/6 128/2/6
f 118/6/6 119/6/6 129/6/6
f 128/2/6 118/2/6 129/2/6
f 119/12/6 120/12/6 130/12/6
f 129/6/6 119/6/6 130/6/6
f 120/12/6 80/12/6 131/12/6
f 130/12/6 120/12/6 131/12/6
f 80/1/6 24/1/6 132/1/6
f 131/12/6 80/12/6 132/12/6
f 123/12/6 124/12/6 133/12/6
f 122/12/6 123/12/6 133/12/6
f 124/9/6 125/9/6 133/9/6
f 126/8/6 127/8/6 134/8/6
f 133/9/6 125/9/6 134/9/6
f 125/8/6 126/8/6 134/8/6
f 127/11/6 128/11/6 135/11/6
f 134/8/6 127/8/6 135/8/6
f 135/11/6 128/11/6 136/11/6
f 136/11/6 128/11/6 137/11/6
f 128/6/6 129/6/6 138/6/6
f 137/11/6 128/11/6 138/11/6
f 138/6/6 129/6/6 139/6/6
f 129/12/6 130/12/6 140/12/6
f 139/6/6 129/6/6 140/6/6
f 130/12/6 131/12/6 140/12/6
f 133/12/6 134/12/6 141/12/6
f 122/12/6 133/12/6 141/12/6
f 121/1/6 122/1/6 141/1/6
f 141/12/6 134/12/6 142/12/6
f 142/12/6 134/12/6 143/12/6
f 135/11/6 136/11/6 144/11/6
f 143/12/6 134/12/6 144/12/6
f 134/11/6 135/11/6 144/11/6
f 144/11/6 136/11/6 145/11/6
f 136/10/6 137/10/6 146/10/6
f 145/11/6 136/11/6 146/11/6
f 138/11/6 139/11/6 147/11/6
f 146/10/6 137/10/6 147/10/6
f 137/11/6 138/11/6 147/11/6
f 147/11/6 139/11/6 148/11/6
f 139/12/6 140/12/6 149/12/6
f 148/11/6 139/11/6 149/11/6
f 140/12/6 131/12/6 150/12/6
f 149/12/6 140/12/6 150/12/6
f 150/12/6 131/12/6 151/12/6
f 131/1/6 132/1/6 152/1/6
f 151/12/6 131/12/6 152/12/6
f 143/10/6 144/10/6 153/10/6
f 144/10/6 145/10/6 153/10/6
f 142/12/6 143/12/6 153/12/6
f 145/12/6 146/12/6 154/12/6
f 153/10/6 145/10/6 154/10/6
f 146/10/6 147/10/6 155/10/6
f 154/12/6 146/12/6 155/12/6
f 147/12/6 148/12/6 156/12/6
f 155/10/6 147/10/6 156/10/6
f 156/12/6 148/12/6 157/12/6
f 148/10/6 149/10/6 158/10/6
f 157/12/6 148/12/6 158/12/6
f 149/10/6 150/10/6 158/10/6
f 150/12/6 151/12/6 159/12/6
f 158/10/6 150/10/6 159/10/6
f 154/12/6 155/12/6 160/12/6
f 142/12/6 153/12/6 160/12/6
f 155/12/6 156/12/6 160/12/6
f 153/12/6 154/12/6 160/12/6
f 141/1/6 142/1/6 160/1/6
f 160/12/6 156/12/6 161/12/6
f 159/12/6 151/12/6 162/12/6
f 158/12/6 159/12/6 162/12/6
f 157/12/6 158/12/6 162/12/6
f 151/1/6 152/1/6 163/1/6
f 162/12/6 151/12/6 163/12/6
f 161/12/6 156/12/6 164/12/6
f 160/1/6 161/1/6 164/1/6
f 164/12/6 156/12/6 165/12/6
f 156/11/6 157/11/6 166/11/6
f 165/12/6 156/12/6 166/12/6
f 157/12/6 162/12/6 167/12/6
f 166/11/6 157/11/6 167/11/6
f 167/12/6 162/12/6 168/12/6
f 162/1/6 163/1/6 169/1/6
f 168/12/6 162/12/6 169/12/6
f 164/1/6 165/1/6 170/1/6
f 167/12/6 168/12/6 170/12/6
f 165/12/6 166/12/6 170/12/6
f 166/12/6 167/12/6 170/12/6
f 170/12/6 168/12/6 171/12/6
f 171/12/6 168/12/6 172/12/6
f 168/1/6 169/1/6 173/1/6
f 172/12/6 168/12/6 173/12/6
f 171/12/6 172/12/6 174/12/6
f 170/1/6 171/1/6 174/1/6
f 172/1/6 173/1/6 175/1/6
f 174/12/6 172/12/6 175/12/6
f 21/4/6 23/4/6 176/4/6
f 160/1/6 164/1/6 176/1/6
f 174/1/6 175/1/6 176/1/6
f 170/1/6 174/1/6 176/1/6
f 164/1/6 170/1/6 176/1/6
f 121/1/6 141/1/6 176/1/6
f 141/1/6 160/1/6 176/1/6
f 23/1/6 121/1/6 176/1/6
f 175/1/6 173/1/6 177/1/6
f 176/1/6 175/1/6 177/1/6
f 24/4/6 22/4/6 177/4/6
f 132/1/6 24/1/6 177/1/6
f 152/1/6 132/1/6 177/1/6
f 173/1/6 169/1/6 177/1/6
f 163/1/6 152/1/6 177/1/6
f 169/1/6 163/1/6 177/1/6
f 21/4/6 176/4/6 178/4/6
f 176/4/6 177/4/6 178/4/6
f 177/4/6 22/4/6 179/4/6
f 178/4/6 177/4/6 179/4/6
